<svg width="161" height="70" viewBox="0 0 161 70" fill="none" xmlns="http://www.w3.org/2000/svg">
<g clip-path="url(#clip0_129_103)">
<path d="M8.01126 19.0639C9.18431 19.0639 10.3594 19.0619 11.5324 19.0639C14.8098 19.0718 17.8376 19.9351 20.5701 21.7589C22.8904 23.3069 24.4677 25.4542 25.4625 28.05C26.0351 29.5444 26.3066 31.0924 26.4037 32.686C26.6811 37.2684 25.6784 41.5194 23.1797 45.3893C21.971 47.2607 20.5859 48.9972 18.656 50.1602C17.5186 50.8449 16.2801 51.3748 15.0456 51.8769C12.6896 52.8354 10.2424 53.5102 7.73583 53.9488C7.44256 54.0004 7.14137 54.0301 6.84216 54.0321C4.93198 54.0381 3.01982 54.0321 1.10766 54.0281C0.176352 54.0262 0.172389 54.0202 0.170407 53.0557C0.1605 45.9727 0.166444 38.8898 0.136722 31.8068C0.120869 28.0897 0.0455719 24.3746 -0.00198441 20.6575C-0.00396592 20.4392 -0.00594743 20.2189 -0.00198441 20.0006C0.0158492 19.2782 0.0396274 19.2484 0.727213 19.2286C3.15259 19.1552 5.57994 19.0857 8.00531 19.0162C8.00531 19.0321 8.00531 19.05 8.00531 19.0658L8.01126 19.0639ZM9.16846 35.907H9.19224C9.19224 38.0404 9.18233 40.1738 9.19818 42.3072C9.20215 42.9344 9.28735 43.5595 9.31906 44.1866C9.34085 44.6054 9.53504 44.6887 9.91351 44.5776C11.5384 44.0993 13.0067 43.3392 14.2094 42.1326C15.9274 40.41 16.8865 38.3202 17.2174 35.907C17.4353 34.3114 17.4829 32.7495 16.9122 31.2174C16.5655 30.2886 15.975 29.5702 15.0952 29.084C13.5298 28.2187 11.8296 28.0858 10.0958 28.1016C9.18233 28.1116 9.17044 28.1215 9.16846 29.0126C9.1645 31.3107 9.16846 33.6088 9.16846 35.905V35.907Z" fill="white"/>
<path d="M84.9019 37.2525C84.9019 36.9549 84.9019 36.6572 84.9019 36.3595C84.9098 33.0492 84.9019 29.7389 84.9296 26.4287C84.9475 24.325 85.0168 22.2214 85.0684 20.1177C85.0842 19.4668 85.1278 19.4033 85.7777 19.4152C87.7969 19.4489 89.8141 19.5144 91.8332 19.5501C92.3048 19.5581 92.4554 19.7744 92.4376 20.211C92.3861 21.493 92.3167 22.777 92.3029 24.0591C92.2751 26.9585 92.289 29.86 92.2632 32.7595C92.2177 38.1734 92.1642 43.5873 92.0968 49.0012C92.075 50.7774 92.0037 52.5516 91.9502 54.3259C91.9303 54.9788 91.8927 55.0165 91.2428 55.0383C89.608 55.0919 87.9693 55.1177 86.3365 55.2011C85.6787 55.2348 85.2942 55.0344 84.9931 54.4191C83.5743 51.5236 82.1159 48.648 80.6595 45.7703C79.5617 43.6012 78.4382 41.446 77.3365 39.2788C77.0016 38.6219 76.7044 37.9452 76.3814 37.2823C76.2427 36.9965 76.0782 36.7227 75.8424 36.2861C75.7671 36.552 75.7216 36.6413 75.7196 36.7306C75.67 38.5068 75.5947 40.281 75.5828 42.0572C75.5551 46.1057 75.5591 50.1543 75.5511 54.2048C75.5511 54.4231 75.5571 54.6434 75.5472 54.8617C75.5175 55.469 75.4858 55.4987 74.8774 55.5245C74.713 55.5325 74.5505 55.5245 74.386 55.5245C72.6918 55.5226 70.9996 55.5206 69.3054 55.5166C68.1997 55.5146 68.1859 55.5126 68.2156 54.3715C68.2334 53.6352 68.3325 52.9009 68.3345 52.1647C68.3543 43.1646 68.3563 34.1626 68.3781 25.1625C68.382 23.5788 68.4553 21.9951 68.5069 20.4114C68.5267 19.7843 68.5742 19.7387 69.246 19.7307C70.5022 19.7148 71.7585 19.7267 73.0148 19.7089C73.4765 19.7029 73.9402 19.6632 74.3999 19.6136C75.1212 19.5362 75.2341 19.5819 75.569 20.215C76.6925 22.3365 77.8061 24.4639 78.9415 26.5775C80.0393 28.6216 81.1687 30.6499 82.2705 32.694C82.9303 33.9204 83.5604 35.1608 84.2064 36.3952C84.3669 36.7028 84.5373 37.0045 84.7018 37.3101C84.7691 37.2903 84.8365 37.2704 84.9039 37.2506L84.9019 37.2525Z" fill="white"/>
<path d="M36.0813 43.4126C36.0813 44.0021 36.0595 44.4268 36.0853 44.8495C36.1765 46.4014 36.2755 47.9534 36.3865 49.5033C36.4677 50.6464 36.6025 51.7856 36.6639 52.9287C36.7808 55.1097 36.9136 55.0046 35.0074 55.0621C33.541 55.1058 32.0807 55.3419 30.6163 55.4908C30.4816 55.5047 30.3429 55.4967 30.2081 55.5126C29.7425 55.5642 29.5146 55.4035 29.4829 54.8894C29.4294 54.046 29.2689 53.2105 29.2095 52.3671C29.1163 51.0592 29.0727 49.7494 29.0054 48.4416C28.8548 45.552 28.7042 42.6625 28.5556 39.7729C28.5437 39.5268 28.5377 39.2807 28.5377 39.0347C28.5357 34.74 28.5021 30.4474 28.5456 26.1528C28.5674 24.1067 28.7478 22.0645 28.829 20.0184C28.8468 19.564 29.0371 19.3973 29.4631 19.3556C30.2497 19.2802 31.0305 19.1611 31.8151 19.0778C33.765 18.8694 35.7128 18.6511 37.6666 18.4725C40.7379 18.1926 43.732 18.4149 46.4427 20.078C48.3489 21.2469 49.7538 22.8425 50.6613 24.9323C51.7551 27.4507 51.763 29.9949 50.9724 32.5272C50.0589 35.4565 48.1408 37.7288 45.7908 39.6439C45.2221 40.1083 44.6197 40.535 44.0133 40.9518C43.6487 41.2018 43.5576 41.4598 43.8271 41.8329C44.4374 42.6724 45.014 43.5357 45.6501 44.3553C46.9698 46.0561 48.3073 47.743 49.6607 49.42C50.2254 50.1185 50.8298 50.7873 51.446 51.4422C51.7214 51.736 51.6977 51.9265 51.4143 52.1825C50.4037 53.0954 49.4011 54.0202 48.4024 54.949C47.9229 55.3955 47.4592 55.8579 46.9896 56.3144C46.4506 56.8383 46.4367 56.8502 45.9255 56.2608C45.2458 55.4769 44.5682 54.691 43.9341 53.8714C42.2498 51.6903 40.5794 49.4974 38.9248 47.2925C38.1065 46.201 37.3376 45.0698 36.543 43.9604C36.436 43.8115 36.3072 43.6806 36.0774 43.4126H36.0813ZM35.7267 33.587C35.7267 33.587 35.7405 33.587 35.7484 33.587C35.7484 34.5158 35.7405 35.4446 35.7504 36.3714C35.7603 37.1771 35.8832 37.2704 36.6025 36.8536C37.944 36.0757 39.2894 35.2937 40.5715 34.4245C41.7029 33.6565 42.6818 32.6939 43.405 31.5151C43.9063 30.6955 44.3561 29.8262 44.2135 28.826C43.9876 27.2264 42.8641 26.0476 41.265 25.8531C39.6639 25.6586 38.0569 25.7043 36.4935 26.2242C36.0675 26.3651 35.8792 26.5814 35.8713 27.0419C35.8356 29.2229 35.7762 31.404 35.7247 33.585L35.7267 33.587Z" fill="white"/>
<path d="M103.483 47.481C103.457 47.8621 103.431 48.1478 103.423 48.4336C103.366 50.5095 103.316 52.5854 103.257 54.6612C103.239 55.3003 103.197 55.3538 102.526 55.34C100.534 55.2983 98.5447 55.2387 96.5552 55.1693C96.0083 55.1514 95.9073 55.0363 95.9211 54.4489C95.933 53.8773 96.042 53.3058 96.044 52.7342C96.0539 46.3875 96.0816 40.0408 96.0341 33.6962C96.0123 30.884 95.8438 28.0739 95.7111 25.2637C95.6318 23.5728 95.511 21.884 95.3663 20.199C95.3267 19.7406 95.4079 19.5779 95.8934 19.5481C97.9046 19.4231 99.9139 19.2544 101.925 19.1036C102.484 19.0619 102.579 19.1413 102.619 19.7287C102.736 21.4989 102.88 23.2692 102.95 25.0414C103.084 28.4251 103.173 31.8108 103.288 35.1965C103.298 35.4803 103.354 35.7621 103.387 36.0439C103.451 36.0618 103.516 36.0777 103.58 36.0955C103.926 35.5934 104.303 35.1092 104.614 34.5872C105.648 32.8527 106.714 31.1341 107.666 29.3539C108.785 27.2622 109.814 25.1208 110.848 22.9854C111.395 21.8562 111.9 20.7051 112.368 19.5402C112.56 19.0599 112.81 19.0778 113.188 19.2326C114.048 19.5838 114.912 19.9192 115.772 20.2685C116.783 20.6793 117.795 21.0842 118.794 21.5228C119.382 21.7808 119.388 21.8423 119.148 22.3781C118.271 24.3488 117.472 26.3612 116.485 28.2763C114.987 31.1857 113.392 34.0494 111.767 36.8913C110.874 38.4532 109.849 39.9416 108.856 41.4439C108.591 41.8468 108.539 42.075 108.954 42.4581C110.862 44.2204 113.006 45.5838 115.399 46.58C116.971 47.2349 118.592 47.7033 120.27 47.9534C120.795 48.0308 120.886 48.2332 120.823 48.6996C120.67 49.8347 120.549 50.9739 120.425 52.113C120.325 53.0061 120.224 53.9011 120.153 54.7982C120.119 55.2308 119.955 55.3499 119.523 55.2864C115.921 54.7505 112.53 53.6154 109.372 51.7856C107.38 50.6306 105.533 49.291 103.857 47.7112C103.786 47.6438 103.685 47.6061 103.481 47.485L103.483 47.481Z" fill="white"/>
<path d="M145.786 19.2286C147.014 19.2286 148.245 19.2445 149.474 19.2246C152.147 19.1829 154.82 19.1214 157.493 19.0698C157.711 19.0658 157.931 19.0758 158.149 19.0698C158.47 19.0639 158.664 19.1909 158.694 19.5362C158.725 19.9172 158.806 20.2943 158.814 20.6753C158.854 22.4238 158.864 24.1741 158.91 25.9245C158.919 26.3016 158.749 26.4167 158.432 26.4247C157.913 26.4366 157.394 26.4405 156.876 26.4425C155.101 26.4524 153.326 26.4465 151.552 26.4743C149.999 26.4981 148.445 26.5576 146.892 26.6092C146.299 26.6291 146.238 26.6807 146.234 27.2899C146.218 29.5603 146.216 31.8306 146.22 34.101C146.22 34.7837 146.271 34.8274 146.989 34.8274C149.474 34.8313 151.958 34.8234 154.445 34.8214C154.691 34.8214 154.937 34.8135 155.182 34.8214C155.826 34.8452 155.886 34.8849 155.888 35.5339C155.898 37.4768 155.896 39.4177 155.89 41.3606C155.888 42.1604 155.86 42.1901 155.055 42.1921C152.487 42.1981 149.921 42.1941 147.353 42.1941C147.163 42.1941 146.969 42.208 146.781 42.1921C146.345 42.1544 146.123 42.2735 146.178 42.7815C146.267 43.621 146.295 44.4684 146.351 45.3119C146.487 47.3897 148.364 48.7789 150.284 48.9278C151.952 49.0568 153.423 48.6043 154.479 47.2071C154.689 46.9293 154.879 46.9214 155.168 47.0801C156.411 47.7648 157.663 48.4316 158.91 49.1044C159.486 49.416 160.059 49.7335 160.635 50.0431C161.012 50.2436 161.107 50.444 160.853 50.8727C159.926 52.4444 158.652 53.6531 157.1 54.5699C155.008 55.8083 152.733 56.4473 150.3 56.3164C147.437 56.1616 144.884 55.1772 142.707 53.2601C140.783 51.5653 139.693 49.4319 139.189 46.9452C138.938 45.7068 138.819 44.4684 138.831 43.2043C138.861 39.9218 138.831 36.6393 138.859 33.3568C138.874 31.3901 138.946 29.4234 139.001 27.4566C139.015 26.9803 138.999 26.5854 138.353 26.5715C137.973 26.5616 138.016 26.2024 138.014 25.9365C138.01 24.8965 138.014 23.8566 138.018 22.8187C138.018 21.8879 138.016 20.9591 138.026 20.0284C138.036 19.2762 138.066 19.2425 138.817 19.2405C141.137 19.2345 143.46 19.2385 145.78 19.2385V19.2246L145.786 19.2286Z" fill="white"/>
<path d="M59.4494 19.3913C61.2525 19.3913 63.0537 19.3873 64.8569 19.3913C65.6713 19.3933 65.705 19.423 65.707 20.205C65.7149 22.0923 65.7129 23.9796 65.707 25.867C65.703 26.7045 65.6456 26.7561 64.8312 26.77C64.3952 26.7779 63.9573 26.7819 63.5214 26.7719C63.1132 26.762 62.9091 26.9367 62.9249 27.3574C62.9348 27.6313 62.9249 27.9051 62.9249 28.177C62.9348 31.4039 62.9309 34.6309 62.9606 37.8598C62.9903 41.0847 63.0518 44.3077 63.1053 47.5326C63.1171 48.2431 63.1489 48.2709 63.8503 48.2887C64.2327 48.2986 64.6152 48.2828 64.9976 48.2927C65.6475 48.3105 65.701 48.3502 65.705 48.9992C65.7169 50.7218 65.7149 52.4444 65.707 54.169C65.6991 55.8698 65.8913 55.6674 64.2367 55.6713C60.9593 55.6793 57.6838 55.6733 54.4064 55.6733C54.2162 55.6733 54.024 55.6773 53.8337 55.6733C53.1481 55.6515 53.1105 55.6217 53.1046 54.9033C53.0946 53.5082 53.1006 52.113 53.1006 50.7178C53.1006 50.1165 53.1145 49.5132 53.0986 48.9119C53.0867 48.4515 53.2908 48.2709 53.7386 48.2867C54.1746 48.3026 54.6125 48.2986 55.0484 48.2867C55.6845 48.2669 55.7221 48.2212 55.7439 47.5604C55.7499 47.3699 55.7439 47.1774 55.7439 46.9868C55.736 43.6508 55.7439 40.3127 55.7142 36.9766C55.6865 33.835 55.6211 30.6915 55.5696 27.5499C55.5577 26.8096 55.526 26.7858 54.7631 26.7719C54.4361 26.766 54.1072 26.7799 53.7803 26.768C53.166 26.7442 53.1184 26.7104 53.1065 26.1091C53.0907 25.2895 53.1006 24.4678 53.1006 23.6482C53.1006 22.5547 53.0986 21.4592 53.1006 20.3657C53.1026 19.3933 53.1065 19.3913 54.1231 19.3893C55.8985 19.3873 57.6719 19.3893 59.4474 19.3893L59.4494 19.3913Z" fill="white"/>
<path d="M128.741 55.8361C126.912 55.8361 125.081 55.84 123.252 55.8341C122.491 55.8321 122.459 55.8004 122.456 55.0542C122.448 53.1113 122.448 51.1703 122.456 49.2274C122.459 48.509 122.493 48.4832 123.191 48.4673C123.654 48.4574 124.12 48.4515 124.584 48.4673C125.018 48.4812 125.249 48.3304 125.24 47.8581C125.19 45.4548 125.152 43.0494 125.111 40.6441C125.107 40.3703 125.091 40.0984 125.091 39.8245C125.081 37.3358 125.087 34.8452 125.057 32.3565C125.039 30.7729 124.974 29.1892 124.921 27.6055C124.901 27.0041 124.851 26.9645 124.249 26.9347C124.003 26.9228 123.757 26.9327 123.512 26.9307C122.808 26.9281 122.455 26.5616 122.454 25.8313C122.454 24.1086 122.454 22.384 122.454 20.6614C122.454 20.5245 122.45 20.3876 122.454 20.2506C122.479 19.6096 122.509 19.5818 123.177 19.558C123.258 19.556 123.341 19.558 123.423 19.558C126.973 19.558 130.522 19.558 134.073 19.558C135.054 19.558 135.056 19.562 135.058 20.5662C135.06 22.4257 135.064 24.2873 135.056 26.1468C135.054 26.891 135.018 26.9168 134.259 26.9287C133.768 26.9367 133.277 26.9347 132.785 26.9367C132.448 26.9367 132.284 27.1073 132.286 27.4427C132.286 27.6333 132.282 27.8258 132.282 28.0163C132.286 30.8622 132.27 33.7061 132.298 36.5519C132.333 40.2413 132.399 43.9326 132.454 47.6219C132.466 48.4296 132.49 48.4515 133.285 48.4634C133.695 48.4693 134.105 48.4733 134.513 48.4673C134.89 48.4614 135.07 48.6321 135.056 49.0111C135.052 49.0925 135.058 49.1758 135.058 49.2572C135.058 51.2001 135.064 53.141 135.056 55.0839C135.052 55.7944 135.018 55.8301 134.311 55.8341C132.454 55.842 130.598 55.8381 128.739 55.8381L128.741 55.8361Z" fill="white"/>
<path d="M56.9725 17.2619C55.9401 17.2559 55.9104 17.2103 55.633 16.2279C54.8622 13.4932 54.0715 10.7644 53.2849 8.03162C52.8925 6.66623 52.4843 5.30481 52.0999 3.93545C51.7215 2.58197 51.1468 2.26245 49.8053 2.61967C47.1937 3.31428 44.5761 3.98109 41.9625 4.66379C41.4869 4.78882 41.0272 4.97537 40.5477 5.0746C40.0087 5.18772 39.87 5.0488 39.8324 4.48915C39.765 3.48495 39.8898 3.31626 40.8509 3.04834C43.5319 2.29817 46.2148 1.548 48.8938 0.78791C49.5497 0.60136 50.1937 0.379088 50.8456 0.178645C51.0022 0.131015 51.1607 0.0734626 51.3232 0.0615552C53.055 -0.0753806 53.376 -0.160717 53.9249 1.71669C54.6838 4.31252 55.411 6.91628 56.1264 9.52402C56.7248 11.709 57.2955 13.904 57.8602 16.0969C58.1534 17.2361 58.1178 17.2678 56.9744 17.2619H56.9725Z" fill="white"/>
<path d="M67.641 64.2388C67.9323 63.2842 68.2236 62.3316 68.5129 61.377C68.6952 60.7757 68.8755 60.1743 69.0558 59.575C69.1469 59.2753 69.3451 59.1245 69.6602 59.1324C69.7969 59.1364 69.9336 59.1265 70.0703 59.1285C71.1086 59.1463 71.2374 58.9538 71.3484 60.2239C71.5644 62.6947 71.9508 65.1497 72.25 67.6145C72.2896 67.944 72.4818 68.4242 72.0717 68.5711C71.604 68.7378 71.0651 68.7298 70.5558 68.7338C70.4805 68.7338 70.3616 68.3845 70.3359 68.1861C70.1991 67.1581 70.0901 66.1281 69.9594 65.0981C69.9296 64.8679 69.8504 64.6456 69.7513 64.2566C69.3233 65.6418 68.9131 66.8544 68.5862 68.0888C68.4475 68.6108 68.2255 68.8192 67.6925 68.8033C66.9812 68.7814 66.9197 68.7795 66.6819 68.1107C66.242 66.8782 65.82 65.6418 65.388 64.4055C65.3523 64.3042 65.3008 64.209 65.18 63.9391C65.0829 64.5801 64.9917 65.0604 64.9402 65.5426C64.859 66.3027 64.8035 67.0628 64.7401 67.8249C64.6608 68.7616 64.4745 68.9085 63.5512 68.7537C63.4164 68.7318 63.2856 68.6822 63.1509 68.6723C62.7665 68.6465 62.6634 68.4838 62.711 68.0849C62.9686 65.9197 63.1925 63.7486 63.4224 61.5794C63.4877 60.9563 63.5313 60.3291 63.5987 59.706C63.6165 59.5512 63.674 59.2753 63.7394 59.2674C64.2982 59.1999 64.8728 59.1066 65.4217 59.1801C65.6416 59.2098 65.8874 59.6048 65.9864 59.8826C66.4125 61.0892 66.785 62.3157 67.1872 63.5322C67.2685 63.7783 67.3893 64.0105 67.4924 64.2487C67.5439 64.2447 67.5954 64.2407 67.6489 64.2348L67.641 64.2388Z" fill="white"/>
<path d="M118.237 65.114C118.302 65.0187 118.338 64.9731 118.36 64.9274C118.952 63.961 118.691 63.9431 119.777 63.8459C120.175 63.8101 120.329 63.9014 120.333 64.3043C120.339 65.1815 120.373 66.0666 119.832 66.8267C119.408 67.4221 119.473 67.9916 119.822 68.5811C119.905 68.72 119.955 68.8787 120.02 69.0276C120.127 69.2757 120.058 69.4483 119.804 69.5475C119.499 69.6666 119.194 69.7817 118.893 69.9147C118.491 70.0913 118.253 70 118.076 69.5674C117.821 68.9423 117.791 68.9542 117.106 69.1506C115.479 69.619 114.216 69.2002 113.38 67.9182C112.633 66.7731 112.778 65.0584 113.707 64.0463C114.049 63.6732 114.101 63.2518 113.862 62.7821C113.198 61.4802 113.747 59.8489 115.057 59.2297C116.479 58.555 118.195 59.1325 118.691 60.5217C119.071 61.5914 118.885 62.6293 118.14 63.5144C117.474 64.3063 117.46 64.2944 118.235 65.114H118.237ZM116.002 67.3427C116.771 67.3347 116.939 67.0847 116.578 66.4159C116.372 66.0348 116.107 65.6875 115.861 65.3264C115.697 65.0862 115.497 65.1338 115.298 65.2767C114.971 65.5129 114.801 66.1698 114.94 66.6302C115.078 67.0946 115.455 67.3466 116.002 67.3427ZM116.852 61.6489C116.903 61.2381 116.733 60.9861 116.376 60.9444C116.012 60.9007 115.556 61.1746 115.619 61.4921C115.693 61.8533 115.909 62.2304 116.168 62.4944C116.337 62.665 116.792 62.1272 116.852 61.6489Z" fill="white"/>
<path d="M87.6067 61.9347C87.8623 63.0798 87.8405 64.2686 87.5987 65.4177C87.4501 66.1222 87.244 66.791 86.8675 67.44C85.9045 69.105 82.7817 69.8433 81.4005 67.5253C80.1621 65.4474 80.1581 62.1927 81.462 60.2637C82.532 58.68 84.5452 58.4578 85.8847 59.2139C86.7288 59.6902 87.1648 60.4979 87.4461 61.3493C87.5096 61.5418 87.5611 61.7383 87.6047 61.9347H87.6067ZM82.4488 64.0483C82.3675 64.7945 82.5677 65.5447 82.9659 66.2552C83.5109 67.2316 84.5195 67.2832 85.1833 66.3603C85.7559 65.5645 85.8788 64.6238 85.8451 63.7089C85.8193 62.9667 85.645 62.1749 85.32 61.512C84.8246 60.4979 83.7506 60.5118 83.0967 61.4148C82.536 62.1888 82.4151 63.06 82.4488 64.0483Z" fill="white"/>
<path d="M135.236 62.9608C135.349 63.7546 135.349 64.5623 135.197 65.3482C135.066 66.019 134.84 66.66 134.45 67.2594C133.756 68.3211 132.849 69.0098 131.497 69.0078C130.376 69.0078 129.528 68.5017 128.955 67.6186C128.408 66.7731 128.036 65.8265 128.022 64.7786C128.004 63.5482 127.966 62.3297 128.467 61.1528C128.993 59.9164 130.231 58.7594 131.697 58.7912C133.183 58.8229 134.446 59.6922 134.903 61.2322C135.07 61.7919 135.155 62.3773 135.238 62.9628L135.236 62.9608ZM129.971 63.5522C129.971 63.8082 129.965 64.0642 129.96 64.3202C129.942 65.0704 130.148 65.7947 130.606 66.4635C130.974 66.9994 131.438 67.2177 131.991 66.8843C132.387 66.6461 132.811 66.2671 132.971 65.8543C133.489 64.5187 133.449 63.1275 133.001 61.774C132.827 61.2481 132.468 60.8174 131.83 60.7738C131.174 60.7281 130.768 61.0536 130.463 61.6093C130.128 62.2165 129.973 62.8536 129.973 63.5502L129.971 63.5522Z" fill="white"/>
<path d="M72.783 63.9967C72.7176 62.9131 72.8444 61.9248 73.2843 60.9801C74.1661 59.0869 76.001 58.4101 77.5901 58.9777C78.7295 59.3845 79.3735 60.3034 79.7222 61.4128C80.1998 62.931 80.2196 64.473 79.752 66.0031C79.3953 67.1661 78.7889 68.1385 77.6416 68.6863C76.0921 69.4265 74.4058 68.8927 73.5558 67.3963C72.9435 66.3206 72.7969 65.2172 72.785 63.9947L72.783 63.9967ZM78.0439 64.1892C78.036 64.0106 78.034 63.834 78.032 63.6554C78.0181 62.2483 77.9072 61.8772 77.4316 61.2719C76.9442 60.6507 76.1416 60.5674 75.5789 61.1211C75.353 61.3433 75.1469 61.6351 75.0558 61.9347C74.8656 62.5579 74.6595 63.2029 74.6397 63.8439C74.6099 64.7449 74.7883 65.6419 75.2936 66.4278C75.7315 67.1105 76.5003 67.2256 77.1146 66.6937C77.2969 66.537 77.4296 66.3187 77.5703 66.1202C78.0082 65.4951 78.0716 64.7925 78.0479 64.1912L78.0439 64.1892Z" fill="white"/>
<path d="M101.644 63.9272C101.644 65.239 101.65 66.5528 101.642 67.8646C101.636 68.6068 101.592 68.6386 100.845 68.6565C100.065 68.675 99.6735 68.2926 99.6722 67.5094C99.6722 66.9616 99.6583 66.4159 99.6742 65.8681C99.6881 65.4256 99.5216 65.2013 99.0579 65.2172C98.622 65.2311 98.1841 65.2053 97.7481 65.2251C97.1418 65.2529 97.0487 65.3363 97.0546 65.9753C97.0586 66.5191 97.116 67.0648 97.1695 67.6066C97.2607 68.5017 97.2211 68.5632 96.3393 68.7081C96.2046 68.7299 96.0718 68.7696 95.937 68.7835C95.3763 68.8331 95.2475 68.7497 95.2316 68.1782C95.1702 65.884 95.1266 63.5898 95.087 61.2957C95.0791 60.7777 95.1028 60.2577 95.1385 59.7398C95.1682 59.325 95.3882 59.0908 95.838 59.1305C96.0005 59.1444 96.1649 59.1305 96.3294 59.1345C97.1735 59.1503 97.1378 59.1484 97.0824 60.0255C97.0269 60.8968 97.0546 61.774 97.0388 62.6491C97.0308 63.05 97.1854 63.2664 97.6114 63.2584C98.1028 63.2485 98.5943 63.2485 99.0857 63.2584C99.5038 63.2664 99.6742 63.0719 99.6702 62.6611C99.6623 61.7581 99.6643 60.8551 99.6702 59.9541C99.6781 59.1503 99.698 59.1365 100.504 59.1226C100.586 59.1226 100.669 59.1226 100.75 59.1226C101.606 59.1325 101.636 59.1523 101.64 59.9898C101.646 61.3016 101.64 62.6154 101.64 63.9272H101.644Z" fill="white"/>
<path d="M58.7856 58.9935C60.3272 59.0531 61.3834 59.7516 62.0809 61.0317C62.283 61.4028 62.1799 61.5913 61.7935 61.6707C61.5795 61.7144 61.6806 61.6906 61.1535 61.8017C60.5392 61.8612 60.3015 61.8354 59.9309 61.4564C59.2612 60.7717 58.4487 60.7836 57.7453 61.4068C57.2024 61.887 57.2261 62.405 57.8959 62.669C58.6766 62.9786 59.5247 63.1135 60.3114 63.4112C60.8563 63.6176 61.4567 63.8676 61.8371 64.2804C62.7407 65.2608 62.5683 66.4516 61.4408 67.5312C60.882 68.065 60.1687 68.4699 59.4653 68.8112C57.781 69.6328 55.9956 68.5354 55.6508 66.7056C55.5855 66.3623 55.6845 66.1717 56.0055 66.1003C56.2453 66.0467 56.4989 66.0507 56.7308 65.9792C57.1925 65.8383 57.4738 65.9058 57.668 66.4258C57.9137 67.0827 58.2446 67.1958 58.8906 66.8882C59.2988 66.6917 59.6793 66.4039 60.0122 66.0924C60.4124 65.7173 60.3351 65.4692 59.7942 65.2866C59.4613 65.1735 59.0987 65.1477 58.7598 65.0425C58.1634 64.8599 57.565 64.6734 56.9864 64.4432C55.0346 63.6672 54.8483 61.0754 56.5683 59.7497C57.238 59.2317 58.0366 59.0531 58.7856 58.9955V58.9935Z" fill="white"/>
<path d="M157.368 58.9757C158.077 58.9757 158.789 58.9975 159.498 58.9677C159.982 58.9479 160.209 59.1563 160.257 59.6147C160.271 59.7496 160.285 59.8866 160.291 60.0235C160.324 60.861 160.277 60.9166 159.456 60.9305C158.801 60.9424 158.145 60.9523 157.489 60.9384C157.041 60.9305 156.849 61.113 156.851 61.5695C156.857 63.5739 156.708 63.2108 158.412 63.2366C159.494 63.2524 159.494 63.2405 159.482 64.3281C159.472 65.1814 159.466 65.1894 158.606 65.1993C158.196 65.2033 157.786 65.2072 157.378 65.2033C156.991 65.1993 156.859 65.4037 156.851 65.7689C156.827 66.787 157.778 67.3367 158.765 66.8723C158.969 66.777 159.244 66.6143 159.405 66.6818C159.851 66.8683 160.261 67.1501 160.667 67.422C160.713 67.4518 160.689 67.7098 160.618 67.7733C160.239 68.1146 159.882 68.5413 159.431 68.7299C157.548 69.5138 155.26 68.706 154.905 66.3126C154.79 65.5406 154.847 64.7409 154.847 63.953C154.847 63.1056 154.946 62.2522 154.865 61.4127C154.812 60.863 154.526 60.343 154.576 59.7516C154.635 59.0392 154.633 58.9995 155.321 58.9876C156.005 58.9757 156.686 58.9856 157.37 58.9856V58.9757H157.368Z" fill="white"/>
<path d="M109.223 58.9757C109.905 58.9757 110.586 58.9658 111.268 58.9777C111.888 58.9876 111.926 59.0332 111.963 59.6147C112.051 60.9146 112.041 60.9245 110.711 60.9345C110.192 60.9384 109.675 60.9444 109.156 60.9424C108.759 60.9424 108.539 61.117 108.535 61.5278C108.531 61.9367 108.531 62.3475 108.533 62.7563C108.535 63.0996 108.73 63.2386 109.057 63.2366C109.601 63.2346 110.148 63.2485 110.693 63.2366C111.105 63.2266 111.282 63.4033 111.286 63.82C111.3 65.4593 111.298 65.1755 110.016 65.1973C109.716 65.2013 109.415 65.1854 109.116 65.2033C108.589 65.233 108.486 65.362 108.559 65.8602C108.7 66.8207 109.544 67.2712 110.448 66.8802C110.681 66.779 110.981 66.6004 111.171 66.6719C111.625 66.8406 112.039 67.1244 112.445 67.3943C112.496 67.428 112.463 67.7118 112.382 67.8031C112.128 68.0849 111.868 68.3905 111.547 68.5771C109.93 69.5138 107.376 69.0157 106.782 66.7751C106.651 66.2809 106.586 65.755 106.572 65.243C106.542 64.1515 106.59 63.058 106.56 61.9645C106.54 61.2321 106.413 60.5038 106.391 59.7735C106.37 59.0312 106.425 58.9995 107.178 58.9896C107.86 58.9816 108.541 58.9896 109.223 58.9896V58.9796V58.9757Z" fill="white"/>
<path d="M154.332 67.4141C153.411 69.4463 149.931 69.5713 148.891 67.6324C148.582 67.0549 148.411 66.3484 148.37 65.6895C148.291 64.4392 148.37 63.177 148.344 61.9227C148.336 61.5576 148.17 61.1984 148.13 60.8312C148.079 60.349 148.039 59.8548 148.087 59.3765C148.1 59.2317 148.423 59.0134 148.61 59.0074C150.163 58.9737 151.719 58.9737 153.272 58.9895C153.421 58.9895 153.682 59.1543 153.694 59.2614C153.744 59.7179 153.752 60.1882 153.694 60.6427C153.68 60.7558 153.367 60.9007 153.187 60.9106C152.48 60.9463 151.77 60.9245 151.061 60.9404C150.385 60.9543 150.328 60.992 150.324 61.6191C150.314 63.5283 150.169 63.2088 151.84 63.2346C152.004 63.2365 152.166 63.2445 152.331 63.2346C152.797 63.2048 152.931 63.4409 152.949 63.8776C153.005 65.1933 153.019 65.1933 151.693 65.1933C151.528 65.1933 151.364 65.1755 151.203 65.1973C150.884 65.239 150.454 65.0365 150.334 65.5605C150.221 66.0527 150.435 66.6282 150.843 66.8445C151.306 67.0906 151.816 67.1303 152.248 66.8366C152.638 66.5706 152.941 66.65 153.292 66.8544C153.619 67.0449 153.96 67.2116 154.338 67.4101L154.332 67.4141Z" fill="white"/>
<path d="M122.8 64.2904C122.828 64.989 122.85 65.5665 123.155 66.1857C123.577 67.041 124.934 67.053 125.446 66.3484C125.559 66.1936 125.618 65.9952 125.753 65.8682C125.872 65.755 126.072 65.634 126.214 65.6558C126.589 65.7114 126.956 65.8344 127.32 65.9475C127.643 66.0488 127.76 66.2849 127.613 66.5866C127.059 67.7257 126.209 68.5612 124.936 68.7795C123.747 68.982 122.697 68.6863 121.849 67.7098C120.775 66.4735 120.726 65.0148 120.854 63.5363C120.944 62.5122 121.168 61.512 121.707 60.5733C122.753 58.7535 124.883 58.8428 126.03 59.6783C126.117 59.7418 126.199 59.8172 126.286 59.8827C127.55 60.8174 127.538 60.9405 126.23 61.8295C125.953 62.0181 125.777 62.034 125.527 61.8018C124.243 60.607 123.516 60.9325 123.032 62.5222C122.953 62.7841 122.826 63.0401 122.81 63.3081C122.79 63.6514 122.8 63.963 122.8 64.2904Z" fill="white"/>
<path d="M136.205 67.3863C136.237 68.722 136.334 68.8133 137.68 68.6565C138.013 68.6168 138.179 68.4878 138.175 68.1484C138.171 67.7098 138.167 67.2732 138.181 66.8346C138.197 66.3464 138.056 65.7054 138.308 65.4157C138.542 65.1477 139.205 65.2192 139.681 65.2053C140.119 65.1914 140.357 65.0505 140.327 64.5821C140.317 64.4194 140.329 64.2547 140.327 64.09C140.315 63.2743 140.293 63.2525 139.511 63.2386C139.265 63.2346 139.019 63.2287 138.773 63.2386C138.367 63.2564 138.161 63.0858 138.175 62.6611C138.187 62.278 138.189 61.895 138.175 61.512C138.161 61.0853 138.373 60.9285 138.777 60.9365C139.35 60.9464 139.925 60.9444 140.497 60.9365C141.825 60.9206 141.785 61.1726 141.791 59.579C141.791 59.0968 141.561 58.9678 141.133 58.9777C140.396 58.9936 139.659 58.9817 138.922 58.9817V58.9876C138.129 58.9876 137.337 58.9737 136.546 58.9916C135.954 59.0055 135.874 59.067 135.902 59.6683C135.926 60.1744 136.1 60.6725 136.124 61.1766L136.207 67.3844L136.205 67.3863Z" fill="white"/>
<path d="M142.291 67.3863C142.322 68.722 142.419 68.8133 143.765 68.6565C144.098 68.6168 144.264 68.4878 144.26 68.1484C144.256 67.7098 144.252 67.2732 144.266 66.8346C144.282 66.3464 144.141 65.7054 144.393 65.4157C144.627 65.1477 145.291 65.2192 145.766 65.2053C146.204 65.1914 146.442 65.0505 146.412 64.5821C146.402 64.4194 146.414 64.2547 146.412 64.09C146.4 63.2743 146.378 63.2525 145.596 63.2386C145.35 63.2346 145.104 63.2287 144.859 63.2386C144.452 63.2564 144.246 63.0858 144.26 62.6611C144.272 62.278 144.274 61.895 144.26 61.512C144.246 61.0853 144.458 60.9285 144.863 60.9365C145.435 60.9464 146.01 60.9444 146.583 60.9365C147.91 60.9206 147.871 61.1726 147.876 59.579C147.876 59.0968 147.647 58.9678 147.219 58.9777C146.481 58.9936 145.744 58.9817 145.007 58.9817V58.9876C144.215 58.9876 143.422 58.9737 142.631 58.9916C142.039 59.0055 141.96 59.067 141.987 59.6683C142.011 60.1744 142.186 60.6725 142.209 61.1766L142.293 67.3844L142.291 67.3863Z" fill="white"/>
<path d="M94.7401 60.1427C94.7381 61.0754 94.7381 61.0675 93.7692 61.0873C93.2837 61.0972 92.6278 60.9682 92.3643 61.2262C92.1166 61.4703 92.2672 62.1372 92.2672 62.6174C92.2672 64.3678 92.2771 66.1162 92.2791 67.8666C92.2791 68.7934 92.2751 68.7934 91.3874 68.8033C90.3233 68.8153 90.3352 68.8153 90.3134 67.7178C90.2758 65.7511 90.2223 63.7863 90.1707 61.8216C90.1529 61.1409 90.1073 61.1072 89.3979 61.0853C89.2612 61.0814 89.1225 61.1032 88.9898 61.0814C88.6331 61.0198 88.0347 61.0258 87.9713 60.8492C87.8187 60.4126 87.8722 59.8847 87.9336 59.4044C87.9475 59.2893 88.3141 59.1444 88.5221 59.1385C89.5584 59.1107 90.5968 59.1246 91.6331 59.1246C92.3425 59.1246 93.0519 59.1226 93.7632 59.1246C94.4171 59.1272 94.7434 59.4659 94.7421 60.1407L94.7401 60.1427Z" fill="white"/>
<path d="M104.24 59.1146C104.513 59.1146 104.784 59.1106 105.058 59.1146C105.819 59.1284 105.86 59.1622 105.868 59.8885C105.872 60.3629 106.003 60.8947 105.302 61.0654C105.189 61.0932 105.09 61.4286 105.088 61.625C105.076 63.0162 105.07 64.4094 105.107 65.8006C105.119 66.2412 105.129 66.7155 105.668 66.9695C105.94 67.0965 105.975 68.45 105.757 68.6683C105.672 68.7536 105.52 68.8112 105.397 68.8132C104.58 68.8251 103.762 68.8231 102.944 68.8172C102.839 68.8172 102.716 68.7993 102.631 68.7437C102.268 68.5095 102.397 67.0152 102.819 66.8822C103.203 66.7611 103.253 66.5389 103.243 66.2114C103.195 64.7408 103.154 63.2703 103.112 61.7977C103.102 61.4187 103.084 61.1309 102.67 60.853C102.208 60.5415 102.426 59.8945 102.504 59.4043C102.567 59.0054 102.977 59.1324 103.259 59.1165C103.586 59.0987 103.913 59.1126 104.24 59.1126V59.1146Z" fill="white"/>
<path d="M53.5999 64.3915C53.5999 64.6098 53.6415 64.84 53.588 65.0425C53.588 65.0464 53.5861 65.0504 53.5841 65.0544C53.485 65.4116 53.0055 65.5148 52.7717 65.227C52.7717 65.227 52.7697 65.2231 52.7677 65.2211C52.3813 64.7388 52.1019 64.1335 51.6343 63.7624C51.1389 63.3695 50.483 63.169 49.8826 62.9229C49.5061 62.7701 49.0979 62.6967 48.7096 62.5737C47.806 62.2918 47.164 61.3095 47.3027 60.4323C47.4414 59.5591 48.1845 58.9379 49.195 58.9716C50.8674 59.0272 52.0464 59.9381 52.8846 61.3174C53.4533 62.2522 53.5722 63.3159 53.5999 64.3876V64.3915Z" fill="white"/>
<path d="M60.3232 13.9873C60.4877 11.6792 61.3873 10.5341 63.2043 9.9943C64.2525 9.68272 65.2057 10.5143 65.0729 11.582C65.0035 12.1416 64.6389 12.4532 64.1713 12.6516C63.771 12.8223 63.351 12.9533 62.9289 13.0644C62.0907 13.2867 61.4705 13.767 61.0385 14.5211C61.0385 14.5211 61.0365 14.5251 61.0346 14.5271C60.8741 14.799 60.4599 14.7315 60.3628 14.4318C60.3509 14.3921 60.3371 14.3524 60.3272 14.3127C60.2994 14.2115 60.3232 14.0964 60.3232 13.9853V13.9873Z" fill="white"/>
<path d="M46.9242 65.0723C48.016 64.5385 49.2961 64.5107 50.3938 65.0326C50.8892 65.2688 51.3212 65.5784 51.7234 65.9534C51.7452 65.9733 51.7631 65.9991 51.7769 66.0269C51.8919 66.263 51.7036 66.5508 51.4401 66.5488C51.4203 66.5488 51.3985 66.5468 51.3787 66.5429C50.9011 66.4496 50.4374 66.2888 49.9619 66.1936C49.199 66.0408 48.4539 66.1519 47.7168 66.3801C47.4909 66.4496 47.1858 66.527 47.0114 66.4298C46.7796 66.3008 46.5418 66.0229 46.4962 65.7748C46.4605 65.5744 46.6488 65.2112 46.837 65.114C46.8667 65.1001 46.8945 65.0842 46.9242 65.0703V65.0723Z" fill="white"/>
<path d="M65.4752 15.442C65.2315 15.6028 64.9283 15.6524 64.645 15.581C63.6958 15.3428 62.8438 15.448 61.9917 15.6802C61.9105 15.702 61.7559 15.6544 61.7222 15.5909C61.6826 15.5174 61.7103 15.3746 61.7599 15.2932C62.3088 14.3882 64.2665 13.9338 65.2335 14.4795C65.5347 14.6482 65.8398 14.8943 65.6674 15.2416C65.6278 15.321 65.5565 15.3865 65.4732 15.442H65.4752Z" fill="white"/>
</g>
<defs>
<clipPath id="clip0_129_103">
<rect width="161" height="70" fill="white"/>
</clipPath>
</defs>
</svg>
