<svg width="440" height="291" viewBox="0 0 440 291" fill="none" xmlns="http://www.w3.org/2000/svg">
<g clip-path="url(#clip0_228_353)">
<rect width="440" height="291" fill="white"/>
<path d="M-30 -11H470V5980H-30V-11Z" fill="#FFFDCA" fill-opacity="0.64"/>
<rect x="-29" y="-22" width="487" height="5977" fill="#F2E8DE" fill-opacity="0.61"/>
<path d="M103.758 98.7C105.564 98.7 107.098 98.5997 108.359 98.399C109.649 98.1697 110.538 97.7683 111.025 97.195H111.455L110.165 103H87.2459V69.675H110.165L111.455 75.48H111.025C110.538 74.9067 109.649 74.5197 108.359 74.319C107.098 74.0897 105.564 73.975 103.758 73.975H95.8459V84.166H105.65V88.466H95.8459V98.7H103.758ZM128.043 88.509C128.043 87.047 127.828 85.9147 127.398 85.112C126.997 84.2807 126.294 83.865 125.291 83.865C124.03 83.865 122.983 84.4957 122.152 85.757C121.321 87.0183 120.905 88.8673 120.905 91.304V103H112.735V79.565H116.605L120.389 81.93C121.421 81.0413 122.582 80.3533 123.872 79.866C125.162 79.3787 126.538 79.135 128 79.135C129.233 79.135 130.351 79.3213 131.354 79.694C132.357 80.038 133.217 80.5397 133.934 81.199C134.651 81.8297 135.21 82.6037 135.611 83.521C136.012 84.4383 136.213 85.456 136.213 86.574V103H128.043V88.509ZM160.414 96.421C159.526 98.657 158.164 100.391 156.329 101.624C154.495 102.828 152.316 103.43 149.793 103.43C148.045 103.43 146.425 103.129 144.934 102.527C143.472 101.925 142.197 101.094 141.107 100.033C140.047 98.9723 139.215 97.711 138.613 96.249C138.011 94.7583 137.71 93.1387 137.71 91.39C137.71 87.52 138.714 84.51 140.72 82.36C142.756 80.21 145.608 79.135 149.277 79.135C152.861 79.135 155.627 80.167 157.576 82.231C159.554 84.295 160.543 87.2047 160.543 90.96L160.328 91.347L147.772 94.873C148.604 96.1343 149.578 97.1663 150.696 97.969C151.843 98.743 153.004 99.13 154.179 99.13C155.928 99.13 157.29 98.227 158.264 96.421H160.414ZM152.803 89.842C152.746 89.068 152.56 88.3083 152.244 87.563C151.929 86.789 151.528 86.101 151.04 85.499C150.582 84.8683 150.066 84.3667 149.492 83.994C148.948 83.6213 148.403 83.435 147.858 83.435C147.113 83.435 146.525 83.8077 146.095 84.553C145.665 85.2697 145.45 86.273 145.45 87.563C145.45 89.111 145.766 90.6733 146.396 92.25L152.803 89.842ZM162.034 79.565H165.904L169.129 81.586C170.505 79.952 172.254 79.135 174.375 79.135C175.006 79.135 175.651 79.221 176.31 79.393C176.998 79.5363 177.758 79.7943 178.589 80.167L176.439 88.767H176.009C175.78 87.735 175.55 86.875 175.321 86.187C175.12 85.499 174.905 84.9543 174.676 84.553C174.475 84.1517 174.246 83.865 173.988 83.693C173.73 83.521 173.443 83.435 173.128 83.435C171.179 83.435 170.204 86.0293 170.204 91.218V103H162.034V79.565ZM205.251 104.978C205.251 111.686 201.051 115.04 192.652 115.04C191.62 115.04 190.573 114.968 189.513 114.825C188.452 114.71 187.406 114.524 186.374 114.266C185.342 114.037 184.353 113.75 183.407 113.406C182.461 113.091 181.601 112.718 180.827 112.288L182.547 104.118H183.02C183.45 105.121 183.98 106.024 184.611 106.827C185.27 107.63 185.987 108.318 186.761 108.891C187.563 109.493 188.395 109.952 189.255 110.267C190.143 110.582 191.032 110.74 191.921 110.74C195.361 110.74 197.081 108.189 197.081 103.086V100.549C196.077 101.466 194.916 102.183 193.598 102.699C192.279 103.186 190.803 103.43 189.169 103.43C187.707 103.43 186.374 103.143 185.17 102.57C183.994 101.997 182.977 101.18 182.117 100.119C181.257 99.0583 180.597 97.7827 180.139 96.292C179.68 94.7727 179.451 93.0957 179.451 91.261C179.451 89.4263 179.68 87.7637 180.139 86.273C180.597 84.7823 181.257 83.5067 182.117 82.446C182.977 81.3853 183.994 80.5683 185.17 79.995C186.374 79.4217 187.707 79.135 189.169 79.135C190.889 79.135 192.451 79.4217 193.856 79.995C195.26 80.5397 196.464 81.328 197.468 82.36L201.381 79.565H205.251V104.978ZM188.051 91.261C188.051 92.4077 188.151 93.4683 188.352 94.443C188.552 95.389 188.825 96.2203 189.169 96.937C189.541 97.625 189.971 98.1697 190.459 98.571C190.946 98.9437 191.476 99.13 192.05 99.13C192.68 99.13 193.297 98.9293 193.899 98.528C194.501 98.098 195.031 97.5533 195.49 96.894C195.977 96.206 196.364 95.432 196.651 94.572C196.937 93.712 197.081 92.8233 197.081 91.906V90.659C197.081 89.7417 196.937 88.853 196.651 87.993C196.364 87.133 195.977 86.3733 195.49 85.714C195.031 85.026 194.501 84.4813 193.899 84.08C193.297 83.65 192.68 83.435 192.05 83.435C191.476 83.435 190.946 83.6357 190.459 84.037C189.971 84.4097 189.541 84.9543 189.169 85.671C188.825 86.359 188.552 87.1903 188.352 88.165C188.151 89.111 188.051 90.143 188.051 91.261ZM218.867 115.04C217.921 115.04 216.932 114.968 215.9 114.825C214.896 114.71 213.893 114.538 212.89 114.309C211.886 114.08 210.912 113.793 209.966 113.449C209.048 113.105 208.188 112.718 207.386 112.288L209.106 104.118H209.579C209.894 105.064 210.338 105.938 210.912 106.741C211.514 107.544 212.187 108.246 212.933 108.848C213.678 109.45 214.481 109.909 215.341 110.224C216.201 110.568 217.061 110.74 217.921 110.74C221.16 110.74 222.78 108.189 222.78 103.086V101.022C221.776 101.767 220.673 102.355 219.469 102.785C218.293 103.215 217.032 103.43 215.685 103.43C214.452 103.43 213.334 103.258 212.331 102.914C211.327 102.541 210.467 102.04 209.751 101.409C209.034 100.75 208.475 99.9613 208.074 99.044C207.672 98.1267 207.472 97.109 207.472 95.991V79.565H215.642V94.056C215.642 95.518 215.842 96.6647 216.244 97.496C216.674 98.2987 217.39 98.7 218.394 98.7C219.655 98.7 220.701 98.0693 221.533 96.808C222.364 95.5467 222.78 93.6977 222.78 91.261V79.565H230.95V104.978C230.95 111.686 226.922 115.04 218.867 115.04ZM244.255 69.675H257.37C259.72 69.675 261.885 70.0907 263.863 70.922C265.841 71.7247 267.532 72.8713 268.937 74.362C270.37 75.824 271.488 77.5727 272.291 79.608C273.093 81.6433 273.495 83.8793 273.495 86.316C273.495 88.7527 273.093 90.9887 272.291 93.024C271.488 95.0593 270.37 96.8223 268.937 98.313C267.532 99.775 265.841 100.922 263.863 101.753C261.885 102.584 259.72 103 257.37 103H244.255V69.675ZM255.693 98.27C258.473 98.27 260.623 97.2237 262.143 95.131C263.691 93.0383 264.465 90.1 264.465 86.316C264.465 82.532 263.691 79.608 262.143 77.544C260.595 75.4513 258.43 74.405 255.65 74.405H252.855V98.27H255.693ZM275.203 79.565H279.073L282.298 81.586C283.674 79.952 285.423 79.135 287.544 79.135C288.175 79.135 288.82 79.221 289.479 79.393C290.167 79.5363 290.927 79.7943 291.758 80.167L289.608 88.767H289.178C288.949 87.735 288.719 86.875 288.49 86.187C288.289 85.499 288.074 84.9543 287.845 84.553C287.644 84.1517 287.415 83.865 287.157 83.693C286.899 83.521 286.612 83.435 286.297 83.435C284.348 83.435 283.373 86.0293 283.373 91.218V103H275.203V79.565ZM293.265 79.565H301.435V103H293.265V79.565ZM293.05 73.545C293.05 72.341 293.465 71.3233 294.297 70.492C295.128 69.6607 296.146 69.245 297.35 69.245C298.554 69.245 299.571 69.6607 300.403 70.492C301.234 71.3233 301.65 72.341 301.65 73.545C301.65 74.749 301.234 75.7667 300.403 76.598C299.571 77.4293 298.554 77.845 297.35 77.845C296.146 77.845 295.128 77.4293 294.297 76.598C293.465 75.7667 293.05 74.749 293.05 73.545ZM319.108 88.509C319.108 87.047 318.893 85.9147 318.463 85.112C318.061 84.2807 317.359 83.865 316.356 83.865C315.094 83.865 314.048 84.4957 313.217 85.757C312.385 87.0183 311.97 88.8673 311.97 91.304V103H303.8V79.565H307.67L311.454 81.93C312.486 81.0413 313.647 80.3533 314.937 79.866C316.227 79.3787 317.603 79.135 319.065 79.135C320.297 79.135 321.415 79.3213 322.419 79.694C323.422 80.038 324.282 80.5397 324.999 81.199C325.715 81.8297 326.274 82.6037 326.676 83.521C327.077 84.4383 327.278 85.456 327.278 86.574V103H319.108V88.509ZM339.826 90.745C339.081 91.2037 338.479 91.691 338.02 92.207C337.59 92.6943 337.375 93.2247 337.375 93.798V103H329.205V69.675L336.945 67.74H337.375V84.08C338.063 83.392 338.823 82.7613 339.654 82.188C340.485 81.586 341.345 81.0557 342.234 80.597C343.151 80.1383 344.054 79.78 344.943 79.522C345.86 79.264 346.749 79.135 347.609 79.135C348.87 79.135 349.888 79.4217 350.662 79.995C351.465 80.5397 351.866 81.2707 351.866 82.188C351.866 82.7327 351.723 83.2487 351.436 83.736C351.149 84.1947 350.762 84.639 350.275 85.069C349.788 85.499 349.214 85.9147 348.555 86.316C347.924 86.6887 347.236 87.0613 346.491 87.434L353.629 103H344.599L339.826 90.745ZM337.375 89.326C338.063 88.982 338.751 88.6523 339.439 88.337C340.127 87.993 340.758 87.649 341.331 87.305C341.904 86.961 342.363 86.5883 342.707 86.187C343.08 85.7857 343.266 85.327 343.266 84.811C343.266 84.4097 343.151 84.08 342.922 83.822C342.693 83.564 342.392 83.435 342.019 83.435C341.589 83.435 341.102 83.6357 340.557 84.037C340.041 84.4097 339.539 84.897 339.052 85.499C338.593 86.0723 338.192 86.6887 337.848 87.348C337.533 88.0073 337.375 88.6093 337.375 89.154V89.326Z" fill="#558E62"/>
<path d="M66.2595 146.1H71.2065C74.1645 146.1 75.3375 147.341 75.3375 149.415C75.3375 150.503 74.9295 151.234 74.2155 151.727C73.5015 152.203 72.4135 152.203 71.3765 152.135V152.526C72.5495 152.458 73.3315 152.424 74.0625 153.07C74.4535 153.427 74.6745 153.92 74.8785 154.532C75.2525 155.705 75.3885 156.759 76.0685 158H74.4875C73.9775 157.048 73.8925 156.198 73.5185 155.042C73.0595 153.648 72.7365 153.138 70.9005 153.138H67.7555V158H66.2595V146.1ZM67.7555 151.846H71.0535C73.2125 151.846 73.8415 151.013 73.8415 149.619C73.8415 148.225 73.1445 147.392 71.0535 147.392H67.7555V151.846ZM81.8016 148.395C84.6066 148.395 85.9326 150.231 85.8306 153.41H78.8096C78.8266 155.773 79.9826 157.082 81.9206 157.082C83.7226 157.082 84.5216 156.062 84.7936 154.294L86.1366 154.481C85.7456 156.963 84.3346 158.255 81.8696 158.255C79.0646 158.255 77.4156 156.47 77.4156 153.325C77.4156 150.18 79.0986 148.395 81.8016 148.395ZM78.8946 152.441H84.4536C84.4026 150.758 83.6716 149.568 81.8016 149.568C80.1696 149.568 79.1156 150.588 78.8946 152.441ZM91.5545 148.395C93.9175 148.395 94.9035 150.282 95.1075 152.356L95.4815 152.271C95.1075 151.115 94.8525 149.959 94.8525 148.65V145.25H96.3145V153.971C96.3145 156.011 96.3995 157.116 96.6035 158H95.1585C95.1245 157.66 95.0735 157.252 95.0735 156.742C95.0565 155.722 95.2265 155.076 95.4815 154.362L95.1075 154.294C94.9035 156.368 93.9175 158.255 91.5545 158.255C89.2255 158.255 87.5425 156.47 87.5425 153.325C87.5425 150.18 89.2255 148.395 91.5545 148.395ZM94.8695 153.325C94.8695 150.962 93.6965 149.636 91.9285 149.636C90.1605 149.636 89.0045 150.962 89.0045 153.325C89.0045 155.688 90.1605 157.014 91.9285 157.014C93.6965 157.014 94.8695 155.688 94.8695 153.325ZM104.144 146.1H108.853C111.743 146.1 112.814 147.086 112.814 149.109C112.814 150.078 112.525 150.673 111.964 151.098C111.284 151.625 110.145 151.574 109.278 151.506V151.897C109.652 151.863 110.077 151.812 110.502 151.812C112.389 151.812 113.494 152.628 113.494 154.668C113.494 156.895 112.185 158 109.193 158H104.144V146.1ZM105.572 151.268H108.683C110.791 151.268 111.301 150.537 111.301 149.313C111.301 148.072 110.791 147.341 108.683 147.341H105.572V151.268ZM105.572 156.759H109.023C111.114 156.759 111.981 155.96 111.981 154.617C111.981 153.274 111.114 152.475 109.023 152.475H105.572V156.759ZM122.294 148.65H123.756V154.124C123.756 156.147 123.824 157.133 124.011 158H122.6C122.566 157.745 122.549 157.337 122.549 156.895C122.549 156.096 122.685 155.535 122.94 154.838L122.566 154.77C122.413 156.827 121.444 158.255 119.166 158.255C116.973 158.255 115.579 156.776 115.579 154.396V148.65H117.058L117.041 154.26C117.041 156.113 117.891 157.014 119.591 157.014C121.274 157.014 122.209 156.113 122.294 154.073V148.65ZM126.79 145.25H128.235L128.133 154.192C128.116 155.552 128.15 156.657 128.371 158H126.926C126.722 156.81 126.671 155.756 126.688 154.43L126.79 145.25ZM131.123 145.25H132.568L132.466 154.192C132.449 155.552 132.483 156.657 132.704 158H131.259C131.055 156.81 131.004 155.756 131.021 154.43L131.123 145.25ZM66.2595 186.1H71.2065C74.1645 186.1 75.3375 187.341 75.3375 189.415C75.3375 190.503 74.9295 191.234 74.2155 191.727C73.5015 192.203 72.4135 192.203 71.3765 192.135V192.526C72.5495 192.458 73.3315 192.424 74.0625 193.07C74.4535 193.427 74.6745 193.92 74.8785 194.532C75.2525 195.705 75.3885 196.759 76.0685 198H74.4875C73.9775 197.048 73.8925 196.198 73.5185 195.042C73.0595 193.648 72.7365 193.138 70.9005 193.138H67.7555V198H66.2595V186.1ZM67.7555 191.846H71.0535C73.2125 191.846 73.8415 191.013 73.8415 189.619C73.8415 188.225 73.1445 187.392 71.0535 187.392H67.7555V191.846ZM81.8016 188.395C84.6066 188.395 85.9326 190.231 85.8306 193.41H78.8096C78.8266 195.773 79.9826 197.082 81.9206 197.082C83.7226 197.082 84.5216 196.062 84.7936 194.294L86.1366 194.481C85.7456 196.963 84.3346 198.255 81.8696 198.255C79.0646 198.255 77.4156 196.47 77.4156 193.325C77.4156 190.18 79.0986 188.395 81.8016 188.395ZM78.8946 192.441H84.4536C84.4026 190.758 83.6716 189.568 81.8016 189.568C80.1696 189.568 79.1156 190.588 78.8946 192.441ZM91.5545 188.395C93.9175 188.395 94.9035 190.282 95.1075 192.356L95.4815 192.271C95.1075 191.115 94.8525 189.959 94.8525 188.65V185.25H96.3145V193.971C96.3145 196.011 96.3995 197.116 96.6035 198H95.1585C95.1245 197.66 95.0735 197.252 95.0735 196.742C95.0565 195.722 95.2265 195.076 95.4815 194.362L95.1075 194.294C94.9035 196.368 93.9175 198.255 91.5545 198.255C89.2255 198.255 87.5425 196.47 87.5425 193.325C87.5425 190.18 89.2255 188.395 91.5545 188.395ZM94.8695 193.325C94.8695 190.962 93.6965 189.636 91.9285 189.636C90.1605 189.636 89.0045 190.962 89.0045 193.325C89.0045 195.688 90.1605 197.014 91.9285 197.014C93.6965 197.014 94.8695 195.688 94.8695 193.325ZM104.144 186.1H108.853C111.743 186.1 112.814 187.086 112.814 189.109C112.814 190.078 112.525 190.673 111.964 191.098C111.284 191.625 110.145 191.574 109.278 191.506V191.897C109.652 191.863 110.077 191.812 110.502 191.812C112.389 191.812 113.494 192.628 113.494 194.668C113.494 196.895 112.185 198 109.193 198H104.144V186.1ZM105.572 191.268H108.683C110.791 191.268 111.301 190.537 111.301 189.313C111.301 188.072 110.791 187.341 108.683 187.341H105.572V191.268ZM105.572 196.759H109.023C111.114 196.759 111.981 195.96 111.981 194.617C111.981 193.274 111.114 192.475 109.023 192.475H105.572V196.759ZM122.294 188.65H123.756V194.124C123.756 196.147 123.824 197.133 124.011 198H122.6C122.566 197.745 122.549 197.337 122.549 196.895C122.549 196.096 122.685 195.535 122.94 194.838L122.566 194.77C122.413 196.827 121.444 198.255 119.166 198.255C116.973 198.255 115.579 196.776 115.579 194.396V188.65H117.058L117.041 194.26C117.041 196.113 117.891 197.014 119.591 197.014C121.274 197.014 122.209 196.113 122.294 194.073V188.65ZM126.79 185.25H128.235L128.133 194.192C128.116 195.552 128.15 196.657 128.371 198H126.926C126.722 196.81 126.671 195.756 126.688 194.43L126.79 185.25ZM131.123 185.25H132.568L132.466 194.192C132.449 195.552 132.483 196.657 132.704 198H131.259C131.055 196.81 131.004 195.756 131.021 194.43L131.123 185.25ZM140.236 186.1H142.344L145.778 193.257C146.373 194.566 146.39 194.991 146.305 196.113H146.662C146.56 194.991 146.628 194.566 147.206 193.257L150.623 186.1H152.748V198H151.252V189.534C151.252 188.514 151.32 187.987 151.609 187.137L151.235 187.052C151.133 187.936 150.98 188.514 150.606 189.381L147.937 194.753C147.359 196.011 147.24 196.589 147.223 198H145.744C145.744 196.589 145.625 196.011 145.03 194.753L142.378 189.381C142.004 188.514 141.851 187.936 141.749 187.052L141.392 187.137C141.664 187.987 141.732 188.514 141.732 189.534V198H140.236V186.1ZM154.928 193.325C154.928 190.18 156.747 188.395 159.433 188.395C162.119 188.395 163.955 190.18 163.955 193.325C163.955 196.47 162.119 198.255 159.433 198.255C156.747 198.255 154.928 196.47 154.928 193.325ZM156.39 193.325C156.39 195.688 157.597 197.014 159.433 197.014C161.269 197.014 162.493 195.688 162.493 193.325C162.493 190.962 161.269 189.636 159.433 189.636C157.597 189.636 156.39 190.962 156.39 193.325ZM169.704 188.395C171.812 188.395 173.189 189.449 173.699 191.54L172.288 191.727C171.965 190.537 171.268 189.636 169.738 189.636C167.783 189.636 166.865 191.132 166.865 193.325C166.865 195.501 167.817 197.014 169.891 197.014C171.676 197.014 172.475 196.028 172.73 194.294L174.141 194.481C173.75 196.963 172.339 198.255 169.857 198.255C167.069 198.255 165.42 196.419 165.42 193.325C165.42 190.231 167.035 188.395 169.704 188.395ZM182.399 188.65H184.014L181.821 191.812C180.954 193.07 180.223 193.07 179.016 193.036V193.41C179.356 193.376 179.679 193.342 179.968 193.342C180.427 193.342 180.818 193.41 181.141 193.665C181.498 193.903 181.753 194.192 182.042 194.651C182.824 195.96 183.198 196.827 184.218 198H182.535C181.804 197.133 181.447 196.249 180.835 195.11C180.291 194.141 179.934 193.954 178.591 193.954H177.588V198H176.143V185.25H177.588V192.696H178.387C179.475 192.696 179.815 192.441 180.359 191.659L182.399 188.65ZM187.08 186.1H188.491C188.491 187.154 188.321 187.749 187.862 188.225C187.539 188.565 187.233 188.684 186.468 188.854L186.587 189.211C187.369 188.837 187.913 188.65 189.205 188.65H191.585V189.891H188.1V195.178C188.1 196.521 188.661 196.98 189.545 196.98C190.344 196.98 190.973 196.657 191.5 196.181L191.772 197.422C191.245 197.83 190.446 198.255 189.341 198.255C187.794 198.255 186.655 197.49 186.655 195.416V189.891H184.666V188.65H185.363C186.706 188.65 187.165 187.749 187.08 186.1ZM197.444 188.395C199.62 188.395 200.963 189.466 200.963 191.54V194.124C200.963 196.147 201.031 197.133 201.218 198H199.841C199.807 197.728 199.773 197.32 199.756 196.878C199.756 195.977 199.909 195.399 200.147 194.719L199.756 194.651C199.654 196.878 198.838 198.255 196.339 198.255C194.435 198.255 193.228 197.201 193.228 195.756C193.228 194.141 194.265 193.223 196.815 192.815L199.586 192.39V191.71C199.586 190.299 198.906 189.585 197.427 189.585C195.897 189.585 195.217 190.401 195.013 191.404L193.653 191.2C194.078 189.381 195.387 188.395 197.444 188.395ZM197.019 193.801C195.37 194.056 194.69 194.634 194.69 195.603C194.69 196.436 195.319 197.048 196.645 197.048C198.821 197.048 199.382 195.909 199.586 194.175V193.41L197.019 193.801ZM203.563 186.576C203.563 186.015 203.937 185.692 204.532 185.692C205.11 185.692 205.484 186.015 205.484 186.576C205.484 187.137 205.11 187.46 204.532 187.46C203.937 187.46 203.563 187.137 203.563 186.576ZM205.246 188.65V198H203.801V188.65H205.246ZM208.104 185.25H209.549L209.447 194.192C209.43 195.552 209.464 196.657 209.685 198H208.24C208.036 196.81 207.985 195.756 208.002 194.43L208.104 185.25ZM66.2595 226.1H71.2065C74.1645 226.1 75.3375 227.341 75.3375 229.415C75.3375 230.503 74.9295 231.234 74.2155 231.727C73.5015 232.203 72.4135 232.203 71.3765 232.135V232.526C72.5495 232.458 73.3315 232.424 74.0625 233.07C74.4535 233.427 74.6745 233.92 74.8785 234.532C75.2525 235.705 75.3885 236.759 76.0685 238H74.4875C73.9775 237.048 73.8925 236.198 73.5185 235.042C73.0595 233.648 72.7365 233.138 70.9005 233.138H67.7555V238H66.2595V226.1ZM67.7555 231.846H71.0535C73.2125 231.846 73.8415 231.013 73.8415 229.619C73.8415 228.225 73.1445 227.392 71.0535 227.392H67.7555V231.846ZM81.8016 228.395C84.6066 228.395 85.9326 230.231 85.8306 233.41H78.8096C78.8266 235.773 79.9826 237.082 81.9206 237.082C83.7226 237.082 84.5216 236.062 84.7936 234.294L86.1366 234.481C85.7456 236.963 84.3346 238.255 81.8696 238.255C79.0646 238.255 77.4156 236.47 77.4156 233.325C77.4156 230.18 79.0986 228.395 81.8016 228.395ZM78.8946 232.441H84.4536C84.4026 230.758 83.6716 229.568 81.8016 229.568C80.1696 229.568 79.1156 230.588 78.8946 232.441ZM91.5545 228.395C93.9175 228.395 94.9035 230.282 95.1075 232.356L95.4815 232.271C95.1075 231.115 94.8525 229.959 94.8525 228.65V225.25H96.3145V233.971C96.3145 236.011 96.3995 237.116 96.6035 238H95.1585C95.1245 237.66 95.0735 237.252 95.0735 236.742C95.0565 235.722 95.2265 235.076 95.4815 234.362L95.1075 234.294C94.9035 236.368 93.9175 238.255 91.5545 238.255C89.2255 238.255 87.5425 236.47 87.5425 233.325C87.5425 230.18 89.2255 228.395 91.5545 228.395ZM94.8695 233.325C94.8695 230.962 93.6965 229.636 91.9285 229.636C90.1605 229.636 89.0045 230.962 89.0045 233.325C89.0045 235.688 90.1605 237.014 91.9285 237.014C93.6965 237.014 94.8695 235.688 94.8695 233.325ZM104.144 226.1H108.853C111.743 226.1 112.814 227.086 112.814 229.109C112.814 230.078 112.525 230.673 111.964 231.098C111.284 231.625 110.145 231.574 109.278 231.506V231.897C109.652 231.863 110.077 231.812 110.502 231.812C112.389 231.812 113.494 232.628 113.494 234.668C113.494 236.895 112.185 238 109.193 238H104.144V226.1ZM105.572 231.268H108.683C110.791 231.268 111.301 230.537 111.301 229.313C111.301 228.072 110.791 227.341 108.683 227.341H105.572V231.268ZM105.572 236.759H109.023C111.114 236.759 111.981 235.96 111.981 234.617C111.981 233.274 111.114 232.475 109.023 232.475H105.572V236.759ZM122.294 228.65H123.756V234.124C123.756 236.147 123.824 237.133 124.011 238H122.6C122.566 237.745 122.549 237.337 122.549 236.895C122.549 236.096 122.685 235.535 122.94 234.838L122.566 234.77C122.413 236.827 121.444 238.255 119.166 238.255C116.973 238.255 115.579 236.776 115.579 234.396V228.65H117.058L117.041 234.26C117.041 236.113 117.891 237.014 119.591 237.014C121.274 237.014 122.209 236.113 122.294 234.073V228.65ZM126.79 225.25H128.235L128.133 234.192C128.116 235.552 128.15 236.657 128.371 238H126.926C126.722 236.81 126.671 235.756 126.688 234.43L126.79 225.25ZM131.123 225.25H132.568L132.466 234.192C132.449 235.552 132.483 236.657 132.704 238H131.259C131.055 236.81 131.004 235.756 131.021 234.43L131.123 225.25ZM140.236 226.1H142.344L145.778 233.257C146.373 234.566 146.39 234.991 146.305 236.113H146.662C146.56 234.991 146.628 234.566 147.206 233.257L150.623 226.1H152.748V238H151.252V229.534C151.252 228.514 151.32 227.987 151.609 227.137L151.235 227.052C151.133 227.936 150.98 228.514 150.606 229.381L147.937 234.753C147.359 236.011 147.24 236.589 147.223 238H145.744C145.744 236.589 145.625 236.011 145.03 234.753L142.378 229.381C142.004 228.514 141.851 227.936 141.749 227.052L141.392 227.137C141.664 227.987 141.732 228.514 141.732 229.534V238H140.236V226.1ZM154.928 233.325C154.928 230.18 156.747 228.395 159.433 228.395C162.119 228.395 163.955 230.18 163.955 233.325C163.955 236.47 162.119 238.255 159.433 238.255C156.747 238.255 154.928 236.47 154.928 233.325ZM156.39 233.325C156.39 235.688 157.597 237.014 159.433 237.014C161.269 237.014 162.493 235.688 162.493 233.325C162.493 230.962 161.269 229.636 159.433 229.636C157.597 229.636 156.39 230.962 156.39 233.325ZM165.794 226.491C165.794 225.896 166.185 225.573 166.814 225.573C167.443 225.573 167.834 225.896 167.834 226.491C167.834 227.086 167.443 227.409 166.814 227.409C166.185 227.409 165.794 227.086 165.794 226.491ZM167.528 228.65V236.64C167.511 239.258 166.848 240.312 164.57 241.315L164.264 240.074C165.675 239.292 166.066 238.782 166.083 236.419V228.65H167.528ZM170.028 226.576C170.028 226.015 170.402 225.692 170.997 225.692C171.575 225.692 171.949 226.015 171.949 226.576C171.949 227.137 171.575 227.46 170.997 227.46C170.402 227.46 170.028 227.137 170.028 226.576ZM171.711 228.65V238H170.266V228.65H171.711ZM175.725 226.1H177.136C177.136 227.154 176.966 227.749 176.507 228.225C176.184 228.565 175.878 228.684 175.113 228.854L175.232 229.211C176.014 228.837 176.558 228.65 177.85 228.65H180.23V229.891H176.745V235.178C176.745 236.521 177.306 236.98 178.19 236.98C178.989 236.98 179.618 236.657 180.145 236.181L180.417 237.422C179.89 237.83 179.091 238.255 177.986 238.255C176.439 238.255 175.3 237.49 175.3 235.416V229.891H173.311V228.65H174.008C175.351 228.65 175.81 227.749 175.725 226.1ZM181.839 233.325C181.839 230.18 183.658 228.395 186.344 228.395C189.03 228.395 190.866 230.18 190.866 233.325C190.866 236.47 189.03 238.255 186.344 238.255C183.658 238.255 181.839 236.47 181.839 233.325ZM183.301 233.325C183.301 235.688 184.508 237.014 186.344 237.014C188.18 237.014 189.404 235.688 189.404 233.325C189.404 230.962 188.18 229.636 186.344 229.636C184.508 229.636 183.301 230.962 183.301 233.325Z" fill="#558E62"/>
<path d="M332.044 152.88C334.016 152.88 335.24 153.696 335.24 155.838C335.24 158.065 333.642 159.289 330.837 159.289C328.117 159.289 326.128 157.997 325.907 155.413L327.879 155.175C328.032 156.96 329.001 157.708 330.854 157.708C332.452 157.708 333.302 156.994 333.302 155.685C333.302 154.376 332.605 153.645 330.225 153.645H328.661V152.115H330.225C332.112 152.115 332.792 151.435 332.792 150.296C332.792 149.072 332.112 148.46 330.735 148.46C329.273 148.46 328.559 149.089 328.372 150.483L326.417 150.262C326.689 148.069 328.372 146.879 330.735 146.879C333.268 146.879 334.73 148.001 334.73 149.99C334.73 150.976 334.424 151.554 333.88 151.996C333.183 152.574 331.959 152.574 330.922 152.506L330.905 152.931C331.296 152.897 331.67 152.88 332.044 152.88ZM338.775 157.317L337.891 161.567H336.582L336.99 157.317H338.775ZM340.053 153.05C340.053 149.157 341.991 146.845 345.323 146.845C348.638 146.845 350.576 149.157 350.576 153.05C350.576 156.943 348.638 159.255 345.323 159.255C341.991 159.255 340.053 156.943 340.053 153.05ZM342.025 153.05C342.025 155.889 343.249 157.572 345.323 157.572C347.397 157.572 348.604 155.889 348.604 153.05C348.604 150.211 347.397 148.528 345.323 148.528C343.249 148.528 342.025 150.211 342.025 153.05ZM351.923 153.05C351.923 149.157 353.861 146.845 357.193 146.845C360.508 146.845 362.446 149.157 362.446 153.05C362.446 156.943 360.508 159.255 357.193 159.255C353.861 159.255 351.923 156.943 351.923 153.05ZM353.895 153.05C353.895 155.889 355.119 157.572 357.193 157.572C359.267 157.572 360.474 155.889 360.474 153.05C360.474 150.211 359.267 148.528 357.193 148.528C355.119 148.528 353.895 150.211 353.895 153.05ZM363.793 153.05C363.793 149.157 365.731 146.845 369.063 146.845C372.378 146.845 374.316 149.157 374.316 153.05C374.316 156.943 372.378 159.255 369.063 159.255C365.731 159.255 363.793 156.943 363.793 153.05ZM365.765 153.05C365.765 155.889 366.989 157.572 369.063 157.572C371.137 157.572 372.344 155.889 372.344 153.05C372.344 150.211 371.137 148.528 369.063 148.528C366.989 148.528 365.765 150.211 365.765 153.05ZM328.589 193.237C328.98 191.469 329.847 190.789 331.632 190.789C333.876 190.789 335.321 192.438 335.321 194.954C335.321 197.742 333.689 199.289 330.935 199.289C328.181 199.289 326.498 197.793 326.158 195.413L328.113 195.175C328.402 196.892 329.269 197.691 330.952 197.691C332.516 197.691 333.383 196.688 333.383 194.954C333.383 193.305 332.516 192.217 330.969 192.217C329.66 192.217 328.997 192.88 328.708 193.917H326.804L327.144 187.1H334.811V188.766H328.963L328.861 190.789C328.827 191.605 328.606 192.302 328.198 193.118L328.589 193.237ZM338.775 197.317L337.891 201.567H336.582L336.99 197.317H338.775ZM340.053 193.05C340.053 189.157 341.991 186.845 345.323 186.845C348.638 186.845 350.576 189.157 350.576 193.05C350.576 196.943 348.638 199.255 345.323 199.255C341.991 199.255 340.053 196.943 340.053 193.05ZM342.025 193.05C342.025 195.889 343.249 197.572 345.323 197.572C347.397 197.572 348.604 195.889 348.604 193.05C348.604 190.211 347.397 188.528 345.323 188.528C343.249 188.528 342.025 190.211 342.025 193.05ZM351.923 193.05C351.923 189.157 353.861 186.845 357.193 186.845C360.508 186.845 362.446 189.157 362.446 193.05C362.446 196.943 360.508 199.255 357.193 199.255C353.861 199.255 351.923 196.943 351.923 193.05ZM353.895 193.05C353.895 195.889 355.119 197.572 357.193 197.572C359.267 197.572 360.474 195.889 360.474 193.05C360.474 190.211 359.267 188.528 357.193 188.528C355.119 188.528 353.895 190.211 353.895 193.05ZM363.793 193.05C363.793 189.157 365.731 186.845 369.063 186.845C372.378 186.845 374.316 189.157 374.316 193.05C374.316 196.943 372.378 199.255 369.063 199.255C365.731 199.255 363.793 196.943 363.793 193.05ZM365.765 193.05C365.765 195.889 366.989 197.572 369.063 197.572C371.137 197.572 372.344 195.889 372.344 193.05C372.344 190.211 371.137 188.528 369.063 188.528C366.989 188.528 365.765 190.211 365.765 193.05ZM328.589 233.237C328.98 231.469 329.847 230.789 331.632 230.789C333.876 230.789 335.321 232.438 335.321 234.954C335.321 237.742 333.689 239.289 330.935 239.289C328.181 239.289 326.498 237.793 326.158 235.413L328.113 235.175C328.402 236.892 329.269 237.691 330.952 237.691C332.516 237.691 333.383 236.688 333.383 234.954C333.383 233.305 332.516 232.217 330.969 232.217C329.66 232.217 328.997 232.88 328.708 233.917H326.804L327.144 227.1H334.811V228.766H328.963L328.861 230.789C328.827 231.605 328.606 232.302 328.198 233.118L328.589 233.237ZM338.775 237.317L337.891 241.567H336.582L336.99 237.317H338.775ZM340.053 233.05C340.053 229.157 341.991 226.845 345.323 226.845C348.638 226.845 350.576 229.157 350.576 233.05C350.576 236.943 348.638 239.255 345.323 239.255C341.991 239.255 340.053 236.943 340.053 233.05ZM342.025 233.05C342.025 235.889 343.249 237.572 345.323 237.572C347.397 237.572 348.604 235.889 348.604 233.05C348.604 230.211 347.397 228.528 345.323 228.528C343.249 228.528 342.025 230.211 342.025 233.05ZM351.923 233.05C351.923 229.157 353.861 226.845 357.193 226.845C360.508 226.845 362.446 229.157 362.446 233.05C362.446 236.943 360.508 239.255 357.193 239.255C353.861 239.255 351.923 236.943 351.923 233.05ZM353.895 233.05C353.895 235.889 355.119 237.572 357.193 237.572C359.267 237.572 360.474 235.889 360.474 233.05C360.474 230.211 359.267 228.528 357.193 228.528C355.119 228.528 353.895 230.211 353.895 233.05ZM363.793 233.05C363.793 229.157 365.731 226.845 369.063 226.845C372.378 226.845 374.316 229.157 374.316 233.05C374.316 236.943 372.378 239.255 369.063 239.255C365.731 239.255 363.793 236.943 363.793 233.05ZM365.765 233.05C365.765 235.889 366.989 237.572 369.063 237.572C371.137 237.572 372.344 235.889 372.344 233.05C372.344 230.211 371.137 228.528 369.063 228.528C366.989 228.528 365.765 230.211 365.765 233.05Z" fill="#558E62"/>
</g>
<defs>
<clipPath id="clip0_228_353">
<rect width="440" height="291" fill="white"/>
</clipPath>
</defs>
</svg>
