<svg width="440" height="370" viewBox="0 0 440 370" fill="none" xmlns="http://www.w3.org/2000/svg">
<g clip-path="url(#clip0_234_594)">
<rect width="440" height="370" fill="white"/>
<path d="M-30 -11H470V5980H-30V-11Z" fill="#FFFDCA" fill-opacity="0.64"/>
<rect x="-29" y="-22" width="487" height="5977" fill="#F2E8DE" fill-opacity="0.61"/>
<path d="M171.479 122.569C174.948 121.279 176.682 117.939 176.682 112.55V85.675H185.282V112.636C185.282 114.213 184.981 115.718 184.379 117.151C183.806 118.556 182.974 119.817 181.885 120.935C180.824 122.082 179.549 123.042 178.058 123.816C176.567 124.59 174.919 125.135 173.113 125.45L171.479 122.569ZM203.367 116.506C202.335 117.423 201.16 118.14 199.841 118.656C198.523 119.172 197.118 119.43 195.627 119.43C194.395 119.43 193.277 119.258 192.273 118.914C191.27 118.541 190.41 118.04 189.693 117.409C188.977 116.75 188.418 115.961 188.016 115.044C187.615 114.127 187.414 113.109 187.414 111.991V95.565H195.584V110.056C195.584 111.518 195.785 112.665 196.186 113.496C196.616 114.299 197.333 114.7 198.336 114.7C199.598 114.7 200.644 114.069 201.475 112.808C202.307 111.547 202.722 109.698 202.722 107.261V95.565H210.892V119H207.022L203.367 116.506ZM213.245 95.565H221.415V119H213.245V95.565ZM213.03 89.545C213.03 88.341 213.445 87.3233 214.277 86.492C215.108 85.6607 216.126 85.245 217.33 85.245C218.534 85.245 219.551 85.6607 220.383 86.492C221.214 87.3233 221.63 88.341 221.63 89.545C221.63 90.749 221.214 91.7667 220.383 92.598C219.551 93.4293 218.534 93.845 217.33 93.845C216.126 93.845 215.108 93.4293 214.277 92.598C213.445 91.7667 213.03 90.749 213.03 89.545ZM245.634 112.421C244.774 114.628 243.426 116.348 241.592 117.581C239.757 118.814 237.578 119.43 235.056 119.43C233.307 119.43 231.687 119.129 230.197 118.527C228.706 117.925 227.416 117.094 226.327 116.033C225.266 114.944 224.435 113.654 223.833 112.163C223.231 110.644 222.93 108.981 222.93 107.175C222.93 105.369 223.231 103.735 223.833 102.273C224.435 100.782 225.28 99.521 226.37 98.489C227.459 97.4283 228.763 96.6113 230.283 96.038C231.831 95.436 233.551 95.135 235.443 95.135C236.991 95.135 238.582 95.3357 240.216 95.737C241.878 96.1383 243.555 96.7117 245.247 97.457L243.527 106.057H243.097C242.638 105.254 242.007 104.466 241.205 103.692C240.402 102.889 239.542 102.173 238.625 101.542C237.736 100.911 236.833 100.41 235.916 100.037C234.998 99.6357 234.196 99.435 233.508 99.435C232.59 99.435 231.888 99.7933 231.401 100.51C230.913 101.227 230.67 102.259 230.67 103.606C230.67 105.011 230.928 106.401 231.444 107.777C231.96 109.153 232.633 110.386 233.465 111.475C234.296 112.564 235.228 113.453 236.26 114.141C237.292 114.8 238.338 115.13 239.399 115.13C241.147 115.13 242.509 114.227 243.484 112.421H245.634ZM268.981 112.421C268.093 114.657 266.731 116.391 264.896 117.624C263.062 118.828 260.883 119.43 258.36 119.43C256.612 119.43 254.992 119.129 253.501 118.527C252.039 117.925 250.764 117.094 249.674 116.033C248.614 114.972 247.782 113.711 247.18 112.249C246.578 110.758 246.277 109.139 246.277 107.39C246.277 103.52 247.281 100.51 249.287 98.36C251.323 96.21 254.175 95.135 257.844 95.135C261.428 95.135 264.194 96.167 266.143 98.231C268.121 100.295 269.11 103.205 269.11 106.96L268.895 107.347L256.339 110.873C257.171 112.134 258.145 113.166 259.263 113.969C260.41 114.743 261.571 115.13 262.746 115.13C264.495 115.13 265.857 114.227 266.831 112.421H268.981ZM261.37 105.842C261.313 105.068 261.127 104.308 260.811 103.563C260.496 102.789 260.095 102.101 259.607 101.499C259.149 100.868 258.633 100.367 258.059 99.994C257.515 99.6213 256.97 99.435 256.425 99.435C255.68 99.435 255.092 99.8077 254.662 100.553C254.232 101.27 254.017 102.273 254.017 103.563C254.017 105.111 254.333 106.673 254.963 108.25L261.37 105.842Z" fill="#558E62"/>
<path d="M79.6135 168.05C79.6135 164.157 81.6705 161.845 85.1725 161.845C88.6745 161.845 90.7315 164.157 90.7315 168.05C90.7315 171.943 88.6745 174.255 85.1725 174.255C81.6705 174.255 79.6135 171.943 79.6135 168.05ZM81.1095 168.05C81.1095 171.127 82.6055 172.946 85.1725 172.946C87.7395 172.946 89.2355 171.127 89.2355 168.05C89.2355 164.973 87.7395 163.137 85.1725 163.137C82.6055 163.137 81.1095 164.973 81.1095 168.05ZM92.8913 164.65H94.3533C94.3533 165.789 94.0473 166.86 93.7073 167.863L94.0813 167.931C94.2853 166.248 94.9653 164.395 96.9713 164.395C98.8073 164.395 99.8273 165.806 99.8953 168.169L98.3993 168.339C98.2633 166.35 97.6853 165.636 96.4953 165.636C95.1183 165.636 94.4213 166.877 94.3533 169.087V174H92.8913V164.65ZM105.044 164.395C107.22 164.395 108.563 165.466 108.563 167.54V170.124C108.563 172.147 108.631 173.133 108.818 174H107.441C107.407 173.728 107.373 173.32 107.356 172.878C107.356 171.977 107.509 171.399 107.747 170.719L107.356 170.651C107.254 172.878 106.438 174.255 103.939 174.255C102.035 174.255 100.828 173.201 100.828 171.756C100.828 170.141 101.865 169.223 104.415 168.815L107.186 168.39V167.71C107.186 166.299 106.506 165.585 105.027 165.585C103.497 165.585 102.817 166.401 102.613 167.404L101.253 167.2C101.678 165.381 102.987 164.395 105.044 164.395ZM104.619 169.801C102.97 170.056 102.29 170.634 102.29 171.603C102.29 172.436 102.919 173.048 104.245 173.048C106.421 173.048 106.982 171.909 107.186 170.175V169.41L104.619 169.801ZM116.043 164.395C118.219 164.395 119.613 165.891 119.613 168.322L119.63 174H118.151V168.475C118.151 166.639 117.335 165.687 115.584 165.687C113.918 165.687 112.966 166.537 112.864 168.577V174H111.402V164.65H112.864C112.864 165.789 112.558 166.843 112.218 167.846L112.592 167.931C112.864 165.925 113.748 164.395 116.043 164.395ZM125.778 164.65C128.702 164.65 129.501 164.48 130.521 164.14L130.708 165.364C130.181 165.466 129.705 165.534 129.246 165.534C128.634 165.534 128.022 165.415 127.291 165.126L127.189 165.517C128.804 165.772 129.807 166.367 129.807 167.982C129.807 169.393 128.991 170.362 127.359 171.11C126.764 171.399 125.455 171.824 124.469 171.943L124.554 172.334C125.353 172.045 126.118 171.909 127.138 171.909C129.569 171.926 130.793 172.759 130.793 174.34C130.793 176.04 129.535 177.315 126.39 177.315C123.653 177.315 121.885 176.159 121.545 174.34L122.939 174.119C123.177 175.173 124.18 176.159 126.424 176.159C128.566 176.159 129.382 175.343 129.382 174.289C129.382 173.303 128.668 172.793 126.509 172.793L122.157 172.776V171.722C123.211 171.722 123.891 171.671 125.098 171.229C125.795 170.991 126.509 170.804 127.121 170.702L127.053 170.328C126.509 170.583 125.846 170.804 124.928 170.719C122.905 170.532 121.732 169.546 121.732 167.812C121.732 165.84 123.296 164.65 125.778 164.65ZM123.194 167.897C123.194 169.223 124.146 169.971 125.778 169.971C127.342 169.971 128.379 169.223 128.379 167.897C128.379 166.554 127.342 165.806 125.778 165.806C124.214 165.806 123.194 166.554 123.194 167.897ZM136.392 164.395C139.197 164.395 140.523 166.231 140.421 169.41H133.4C133.417 171.773 134.573 173.082 136.511 173.082C138.313 173.082 139.112 172.062 139.384 170.294L140.727 170.481C140.336 172.963 138.925 174.255 136.46 174.255C133.655 174.255 132.006 172.47 132.006 169.325C132.006 166.18 133.689 164.395 136.392 164.395ZM133.485 168.441H139.044C138.993 166.758 138.262 165.568 136.392 165.568C134.76 165.568 133.706 166.588 133.485 168.441ZM79.6135 208.05C79.6135 204.157 81.6705 201.845 85.1725 201.845C88.6745 201.845 90.7315 204.157 90.7315 208.05C90.7315 211.943 88.6745 214.255 85.1725 214.255C81.6705 214.255 79.6135 211.943 79.6135 208.05ZM81.1095 208.05C81.1095 211.127 82.6055 212.946 85.1725 212.946C87.7395 212.946 89.2355 211.127 89.2355 208.05C89.2355 204.973 87.7395 203.137 85.1725 203.137C82.6055 203.137 81.1095 204.973 81.1095 208.05ZM92.8913 204.65H94.3533C94.3533 205.789 94.0473 206.86 93.7073 207.863L94.0813 207.931C94.2853 206.248 94.9653 204.395 96.9713 204.395C98.8073 204.395 99.8273 205.806 99.8953 208.169L98.3993 208.339C98.2633 206.35 97.6853 205.636 96.4953 205.636C95.1183 205.636 94.4213 206.877 94.3533 209.087V214H92.8913V204.65ZM105.044 204.395C107.22 204.395 108.563 205.466 108.563 207.54V210.124C108.563 212.147 108.631 213.133 108.818 214H107.441C107.407 213.728 107.373 213.32 107.356 212.878C107.356 211.977 107.509 211.399 107.747 210.719L107.356 210.651C107.254 212.878 106.438 214.255 103.939 214.255C102.035 214.255 100.828 213.201 100.828 211.756C100.828 210.141 101.865 209.223 104.415 208.815L107.186 208.39V207.71C107.186 206.299 106.506 205.585 105.027 205.585C103.497 205.585 102.817 206.401 102.613 207.404L101.253 207.2C101.678 205.381 102.987 204.395 105.044 204.395ZM104.619 209.801C102.97 210.056 102.29 210.634 102.29 211.603C102.29 212.436 102.919 213.048 104.245 213.048C106.421 213.048 106.982 211.909 107.186 210.175V209.41L104.619 209.801ZM116.043 204.395C118.219 204.395 119.613 205.891 119.613 208.322L119.63 214H118.151V208.475C118.151 206.639 117.335 205.687 115.584 205.687C113.918 205.687 112.966 206.537 112.864 208.577V214H111.402V204.65H112.864C112.864 205.789 112.558 206.843 112.218 207.846L112.592 207.931C112.864 205.925 113.748 204.395 116.043 204.395ZM125.778 204.65C128.702 204.65 129.501 204.48 130.521 204.14L130.708 205.364C130.181 205.466 129.705 205.534 129.246 205.534C128.634 205.534 128.022 205.415 127.291 205.126L127.189 205.517C128.804 205.772 129.807 206.367 129.807 207.982C129.807 209.393 128.991 210.362 127.359 211.11C126.764 211.399 125.455 211.824 124.469 211.943L124.554 212.334C125.353 212.045 126.118 211.909 127.138 211.909C129.569 211.926 130.793 212.759 130.793 214.34C130.793 216.04 129.535 217.315 126.39 217.315C123.653 217.315 121.885 216.159 121.545 214.34L122.939 214.119C123.177 215.173 124.18 216.159 126.424 216.159C128.566 216.159 129.382 215.343 129.382 214.289C129.382 213.303 128.668 212.793 126.509 212.793L122.157 212.776V211.722C123.211 211.722 123.891 211.671 125.098 211.229C125.795 210.991 126.509 210.804 127.121 210.702L127.053 210.328C126.509 210.583 125.846 210.804 124.928 210.719C122.905 210.532 121.732 209.546 121.732 207.812C121.732 205.84 123.296 204.65 125.778 204.65ZM123.194 207.897C123.194 209.223 124.146 209.971 125.778 209.971C127.342 209.971 128.379 209.223 128.379 207.897C128.379 206.554 127.342 205.806 125.778 205.806C124.214 205.806 123.194 206.554 123.194 207.897ZM136.392 204.395C139.197 204.395 140.523 206.231 140.421 209.41H133.4C133.417 211.773 134.573 213.082 136.511 213.082C138.313 213.082 139.112 212.062 139.384 210.294L140.727 210.481C140.336 212.963 138.925 214.255 136.46 214.255C133.655 214.255 132.006 212.47 132.006 209.325C132.006 206.18 133.689 204.395 136.392 204.395ZM133.485 208.441H139.044C138.993 206.758 138.262 205.568 136.392 205.568C134.76 205.568 133.706 206.588 133.485 208.441ZM151.147 204.395C153.323 204.395 154.666 205.466 154.666 207.54V210.124C154.666 212.147 154.734 213.133 154.921 214H153.544C153.51 213.728 153.476 213.32 153.459 212.878C153.459 211.977 153.612 211.399 153.85 210.719L153.459 210.651C153.357 212.878 152.541 214.255 150.042 214.255C148.138 214.255 146.931 213.201 146.931 211.756C146.931 210.141 147.968 209.223 150.518 208.815L153.289 208.39V207.71C153.289 206.299 152.609 205.585 151.13 205.585C149.6 205.585 148.92 206.401 148.716 207.404L147.356 207.2C147.781 205.381 149.09 204.395 151.147 204.395ZM150.722 209.801C149.073 210.056 148.393 210.634 148.393 211.603C148.393 212.436 149.022 213.048 150.348 213.048C152.524 213.048 153.085 211.909 153.289 210.175V209.41L150.722 209.801ZM162.146 204.395C164.322 204.395 165.716 205.891 165.716 208.322L165.733 214H164.254V208.475C164.254 206.639 163.438 205.687 161.687 205.687C160.021 205.687 159.069 206.537 158.967 208.577V214H157.505V204.65H158.967C158.967 205.789 158.661 206.843 158.321 207.846L158.695 207.931C158.967 205.925 159.851 204.395 162.146 204.395ZM171.745 204.395C174.108 204.395 175.094 206.282 175.298 208.356L175.672 208.271C175.298 207.115 175.043 205.959 175.043 204.65V201.25H176.505V209.971C176.505 212.011 176.59 213.116 176.794 214H175.349C175.315 213.66 175.264 213.252 175.264 212.742C175.247 211.722 175.417 211.076 175.672 210.362L175.298 210.294C175.094 212.368 174.108 214.255 171.745 214.255C169.416 214.255 167.733 212.47 167.733 209.325C167.733 206.18 169.416 204.395 171.745 204.395ZM175.06 209.325C175.06 206.962 173.887 205.636 172.119 205.636C170.351 205.636 169.195 206.962 169.195 209.325C169.195 211.688 170.351 213.014 172.119 213.014C173.887 213.014 175.06 211.688 175.06 209.325ZM183.689 208.05C183.689 204.157 185.61 201.845 188.976 201.845C191.781 201.845 193.481 203.358 193.787 205.84L192.291 206.01C191.968 204.021 190.999 203.137 188.959 203.137C186.528 203.137 185.185 204.973 185.185 208.067C185.185 211.127 186.613 212.946 189.231 212.946C191.56 212.946 192.801 211.739 192.92 209.07L194.416 209.24C194.229 212.453 192.342 214.255 189.231 214.255C185.644 214.255 183.689 211.943 183.689 208.05ZM200.072 204.395C202.248 204.395 203.591 205.466 203.591 207.54V210.124C203.591 212.147 203.659 213.133 203.846 214H202.469C202.435 213.728 202.401 213.32 202.384 212.878C202.384 211.977 202.537 211.399 202.775 210.719L202.384 210.651C202.282 212.878 201.466 214.255 198.967 214.255C197.063 214.255 195.856 213.201 195.856 211.756C195.856 210.141 196.893 209.223 199.443 208.815L202.214 208.39V207.71C202.214 206.299 201.534 205.585 200.055 205.585C198.525 205.585 197.845 206.401 197.641 207.404L196.281 207.2C196.706 205.381 198.015 204.395 200.072 204.395ZM199.647 209.801C197.998 210.056 197.318 210.634 197.318 211.603C197.318 212.436 197.947 213.048 199.273 213.048C201.449 213.048 202.01 211.909 202.214 210.175V209.41L199.647 209.801ZM206.429 204.65H207.891C207.891 205.789 207.585 206.86 207.245 207.863L207.619 207.931C207.823 206.248 208.503 204.395 210.509 204.395C212.345 204.395 213.365 205.806 213.433 208.169L211.937 208.339C211.801 206.35 211.223 205.636 210.033 205.636C208.656 205.636 207.959 206.877 207.891 209.087V214H206.429V204.65ZM215.228 204.65H216.69C216.69 205.789 216.384 206.86 216.044 207.863L216.418 207.931C216.622 206.248 217.302 204.395 219.308 204.395C221.144 204.395 222.164 205.806 222.232 208.169L220.736 208.339C220.6 206.35 220.022 205.636 218.832 205.636C217.455 205.636 216.758 206.877 216.69 209.087V214H215.228V204.65ZM223.398 209.325C223.398 206.18 225.217 204.395 227.903 204.395C230.589 204.395 232.425 206.18 232.425 209.325C232.425 212.47 230.589 214.255 227.903 214.255C225.217 214.255 223.398 212.47 223.398 209.325ZM224.86 209.325C224.86 211.688 226.067 213.014 227.903 213.014C229.739 213.014 230.963 211.688 230.963 209.325C230.963 206.962 229.739 205.636 227.903 205.636C226.067 205.636 224.86 206.962 224.86 209.325ZM235.661 202.1H237.072C237.072 203.154 236.902 203.749 236.443 204.225C236.12 204.565 235.814 204.684 235.049 204.854L235.168 205.211C235.95 204.837 236.494 204.65 237.786 204.65H240.166V205.891H236.681V211.178C236.681 212.521 237.242 212.98 238.126 212.98C238.925 212.98 239.554 212.657 240.081 212.181L240.353 213.422C239.826 213.83 239.027 214.255 237.922 214.255C236.375 214.255 235.236 213.49 235.236 211.416V205.891H233.247V204.65H233.944C235.287 204.65 235.746 203.749 235.661 202.1ZM84.8835 241.845C87.6715 241.845 89.3375 243.307 89.6435 245.806L88.1475 245.959C87.8245 243.936 86.8895 243.086 84.8835 243.086C82.4185 243.086 81.1095 244.922 81.1095 248.05C81.1095 251.178 82.5205 253.031 85.0365 253.031C87.4165 253.031 88.5045 251.688 88.6065 248.679H83.6765V247.455H90.3575V250.26C90.3575 252.164 90.4255 252.929 90.6295 254H89.0485C88.9805 253.643 88.9295 253.116 88.9125 252.521C88.8955 251.637 89.1335 250.702 89.3885 249.886L89.0145 249.818C88.9465 250.651 88.7765 251.739 88.3515 252.47C87.7225 253.592 86.5325 254.255 84.8665 254.255C81.5345 254.255 79.6135 251.943 79.6135 248.05C79.6135 244.157 81.4835 241.845 84.8835 241.845ZM92.9577 244.65H94.4197C94.4197 245.789 94.1137 246.86 93.7737 247.863L94.1477 247.931C94.3517 246.248 95.0317 244.395 97.0377 244.395C98.8737 244.395 99.8937 245.806 99.9617 248.169L98.4657 248.339C98.3297 246.35 97.7517 245.636 96.5617 245.636C95.1847 245.636 94.4877 246.877 94.4197 249.087V254H92.9577V244.65ZM105.513 244.395C108.318 244.395 109.644 246.231 109.542 249.41H102.521C102.538 251.773 103.694 253.082 105.632 253.082C107.434 253.082 108.233 252.062 108.505 250.294L109.848 250.481C109.457 252.963 108.046 254.255 105.581 254.255C102.776 254.255 101.127 252.47 101.127 249.325C101.127 246.18 102.81 244.395 105.513 244.395ZM102.606 248.441H108.165C108.114 246.758 107.383 245.568 105.513 245.568C103.881 245.568 102.827 246.588 102.606 248.441ZM115.64 244.395C118.445 244.395 119.771 246.231 119.669 249.41H112.648C112.665 251.773 113.821 253.082 115.759 253.082C117.561 253.082 118.36 252.062 118.632 250.294L119.975 250.481C119.584 252.963 118.173 254.255 115.708 254.255C112.903 254.255 111.254 252.47 111.254 249.325C111.254 246.18 112.937 244.395 115.64 244.395ZM112.733 248.441H118.292C118.241 246.758 117.51 245.568 115.64 245.568C114.008 245.568 112.954 246.588 112.733 248.441ZM126.651 244.395C128.827 244.395 130.221 245.891 130.221 248.322L130.238 254H128.759V248.475C128.759 246.639 127.943 245.687 126.192 245.687C124.526 245.687 123.574 246.537 123.472 248.577V254H122.01V244.65H123.472C123.472 245.789 123.166 246.843 122.826 247.846L123.2 247.931C123.472 245.925 124.356 244.395 126.651 244.395ZM141.218 242.1H142.867L147.457 254H145.927L144.584 250.515H139.484L138.158 254H136.628L141.218 242.1ZM139.926 249.24H144.159L142.663 245.449C142.204 244.208 142.153 243.8 142.221 242.831H141.847C141.915 243.8 141.864 244.242 141.422 245.449L139.926 249.24ZM153.897 244.395C156.226 244.395 157.926 246.18 157.926 249.325C157.926 252.47 156.226 254.255 153.897 254.255C151.534 254.255 150.548 252.368 150.344 250.294L149.97 250.362C150.344 251.535 150.599 252.691 150.599 254V257.06H149.137V244.65H150.667C150.599 245.959 150.327 247.115 149.97 248.288L150.344 248.356C150.548 246.282 151.534 244.395 153.897 244.395ZM150.582 249.325C150.582 251.688 151.755 253.014 153.523 253.014C155.291 253.014 156.464 251.688 156.464 249.325C156.464 246.962 155.291 245.636 153.523 245.636C151.755 245.636 150.582 246.962 150.582 249.325ZM164.771 244.395C167.1 244.395 168.8 246.18 168.8 249.325C168.8 252.47 167.1 254.255 164.771 254.255C162.408 254.255 161.422 252.368 161.218 250.294L160.844 250.362C161.218 251.535 161.473 252.691 161.473 254V257.06H160.011V244.65H161.541C161.473 245.959 161.201 247.115 160.844 248.288L161.218 248.356C161.422 246.282 162.408 244.395 164.771 244.395ZM161.456 249.325C161.456 251.688 162.629 253.014 164.397 253.014C166.165 253.014 167.338 251.688 167.338 249.325C167.338 246.962 166.165 245.636 164.397 245.636C162.629 245.636 161.456 246.962 161.456 249.325ZM171.004 241.25H172.449L172.347 250.192C172.33 251.552 172.364 252.657 172.585 254H171.14C170.936 252.81 170.885 251.756 170.902 250.43L171.004 241.25ZM178.975 244.395C181.78 244.395 183.106 246.231 183.004 249.41H175.983C176 251.773 177.156 253.082 179.094 253.082C180.896 253.082 181.695 252.062 181.967 250.294L183.31 250.481C182.919 252.963 181.508 254.255 179.043 254.255C176.238 254.255 174.589 252.47 174.589 249.325C174.589 246.18 176.272 244.395 178.975 244.395ZM176.068 248.441H181.627C181.576 246.758 180.845 245.568 178.975 245.568C177.343 245.568 176.289 246.588 176.068 248.441ZM84.8835 281.845C87.6715 281.845 89.3375 283.307 89.6435 285.806L88.1475 285.959C87.8245 283.936 86.8895 283.086 84.8835 283.086C82.4185 283.086 81.1095 284.922 81.1095 288.05C81.1095 291.178 82.5205 293.031 85.0365 293.031C87.4165 293.031 88.5045 291.688 88.6065 288.679H83.6765V287.455H90.3575V290.26C90.3575 292.164 90.4255 292.929 90.6295 294H89.0485C88.9805 293.643 88.9295 293.116 88.9125 292.521C88.8955 291.637 89.1335 290.702 89.3885 289.886L89.0145 289.818C88.9465 290.651 88.7765 291.739 88.3515 292.47C87.7225 293.592 86.5325 294.255 84.8665 294.255C81.5345 294.255 79.6135 291.943 79.6135 288.05C79.6135 284.157 81.4835 281.845 84.8835 281.845ZM92.9577 284.65H94.4197C94.4197 285.789 94.1137 286.86 93.7737 287.863L94.1477 287.931C94.3517 286.248 95.0317 284.395 97.0377 284.395C98.8737 284.395 99.8937 285.806 99.9617 288.169L98.4657 288.339C98.3297 286.35 97.7517 285.636 96.5617 285.636C95.1847 285.636 94.4877 286.877 94.4197 289.087V294H92.9577V284.65ZM105.111 284.395C107.287 284.395 108.63 285.466 108.63 287.54V290.124C108.63 292.147 108.698 293.133 108.885 294H107.508C107.474 293.728 107.44 293.32 107.423 292.878C107.423 291.977 107.576 291.399 107.814 290.719L107.423 290.651C107.321 292.878 106.505 294.255 104.006 294.255C102.102 294.255 100.895 293.201 100.895 291.756C100.895 290.141 101.932 289.223 104.482 288.815L107.253 288.39V287.71C107.253 286.299 106.573 285.585 105.094 285.585C103.564 285.585 102.884 286.401 102.68 287.404L101.32 287.2C101.745 285.381 103.054 284.395 105.111 284.395ZM104.686 289.801C103.037 290.056 102.357 290.634 102.357 291.603C102.357 292.436 102.986 293.048 104.312 293.048C106.488 293.048 107.049 291.909 107.253 290.175V289.41L104.686 289.801ZM116.228 284.395C118.557 284.395 120.257 286.18 120.257 289.325C120.257 292.47 118.557 294.255 116.228 294.255C113.865 294.255 112.879 292.368 112.675 290.294L112.301 290.362C112.675 291.535 112.93 292.691 112.93 294V297.06H111.468V284.65H112.998C112.93 285.959 112.658 287.115 112.301 288.288L112.675 288.356C112.879 286.282 113.865 284.395 116.228 284.395ZM112.913 289.325C112.913 291.688 114.086 293.014 115.854 293.014C117.622 293.014 118.795 291.688 118.795 289.325C118.795 286.962 117.622 285.636 115.854 285.636C114.086 285.636 112.913 286.962 112.913 289.325ZM126.099 284.395C128.904 284.395 130.23 286.231 130.128 289.41H123.107C123.124 291.773 124.28 293.082 126.218 293.082C128.02 293.082 128.819 292.062 129.091 290.294L130.434 290.481C130.043 292.963 128.632 294.255 126.167 294.255C123.362 294.255 121.713 292.47 121.713 289.325C121.713 286.18 123.396 284.395 126.099 284.395ZM123.192 288.441H128.751C128.7 286.758 127.969 285.568 126.099 285.568C124.467 285.568 123.413 286.588 123.192 288.441ZM135.004 280.995C136.024 280.995 137.061 281.25 137.792 281.607L137.605 282.882C136.874 282.525 136.007 282.287 135.021 282.287C133.933 282.287 133.423 282.661 133.423 283.358C133.423 284.14 134.137 284.65 135.922 284.65H137.605V285.891H134.63V294H133.168V285.891H131.349V284.65C132.556 284.65 133.661 284.939 134.681 285.279L134.749 284.888C133.644 284.786 132.114 284.412 132.114 283.035C132.114 281.794 133.236 280.995 135.004 280.995ZM139.392 284.65H140.854C140.854 285.789 140.548 286.86 140.208 287.863L140.582 287.931C140.786 286.248 141.466 284.395 143.472 284.395C145.308 284.395 146.328 285.806 146.396 288.169L144.9 288.339C144.764 286.35 144.186 285.636 142.996 285.636C141.619 285.636 140.922 286.877 140.854 289.087V294H139.392V284.65ZM154.821 284.65H156.283V290.124C156.283 292.147 156.351 293.133 156.538 294H155.127C155.093 293.745 155.076 293.337 155.076 292.895C155.076 292.096 155.212 291.535 155.467 290.838L155.093 290.77C154.94 292.827 153.971 294.255 151.693 294.255C149.5 294.255 148.106 292.776 148.106 290.396V284.65H149.585L149.568 290.26C149.568 292.113 150.418 293.014 152.118 293.014C153.801 293.014 154.736 292.113 154.821 290.073V284.65ZM158.96 282.576C158.96 282.015 159.334 281.692 159.929 281.692C160.507 281.692 160.881 282.015 160.881 282.576C160.881 283.137 160.507 283.46 159.929 283.46C159.334 283.46 158.96 283.137 158.96 282.576ZM160.643 284.65V294H159.198V284.65H160.643ZM164.656 282.1H166.067C166.067 283.154 165.897 283.749 165.438 284.225C165.115 284.565 164.809 284.684 164.044 284.854L164.163 285.211C164.945 284.837 165.489 284.65 166.781 284.65H169.161V285.891H165.676V291.178C165.676 292.521 166.237 292.98 167.121 292.98C167.92 292.98 168.549 292.657 169.076 292.181L169.348 293.422C168.821 293.83 168.022 294.255 166.917 294.255C165.37 294.255 164.231 293.49 164.231 291.416V285.891H162.242V284.65H162.939C164.282 284.65 164.741 283.749 164.656 282.1ZM80.2595 322.1H81.7555V332.691H88.2835V334H80.2595V322.1ZM93.743 324.395C96.548 324.395 97.874 326.231 97.772 329.41H90.751C90.768 331.773 91.924 333.082 93.862 333.082C95.664 333.082 96.463 332.062 96.735 330.294L98.078 330.481C97.687 332.963 96.276 334.255 93.811 334.255C91.006 334.255 89.357 332.47 89.357 329.325C89.357 326.18 91.04 324.395 93.743 324.395ZM90.836 328.441H96.395C96.344 326.758 95.613 325.568 93.743 325.568C92.111 325.568 91.057 326.588 90.836 328.441ZM100.113 324.65H101.575C101.575 325.789 101.252 326.86 100.929 327.863L101.303 327.931C101.49 326.163 102.255 324.395 104.329 324.395C105.485 324.395 106.386 324.888 106.879 325.789C107.219 326.435 107.134 327.03 106.811 327.863L107.202 327.931C107.338 326.163 108.171 324.395 110.211 324.395C112.132 324.395 113.356 325.874 113.356 328.288V334H111.894V328.441C111.894 326.622 111.214 325.687 109.735 325.687C108.358 325.687 107.542 326.503 107.457 328.543L107.474 334H105.995V328.441C105.995 326.622 105.315 325.687 103.853 325.687C102.476 325.687 101.66 326.503 101.575 328.543V334H100.113V324.65ZM115.355 329.325C115.355 326.18 117.174 324.395 119.86 324.395C122.546 324.395 124.382 326.18 124.382 329.325C124.382 332.47 122.546 334.255 119.86 334.255C117.174 334.255 115.355 332.47 115.355 329.325ZM116.817 329.325C116.817 331.688 118.024 333.014 119.86 333.014C121.696 333.014 122.92 331.688 122.92 329.325C122.92 326.962 121.696 325.636 119.86 325.636C118.024 325.636 116.817 326.962 116.817 329.325ZM131.117 324.395C133.293 324.395 134.687 325.891 134.687 328.322L134.704 334H133.225V328.475C133.225 326.639 132.409 325.687 130.658 325.687C128.992 325.687 128.04 326.537 127.938 328.577V334H126.476V324.65H127.938C127.938 325.789 127.632 326.843 127.292 327.846L127.666 327.931C127.938 325.925 128.822 324.395 131.117 324.395ZM142.233 322.1H144.341L147.775 329.257C148.37 330.566 148.387 330.991 148.302 332.113H148.659C148.557 330.991 148.625 330.566 149.203 329.257L152.62 322.1H154.745V334H153.249V325.534C153.249 324.514 153.317 323.987 153.606 323.137L153.232 323.052C153.13 323.936 152.977 324.514 152.603 325.381L149.934 330.753C149.356 332.011 149.237 332.589 149.22 334H147.741C147.741 332.589 147.622 332.011 147.027 330.753L144.375 325.381C144.001 324.514 143.848 323.936 143.746 323.052L143.389 323.137C143.661 323.987 143.729 324.514 143.729 325.534V334H142.233V322.1ZM157.316 322.576C157.316 322.015 157.69 321.692 158.285 321.692C158.863 321.692 159.237 322.015 159.237 322.576C159.237 323.137 158.863 323.46 158.285 323.46C157.69 323.46 157.316 323.137 157.316 322.576ZM158.999 324.65V334H157.554V324.65H158.999ZM166.379 324.395C168.555 324.395 169.949 325.891 169.949 328.322L169.966 334H168.487V328.475C168.487 326.639 167.671 325.687 165.92 325.687C164.254 325.687 163.302 326.537 163.2 328.577V334H161.738V324.65H163.2C163.2 325.789 162.894 326.843 162.554 327.846L162.928 327.931C163.2 325.925 164.084 324.395 166.379 324.395Z" fill="#558E62"/>
<path d="M323.537 167.1H326.24V174.546H327.6V176.076H326.24V179H324.285V176.076H318.216V174.546C320.987 172.387 322.823 170.041 323.537 167.1ZM322.449 174.546H324.285V171.69C324.285 170.602 324.455 169.735 324.727 168.902L324.319 168.817C324.251 169.565 324.098 170.228 323.775 170.84C323.265 171.809 322.347 172.897 321.633 173.611C321.089 174.138 320.341 174.495 319.457 174.665L319.559 175.09C320.375 174.716 321.344 174.546 322.449 174.546ZM330.775 177.317L329.891 181.567H328.582L328.99 177.317H330.775ZM332.053 173.05C332.053 169.157 333.991 166.845 337.323 166.845C340.638 166.845 342.576 169.157 342.576 173.05C342.576 176.943 340.638 179.255 337.323 179.255C333.991 179.255 332.053 176.943 332.053 173.05ZM334.025 173.05C334.025 175.889 335.249 177.572 337.323 177.572C339.397 177.572 340.604 175.889 340.604 173.05C340.604 170.211 339.397 168.528 337.323 168.528C335.249 168.528 334.025 170.211 334.025 173.05ZM343.923 173.05C343.923 169.157 345.861 166.845 349.193 166.845C352.508 166.845 354.446 169.157 354.446 173.05C354.446 176.943 352.508 179.255 349.193 179.255C345.861 179.255 343.923 176.943 343.923 173.05ZM345.895 173.05C345.895 175.889 347.119 177.572 349.193 177.572C351.267 177.572 352.474 175.889 352.474 173.05C352.474 170.211 351.267 168.528 349.193 168.528C347.119 168.528 345.895 170.211 345.895 173.05ZM355.793 173.05C355.793 169.157 357.731 166.845 361.063 166.845C364.378 166.845 366.316 169.157 366.316 173.05C366.316 176.943 364.378 179.255 361.063 179.255C357.731 179.255 355.793 176.943 355.793 173.05ZM357.765 173.05C357.765 175.889 358.989 177.572 361.063 177.572C363.137 177.572 364.344 175.889 364.344 173.05C364.344 170.211 363.137 168.528 361.063 168.528C358.989 168.528 357.765 170.211 357.765 173.05ZM323.537 217.1H326.24V224.546H327.6V226.076H326.24V229H324.285V226.076H318.216V224.546C320.987 222.387 322.823 220.041 323.537 217.1ZM322.449 224.546H324.285V221.69C324.285 220.602 324.455 219.735 324.727 218.902L324.319 218.817C324.251 219.565 324.098 220.228 323.775 220.84C323.265 221.809 322.347 222.897 321.633 223.611C321.089 224.138 320.341 224.495 319.457 224.665L319.559 225.09C320.375 224.716 321.344 224.546 322.449 224.546ZM330.775 227.317L329.891 231.567H328.582L328.99 227.317H330.775ZM332.053 223.05C332.053 219.157 333.991 216.845 337.323 216.845C340.638 216.845 342.576 219.157 342.576 223.05C342.576 226.943 340.638 229.255 337.323 229.255C333.991 229.255 332.053 226.943 332.053 223.05ZM334.025 223.05C334.025 225.889 335.249 227.572 337.323 227.572C339.397 227.572 340.604 225.889 340.604 223.05C340.604 220.211 339.397 218.528 337.323 218.528C335.249 218.528 334.025 220.211 334.025 223.05ZM343.923 223.05C343.923 219.157 345.861 216.845 349.193 216.845C352.508 216.845 354.446 219.157 354.446 223.05C354.446 226.943 352.508 229.255 349.193 229.255C345.861 229.255 343.923 226.943 343.923 223.05ZM345.895 223.05C345.895 225.889 347.119 227.572 349.193 227.572C351.267 227.572 352.474 225.889 352.474 223.05C352.474 220.211 351.267 218.528 349.193 218.528C347.119 218.528 345.895 220.211 345.895 223.05ZM355.793 223.05C355.793 219.157 357.731 216.845 361.063 216.845C364.378 216.845 366.316 219.157 366.316 223.05C366.316 226.943 364.378 229.255 361.063 229.255C357.731 229.255 355.793 226.943 355.793 223.05ZM357.765 223.05C357.765 225.889 358.989 227.572 361.063 227.572C363.137 227.572 364.344 225.889 364.344 223.05C364.344 220.211 363.137 218.528 361.063 218.528C358.989 218.528 357.765 220.211 357.765 223.05ZM323.537 267.1H326.24V274.546H327.6V276.076H326.24V279H324.285V276.076H318.216V274.546C320.987 272.387 322.823 270.041 323.537 267.1ZM322.449 274.546H324.285V271.69C324.285 270.602 324.455 269.735 324.727 268.902L324.319 268.817C324.251 269.565 324.098 270.228 323.775 270.84C323.265 271.809 322.347 272.897 321.633 273.611C321.089 274.138 320.341 274.495 319.457 274.665L319.559 275.09C320.375 274.716 321.344 274.546 322.449 274.546ZM330.775 277.317L329.891 281.567H328.582L328.99 277.317H330.775ZM332.053 273.05C332.053 269.157 333.991 266.845 337.323 266.845C340.638 266.845 342.576 269.157 342.576 273.05C342.576 276.943 340.638 279.255 337.323 279.255C333.991 279.255 332.053 276.943 332.053 273.05ZM334.025 273.05C334.025 275.889 335.249 277.572 337.323 277.572C339.397 277.572 340.604 275.889 340.604 273.05C340.604 270.211 339.397 268.528 337.323 268.528C335.249 268.528 334.025 270.211 334.025 273.05ZM343.923 273.05C343.923 269.157 345.861 266.845 349.193 266.845C352.508 266.845 354.446 269.157 354.446 273.05C354.446 276.943 352.508 279.255 349.193 279.255C345.861 279.255 343.923 276.943 343.923 273.05ZM345.895 273.05C345.895 275.889 347.119 277.572 349.193 277.572C351.267 277.572 352.474 275.889 352.474 273.05C352.474 270.211 351.267 268.528 349.193 268.528C347.119 268.528 345.895 270.211 345.895 273.05ZM355.793 273.05C355.793 269.157 357.731 266.845 361.063 266.845C364.378 266.845 366.316 269.157 366.316 273.05C366.316 276.943 364.378 279.255 361.063 279.255C357.731 279.255 355.793 276.943 355.793 273.05ZM357.765 273.05C357.765 275.889 358.989 277.572 361.063 277.572C363.137 277.572 364.344 275.889 364.344 273.05C364.344 270.211 363.137 268.528 361.063 268.528C358.989 268.528 357.765 270.211 357.765 273.05ZM323.537 317.1H326.24V324.546H327.6V326.076H326.24V329H324.285V326.076H318.216V324.546C320.987 322.387 322.823 320.041 323.537 317.1ZM322.449 324.546H324.285V321.69C324.285 320.602 324.455 319.735 324.727 318.902L324.319 318.817C324.251 319.565 324.098 320.228 323.775 320.84C323.265 321.809 322.347 322.897 321.633 323.611C321.089 324.138 320.341 324.495 319.457 324.665L319.559 325.09C320.375 324.716 321.344 324.546 322.449 324.546ZM330.775 327.317L329.891 331.567H328.582L328.99 327.317H330.775ZM332.053 323.05C332.053 319.157 333.991 316.845 337.323 316.845C340.638 316.845 342.576 319.157 342.576 323.05C342.576 326.943 340.638 329.255 337.323 329.255C333.991 329.255 332.053 326.943 332.053 323.05ZM334.025 323.05C334.025 325.889 335.249 327.572 337.323 327.572C339.397 327.572 340.604 325.889 340.604 323.05C340.604 320.211 339.397 318.528 337.323 318.528C335.249 318.528 334.025 320.211 334.025 323.05ZM343.923 323.05C343.923 319.157 345.861 316.845 349.193 316.845C352.508 316.845 354.446 319.157 354.446 323.05C354.446 326.943 352.508 329.255 349.193 329.255C345.861 329.255 343.923 326.943 343.923 323.05ZM345.895 323.05C345.895 325.889 347.119 327.572 349.193 327.572C351.267 327.572 352.474 325.889 352.474 323.05C352.474 320.211 351.267 318.528 349.193 318.528C347.119 318.528 345.895 320.211 345.895 323.05ZM355.793 323.05C355.793 319.157 357.731 316.845 361.063 316.845C364.378 316.845 366.316 319.157 366.316 323.05C366.316 326.943 364.378 329.255 361.063 329.255C357.731 329.255 355.793 326.943 355.793 323.05ZM357.765 323.05C357.765 325.889 358.989 327.572 361.063 327.572C363.137 327.572 364.344 325.889 364.344 323.05C364.344 320.211 363.137 318.528 361.063 318.528C358.989 318.528 357.765 320.211 357.765 323.05Z" fill="#558E62"/>
</g>
<defs>
<clipPath id="clip0_234_594">
<rect width="440" height="370" fill="white"/>
</clipPath>
</defs>
</svg>
