<svg width="440" height="370" viewBox="0 0 440 370" fill="none" xmlns="http://www.w3.org/2000/svg">
<g clip-path="url(#clip0_234_594)">
<rect width="440" height="370" fill="white"/>
<path d="M-30 -11H470V5980H-30V-11Z" fill="#FFFDCA" fill-opacity="0.64"/>
<rect x="-29" y="-22" width="487" height="5977" fill="#F2E8DE" fill-opacity="0.61"/>
<path d="M171.479 142.569C174.948 141.279 176.682 137.939 176.682 132.55V105.675H185.282V132.636C185.282 134.213 184.981 135.718 184.379 137.151C183.806 138.556 182.974 139.817 181.885 140.935C180.824 142.082 179.549 143.042 178.058 143.816C176.567 144.59 174.919 145.135 173.113 145.45L171.479 142.569ZM203.367 136.506C202.335 137.423 201.16 138.14 199.841 138.656C198.523 139.172 197.118 139.43 195.627 139.43C194.395 139.43 193.277 139.258 192.273 138.914C191.27 138.541 190.41 138.04 189.693 137.409C188.977 136.75 188.418 135.961 188.016 135.044C187.615 134.127 187.414 133.109 187.414 131.991V115.565H195.584V130.056C195.584 131.518 195.785 132.665 196.186 133.496C196.616 134.299 197.333 134.7 198.336 134.7C199.598 134.7 200.644 134.069 201.475 132.808C202.307 131.547 202.722 129.698 202.722 127.261V115.565H210.892V139H207.022L203.367 136.506ZM213.245 115.565H221.415V139H213.245V115.565ZM213.03 109.545C213.03 108.341 213.445 107.323 214.277 106.492C215.108 105.661 216.126 105.245 217.33 105.245C218.534 105.245 219.551 105.661 220.383 106.492C221.214 107.323 221.63 108.341 221.63 109.545C221.63 110.749 221.214 111.767 220.383 112.598C219.551 113.429 218.534 113.845 217.33 113.845C216.126 113.845 215.108 113.429 214.277 112.598C213.445 111.767 213.03 110.749 213.03 109.545ZM245.634 132.421C244.774 134.628 243.426 136.348 241.592 137.581C239.757 138.814 237.578 139.43 235.056 139.43C233.307 139.43 231.687 139.129 230.197 138.527C228.706 137.925 227.416 137.094 226.327 136.033C225.266 134.944 224.435 133.654 223.833 132.163C223.231 130.644 222.93 128.981 222.93 127.175C222.93 125.369 223.231 123.735 223.833 122.273C224.435 120.782 225.28 119.521 226.37 118.489C227.459 117.428 228.763 116.611 230.283 116.038C231.831 115.436 233.551 115.135 235.443 115.135C236.991 115.135 238.582 115.336 240.216 115.737C241.878 116.138 243.555 116.712 245.247 117.457L243.527 126.057H243.097C242.638 125.254 242.007 124.466 241.205 123.692C240.402 122.889 239.542 122.173 238.625 121.542C237.736 120.911 236.833 120.41 235.916 120.037C234.998 119.636 234.196 119.435 233.508 119.435C232.59 119.435 231.888 119.793 231.401 120.51C230.913 121.227 230.67 122.259 230.67 123.606C230.67 125.011 230.928 126.401 231.444 127.777C231.96 129.153 232.633 130.386 233.465 131.475C234.296 132.564 235.228 133.453 236.26 134.141C237.292 134.8 238.338 135.13 239.399 135.13C241.147 135.13 242.509 134.227 243.484 132.421H245.634ZM268.981 132.421C268.093 134.657 266.731 136.391 264.896 137.624C263.062 138.828 260.883 139.43 258.36 139.43C256.612 139.43 254.992 139.129 253.501 138.527C252.039 137.925 250.764 137.094 249.674 136.033C248.614 134.972 247.782 133.711 247.18 132.249C246.578 130.758 246.277 129.139 246.277 127.39C246.277 123.52 247.281 120.51 249.287 118.36C251.323 116.21 254.175 115.135 257.844 115.135C261.428 115.135 264.194 116.167 266.143 118.231C268.121 120.295 269.11 123.205 269.11 126.96L268.895 127.347L256.339 130.873C257.171 132.134 258.145 133.166 259.263 133.969C260.41 134.743 261.571 135.13 262.746 135.13C264.495 135.13 265.857 134.227 266.831 132.421H268.981ZM261.37 125.842C261.313 125.068 261.127 124.308 260.811 123.563C260.496 122.789 260.095 122.101 259.607 121.499C259.149 120.868 258.633 120.367 258.059 119.994C257.515 119.621 256.97 119.435 256.425 119.435C255.68 119.435 255.092 119.808 254.662 120.553C254.232 121.27 254.017 122.273 254.017 123.563C254.017 125.111 254.333 126.673 254.963 128.25L261.37 125.842Z" fill="#558E62"/>
<path d="M79.6135 188.05C79.6135 184.157 81.6705 181.845 85.1725 181.845C88.6745 181.845 90.7315 184.157 90.7315 188.05C90.7315 191.943 88.6745 194.255 85.1725 194.255C81.6705 194.255 79.6135 191.943 79.6135 188.05ZM81.1095 188.05C81.1095 191.127 82.6055 192.946 85.1725 192.946C87.7395 192.946 89.2355 191.127 89.2355 188.05C89.2355 184.973 87.7395 183.137 85.1725 183.137C82.6055 183.137 81.1095 184.973 81.1095 188.05ZM92.8913 184.65H94.3533C94.3533 185.789 94.0473 186.86 93.7073 187.863L94.0813 187.931C94.2853 186.248 94.9653 184.395 96.9713 184.395C98.8073 184.395 99.8273 185.806 99.8953 188.169L98.3993 188.339C98.2633 186.35 97.6853 185.636 96.4953 185.636C95.1183 185.636 94.4213 186.877 94.3533 189.087V194H92.8913V184.65ZM105.044 184.395C107.22 184.395 108.563 185.466 108.563 187.54V190.124C108.563 192.147 108.631 193.133 108.818 194H107.441C107.407 193.728 107.373 193.32 107.356 192.878C107.356 191.977 107.509 191.399 107.747 190.719L107.356 190.651C107.254 192.878 106.438 194.255 103.939 194.255C102.035 194.255 100.828 193.201 100.828 191.756C100.828 190.141 101.865 189.223 104.415 188.815L107.186 188.39V187.71C107.186 186.299 106.506 185.585 105.027 185.585C103.497 185.585 102.817 186.401 102.613 187.404L101.253 187.2C101.678 185.381 102.987 184.395 105.044 184.395ZM104.619 189.801C102.97 190.056 102.29 190.634 102.29 191.603C102.29 192.436 102.919 193.048 104.245 193.048C106.421 193.048 106.982 191.909 107.186 190.175V189.41L104.619 189.801ZM116.043 184.395C118.219 184.395 119.613 185.891 119.613 188.322L119.63 194H118.151V188.475C118.151 186.639 117.335 185.687 115.584 185.687C113.918 185.687 112.966 186.537 112.864 188.577V194H111.402V184.65H112.864C112.864 185.789 112.558 186.843 112.218 187.846L112.592 187.931C112.864 185.925 113.748 184.395 116.043 184.395ZM125.778 184.65C128.702 184.65 129.501 184.48 130.521 184.14L130.708 185.364C130.181 185.466 129.705 185.534 129.246 185.534C128.634 185.534 128.022 185.415 127.291 185.126L127.189 185.517C128.804 185.772 129.807 186.367 129.807 187.982C129.807 189.393 128.991 190.362 127.359 191.11C126.764 191.399 125.455 191.824 124.469 191.943L124.554 192.334C125.353 192.045 126.118 191.909 127.138 191.909C129.569 191.926 130.793 192.759 130.793 194.34C130.793 196.04 129.535 197.315 126.39 197.315C123.653 197.315 121.885 196.159 121.545 194.34L122.939 194.119C123.177 195.173 124.18 196.159 126.424 196.159C128.566 196.159 129.382 195.343 129.382 194.289C129.382 193.303 128.668 192.793 126.509 192.793L122.157 192.776V191.722C123.211 191.722 123.891 191.671 125.098 191.229C125.795 190.991 126.509 190.804 127.121 190.702L127.053 190.328C126.509 190.583 125.846 190.804 124.928 190.719C122.905 190.532 121.732 189.546 121.732 187.812C121.732 185.84 123.296 184.65 125.778 184.65ZM123.194 187.897C123.194 189.223 124.146 189.971 125.778 189.971C127.342 189.971 128.379 189.223 128.379 187.897C128.379 186.554 127.342 185.806 125.778 185.806C124.214 185.806 123.194 186.554 123.194 187.897ZM136.392 184.395C139.197 184.395 140.523 186.231 140.421 189.41H133.4C133.417 191.773 134.573 193.082 136.511 193.082C138.313 193.082 139.112 192.062 139.384 190.294L140.727 190.481C140.336 192.963 138.925 194.255 136.46 194.255C133.655 194.255 132.006 192.47 132.006 189.325C132.006 186.18 133.689 184.395 136.392 184.395ZM133.485 188.441H139.044C138.993 186.758 138.262 185.568 136.392 185.568C134.76 185.568 133.706 186.588 133.485 188.441ZM79.6135 228.05C79.6135 224.157 81.6705 221.845 85.1725 221.845C88.6745 221.845 90.7315 224.157 90.7315 228.05C90.7315 231.943 88.6745 234.255 85.1725 234.255C81.6705 234.255 79.6135 231.943 79.6135 228.05ZM81.1095 228.05C81.1095 231.127 82.6055 232.946 85.1725 232.946C87.7395 232.946 89.2355 231.127 89.2355 228.05C89.2355 224.973 87.7395 223.137 85.1725 223.137C82.6055 223.137 81.1095 224.973 81.1095 228.05ZM92.8913 224.65H94.3533C94.3533 225.789 94.0473 226.86 93.7073 227.863L94.0813 227.931C94.2853 226.248 94.9653 224.395 96.9713 224.395C98.8073 224.395 99.8273 225.806 99.8953 228.169L98.3993 228.339C98.2633 226.35 97.6853 225.636 96.4953 225.636C95.1183 225.636 94.4213 226.877 94.3533 229.087V234H92.8913V224.65ZM105.044 224.395C107.22 224.395 108.563 225.466 108.563 227.54V230.124C108.563 232.147 108.631 233.133 108.818 234H107.441C107.407 233.728 107.373 233.32 107.356 232.878C107.356 231.977 107.509 231.399 107.747 230.719L107.356 230.651C107.254 232.878 106.438 234.255 103.939 234.255C102.035 234.255 100.828 233.201 100.828 231.756C100.828 230.141 101.865 229.223 104.415 228.815L107.186 228.39V227.71C107.186 226.299 106.506 225.585 105.027 225.585C103.497 225.585 102.817 226.401 102.613 227.404L101.253 227.2C101.678 225.381 102.987 224.395 105.044 224.395ZM104.619 229.801C102.97 230.056 102.29 230.634 102.29 231.603C102.29 232.436 102.919 233.048 104.245 233.048C106.421 233.048 106.982 231.909 107.186 230.175V229.41L104.619 229.801ZM116.043 224.395C118.219 224.395 119.613 225.891 119.613 228.322L119.63 234H118.151V228.475C118.151 226.639 117.335 225.687 115.584 225.687C113.918 225.687 112.966 226.537 112.864 228.577V234H111.402V224.65H112.864C112.864 225.789 112.558 226.843 112.218 227.846L112.592 227.931C112.864 225.925 113.748 224.395 116.043 224.395ZM125.778 224.65C128.702 224.65 129.501 224.48 130.521 224.14L130.708 225.364C130.181 225.466 129.705 225.534 129.246 225.534C128.634 225.534 128.022 225.415 127.291 225.126L127.189 225.517C128.804 225.772 129.807 226.367 129.807 227.982C129.807 229.393 128.991 230.362 127.359 231.11C126.764 231.399 125.455 231.824 124.469 231.943L124.554 232.334C125.353 232.045 126.118 231.909 127.138 231.909C129.569 231.926 130.793 232.759 130.793 234.34C130.793 236.04 129.535 237.315 126.39 237.315C123.653 237.315 121.885 236.159 121.545 234.34L122.939 234.119C123.177 235.173 124.18 236.159 126.424 236.159C128.566 236.159 129.382 235.343 129.382 234.289C129.382 233.303 128.668 232.793 126.509 232.793L122.157 232.776V231.722C123.211 231.722 123.891 231.671 125.098 231.229C125.795 230.991 126.509 230.804 127.121 230.702L127.053 230.328C126.509 230.583 125.846 230.804 124.928 230.719C122.905 230.532 121.732 229.546 121.732 227.812C121.732 225.84 123.296 224.65 125.778 224.65ZM123.194 227.897C123.194 229.223 124.146 229.971 125.778 229.971C127.342 229.971 128.379 229.223 128.379 227.897C128.379 226.554 127.342 225.806 125.778 225.806C124.214 225.806 123.194 226.554 123.194 227.897ZM136.392 224.395C139.197 224.395 140.523 226.231 140.421 229.41H133.4C133.417 231.773 134.573 233.082 136.511 233.082C138.313 233.082 139.112 232.062 139.384 230.294L140.727 230.481C140.336 232.963 138.925 234.255 136.46 234.255C133.655 234.255 132.006 232.47 132.006 229.325C132.006 226.18 133.689 224.395 136.392 224.395ZM133.485 228.441H139.044C138.993 226.758 138.262 225.568 136.392 225.568C134.76 225.568 133.706 226.588 133.485 228.441ZM151.147 224.395C153.323 224.395 154.666 225.466 154.666 227.54V230.124C154.666 232.147 154.734 233.133 154.921 234H153.544C153.51 233.728 153.476 233.32 153.459 232.878C153.459 231.977 153.612 231.399 153.85 230.719L153.459 230.651C153.357 232.878 152.541 234.255 150.042 234.255C148.138 234.255 146.931 233.201 146.931 231.756C146.931 230.141 147.968 229.223 150.518 228.815L153.289 228.39V227.71C153.289 226.299 152.609 225.585 151.13 225.585C149.6 225.585 148.92 226.401 148.716 227.404L147.356 227.2C147.781 225.381 149.09 224.395 151.147 224.395ZM150.722 229.801C149.073 230.056 148.393 230.634 148.393 231.603C148.393 232.436 149.022 233.048 150.348 233.048C152.524 233.048 153.085 231.909 153.289 230.175V229.41L150.722 229.801ZM162.146 224.395C164.322 224.395 165.716 225.891 165.716 228.322L165.733 234H164.254V228.475C164.254 226.639 163.438 225.687 161.687 225.687C160.021 225.687 159.069 226.537 158.967 228.577V234H157.505V224.65H158.967C158.967 225.789 158.661 226.843 158.321 227.846L158.695 227.931C158.967 225.925 159.851 224.395 162.146 224.395ZM171.745 224.395C174.108 224.395 175.094 226.282 175.298 228.356L175.672 228.271C175.298 227.115 175.043 225.959 175.043 224.65V221.25H176.505V229.971C176.505 232.011 176.59 233.116 176.794 234H175.349C175.315 233.66 175.264 233.252 175.264 232.742C175.247 231.722 175.417 231.076 175.672 230.362L175.298 230.294C175.094 232.368 174.108 234.255 171.745 234.255C169.416 234.255 167.733 232.47 167.733 229.325C167.733 226.18 169.416 224.395 171.745 224.395ZM175.06 229.325C175.06 226.962 173.887 225.636 172.119 225.636C170.351 225.636 169.195 226.962 169.195 229.325C169.195 231.688 170.351 233.014 172.119 233.014C173.887 233.014 175.06 231.688 175.06 229.325ZM183.689 228.05C183.689 224.157 185.61 221.845 188.976 221.845C191.781 221.845 193.481 223.358 193.787 225.84L192.291 226.01C191.968 224.021 190.999 223.137 188.959 223.137C186.528 223.137 185.185 224.973 185.185 228.067C185.185 231.127 186.613 232.946 189.231 232.946C191.56 232.946 192.801 231.739 192.92 229.07L194.416 229.24C194.229 232.453 192.342 234.255 189.231 234.255C185.644 234.255 183.689 231.943 183.689 228.05ZM200.072 224.395C202.248 224.395 203.591 225.466 203.591 227.54V230.124C203.591 232.147 203.659 233.133 203.846 234H202.469C202.435 233.728 202.401 233.32 202.384 232.878C202.384 231.977 202.537 231.399 202.775 230.719L202.384 230.651C202.282 232.878 201.466 234.255 198.967 234.255C197.063 234.255 195.856 233.201 195.856 231.756C195.856 230.141 196.893 229.223 199.443 228.815L202.214 228.39V227.71C202.214 226.299 201.534 225.585 200.055 225.585C198.525 225.585 197.845 226.401 197.641 227.404L196.281 227.2C196.706 225.381 198.015 224.395 200.072 224.395ZM199.647 229.801C197.998 230.056 197.318 230.634 197.318 231.603C197.318 232.436 197.947 233.048 199.273 233.048C201.449 233.048 202.01 231.909 202.214 230.175V229.41L199.647 229.801ZM206.429 224.65H207.891C207.891 225.789 207.585 226.86 207.245 227.863L207.619 227.931C207.823 226.248 208.503 224.395 210.509 224.395C212.345 224.395 213.365 225.806 213.433 228.169L211.937 228.339C211.801 226.35 211.223 225.636 210.033 225.636C208.656 225.636 207.959 226.877 207.891 229.087V234H206.429V224.65ZM215.228 224.65H216.69C216.69 225.789 216.384 226.86 216.044 227.863L216.418 227.931C216.622 226.248 217.302 224.395 219.308 224.395C221.144 224.395 222.164 225.806 222.232 228.169L220.736 228.339C220.6 226.35 220.022 225.636 218.832 225.636C217.455 225.636 216.758 226.877 216.69 229.087V234H215.228V224.65ZM223.398 229.325C223.398 226.18 225.217 224.395 227.903 224.395C230.589 224.395 232.425 226.18 232.425 229.325C232.425 232.47 230.589 234.255 227.903 234.255C225.217 234.255 223.398 232.47 223.398 229.325ZM224.86 229.325C224.86 231.688 226.067 233.014 227.903 233.014C229.739 233.014 230.963 231.688 230.963 229.325C230.963 226.962 229.739 225.636 227.903 225.636C226.067 225.636 224.86 226.962 224.86 229.325ZM235.661 222.1H237.072C237.072 223.154 236.902 223.749 236.443 224.225C236.12 224.565 235.814 224.684 235.049 224.854L235.168 225.211C235.95 224.837 236.494 224.65 237.786 224.65H240.166V225.891H236.681V231.178C236.681 232.521 237.242 232.98 238.126 232.98C238.925 232.98 239.554 232.657 240.081 232.181L240.353 233.422C239.826 233.83 239.027 234.255 237.922 234.255C236.375 234.255 235.236 233.49 235.236 231.416V225.891H233.247V224.65H233.944C235.287 224.65 235.746 223.749 235.661 222.1ZM84.8835 261.845C87.6715 261.845 89.3375 263.307 89.6435 265.806L88.1475 265.959C87.8245 263.936 86.8895 263.086 84.8835 263.086C82.4185 263.086 81.1095 264.922 81.1095 268.05C81.1095 271.178 82.5205 273.031 85.0365 273.031C87.4165 273.031 88.5045 271.688 88.6065 268.679H83.6765V267.455H90.3575V270.26C90.3575 272.164 90.4255 272.929 90.6295 274H89.0485C88.9805 273.643 88.9295 273.116 88.9125 272.521C88.8955 271.637 89.1335 270.702 89.3885 269.886L89.0145 269.818C88.9465 270.651 88.7765 271.739 88.3515 272.47C87.7225 273.592 86.5325 274.255 84.8665 274.255C81.5345 274.255 79.6135 271.943 79.6135 268.05C79.6135 264.157 81.4835 261.845 84.8835 261.845ZM92.9577 264.65H94.4197C94.4197 265.789 94.1137 266.86 93.7737 267.863L94.1477 267.931C94.3517 266.248 95.0317 264.395 97.0377 264.395C98.8737 264.395 99.8937 265.806 99.9617 268.169L98.4657 268.339C98.3297 266.35 97.7517 265.636 96.5617 265.636C95.1847 265.636 94.4877 266.877 94.4197 269.087V274H92.9577V264.65ZM105.513 264.395C108.318 264.395 109.644 266.231 109.542 269.41H102.521C102.538 271.773 103.694 273.082 105.632 273.082C107.434 273.082 108.233 272.062 108.505 270.294L109.848 270.481C109.457 272.963 108.046 274.255 105.581 274.255C102.776 274.255 101.127 272.47 101.127 269.325C101.127 266.18 102.81 264.395 105.513 264.395ZM102.606 268.441H108.165C108.114 266.758 107.383 265.568 105.513 265.568C103.881 265.568 102.827 266.588 102.606 268.441ZM115.64 264.395C118.445 264.395 119.771 266.231 119.669 269.41H112.648C112.665 271.773 113.821 273.082 115.759 273.082C117.561 273.082 118.36 272.062 118.632 270.294L119.975 270.481C119.584 272.963 118.173 274.255 115.708 274.255C112.903 274.255 111.254 272.47 111.254 269.325C111.254 266.18 112.937 264.395 115.64 264.395ZM112.733 268.441H118.292C118.241 266.758 117.51 265.568 115.64 265.568C114.008 265.568 112.954 266.588 112.733 268.441ZM126.651 264.395C128.827 264.395 130.221 265.891 130.221 268.322L130.238 274H128.759V268.475C128.759 266.639 127.943 265.687 126.192 265.687C124.526 265.687 123.574 266.537 123.472 268.577V274H122.01V264.65H123.472C123.472 265.789 123.166 266.843 122.826 267.846L123.2 267.931C123.472 265.925 124.356 264.395 126.651 264.395ZM141.218 262.1H142.867L147.457 274H145.927L144.584 270.515H139.484L138.158 274H136.628L141.218 262.1ZM139.926 269.24H144.159L142.663 265.449C142.204 264.208 142.153 263.8 142.221 262.831H141.847C141.915 263.8 141.864 264.242 141.422 265.449L139.926 269.24ZM153.897 264.395C156.226 264.395 157.926 266.18 157.926 269.325C157.926 272.47 156.226 274.255 153.897 274.255C151.534 274.255 150.548 272.368 150.344 270.294L149.97 270.362C150.344 271.535 150.599 272.691 150.599 274V277.06H149.137V264.65H150.667C150.599 265.959 150.327 267.115 149.97 268.288L150.344 268.356C150.548 266.282 151.534 264.395 153.897 264.395ZM150.582 269.325C150.582 271.688 151.755 273.014 153.523 273.014C155.291 273.014 156.464 271.688 156.464 269.325C156.464 266.962 155.291 265.636 153.523 265.636C151.755 265.636 150.582 266.962 150.582 269.325ZM164.771 264.395C167.1 264.395 168.8 266.18 168.8 269.325C168.8 272.47 167.1 274.255 164.771 274.255C162.408 274.255 161.422 272.368 161.218 270.294L160.844 270.362C161.218 271.535 161.473 272.691 161.473 274V277.06H160.011V264.65H161.541C161.473 265.959 161.201 267.115 160.844 268.288L161.218 268.356C161.422 266.282 162.408 264.395 164.771 264.395ZM161.456 269.325C161.456 271.688 162.629 273.014 164.397 273.014C166.165 273.014 167.338 271.688 167.338 269.325C167.338 266.962 166.165 265.636 164.397 265.636C162.629 265.636 161.456 266.962 161.456 269.325ZM171.004 261.25H172.449L172.347 270.192C172.33 271.552 172.364 272.657 172.585 274H171.14C170.936 272.81 170.885 271.756 170.902 270.43L171.004 261.25ZM178.975 264.395C181.78 264.395 183.106 266.231 183.004 269.41H175.983C176 271.773 177.156 273.082 179.094 273.082C180.896 273.082 181.695 272.062 181.967 270.294L183.31 270.481C182.919 272.963 181.508 274.255 179.043 274.255C176.238 274.255 174.589 272.47 174.589 269.325C174.589 266.18 176.272 264.395 178.975 264.395ZM176.068 268.441H181.627C181.576 266.758 180.845 265.568 178.975 265.568C177.343 265.568 176.289 266.588 176.068 268.441ZM84.8835 301.845C87.6715 301.845 89.3375 303.307 89.6435 305.806L88.1475 305.959C87.8245 303.936 86.8895 303.086 84.8835 303.086C82.4185 303.086 81.1095 304.922 81.1095 308.05C81.1095 311.178 82.5205 313.031 85.0365 313.031C87.4165 313.031 88.5045 311.688 88.6065 308.679H83.6765V307.455H90.3575V310.26C90.3575 312.164 90.4255 312.929 90.6295 314H89.0485C88.9805 313.643 88.9295 313.116 88.9125 312.521C88.8955 311.637 89.1335 310.702 89.3885 309.886L89.0145 309.818C88.9465 310.651 88.7765 311.739 88.3515 312.47C87.7225 313.592 86.5325 314.255 84.8665 314.255C81.5345 314.255 79.6135 311.943 79.6135 308.05C79.6135 304.157 81.4835 301.845 84.8835 301.845ZM92.9577 304.65H94.4197C94.4197 305.789 94.1137 306.86 93.7737 307.863L94.1477 307.931C94.3517 306.248 95.0317 304.395 97.0377 304.395C98.8737 304.395 99.8937 305.806 99.9617 308.169L98.4657 308.339C98.3297 306.35 97.7517 305.636 96.5617 305.636C95.1847 305.636 94.4877 306.877 94.4197 309.087V314H92.9577V304.65ZM105.111 304.395C107.287 304.395 108.63 305.466 108.63 307.54V310.124C108.63 312.147 108.698 313.133 108.885 314H107.508C107.474 313.728 107.44 313.32 107.423 312.878C107.423 311.977 107.576 311.399 107.814 310.719L107.423 310.651C107.321 312.878 106.505 314.255 104.006 314.255C102.102 314.255 100.895 313.201 100.895 311.756C100.895 310.141 101.932 309.223 104.482 308.815L107.253 308.39V307.71C107.253 306.299 106.573 305.585 105.094 305.585C103.564 305.585 102.884 306.401 102.68 307.404L101.32 307.2C101.745 305.381 103.054 304.395 105.111 304.395ZM104.686 309.801C103.037 310.056 102.357 310.634 102.357 311.603C102.357 312.436 102.986 313.048 104.312 313.048C106.488 313.048 107.049 311.909 107.253 310.175V309.41L104.686 309.801ZM116.228 304.395C118.557 304.395 120.257 306.18 120.257 309.325C120.257 312.47 118.557 314.255 116.228 314.255C113.865 314.255 112.879 312.368 112.675 310.294L112.301 310.362C112.675 311.535 112.93 312.691 112.93 314V317.06H111.468V304.65H112.998C112.93 305.959 112.658 307.115 112.301 308.288L112.675 308.356C112.879 306.282 113.865 304.395 116.228 304.395ZM112.913 309.325C112.913 311.688 114.086 313.014 115.854 313.014C117.622 313.014 118.795 311.688 118.795 309.325C118.795 306.962 117.622 305.636 115.854 305.636C114.086 305.636 112.913 306.962 112.913 309.325ZM126.099 304.395C128.904 304.395 130.23 306.231 130.128 309.41H123.107C123.124 311.773 124.28 313.082 126.218 313.082C128.02 313.082 128.819 312.062 129.091 310.294L130.434 310.481C130.043 312.963 128.632 314.255 126.167 314.255C123.362 314.255 121.713 312.47 121.713 309.325C121.713 306.18 123.396 304.395 126.099 304.395ZM123.192 308.441H128.751C128.7 306.758 127.969 305.568 126.099 305.568C124.467 305.568 123.413 306.588 123.192 308.441ZM135.004 300.995C136.024 300.995 137.061 301.25 137.792 301.607L137.605 302.882C136.874 302.525 136.007 302.287 135.021 302.287C133.933 302.287 133.423 302.661 133.423 303.358C133.423 304.14 134.137 304.65 135.922 304.65H137.605V305.891H134.63V314H133.168V305.891H131.349V304.65C132.556 304.65 133.661 304.939 134.681 305.279L134.749 304.888C133.644 304.786 132.114 304.412 132.114 303.035C132.114 301.794 133.236 300.995 135.004 300.995ZM139.392 304.65H140.854C140.854 305.789 140.548 306.86 140.208 307.863L140.582 307.931C140.786 306.248 141.466 304.395 143.472 304.395C145.308 304.395 146.328 305.806 146.396 308.169L144.9 308.339C144.764 306.35 144.186 305.636 142.996 305.636C141.619 305.636 140.922 306.877 140.854 309.087V314H139.392V304.65ZM154.821 304.65H156.283V310.124C156.283 312.147 156.351 313.133 156.538 314H155.127C155.093 313.745 155.076 313.337 155.076 312.895C155.076 312.096 155.212 311.535 155.467 310.838L155.093 310.77C154.94 312.827 153.971 314.255 151.693 314.255C149.5 314.255 148.106 312.776 148.106 310.396V304.65H149.585L149.568 310.26C149.568 312.113 150.418 313.014 152.118 313.014C153.801 313.014 154.736 312.113 154.821 310.073V304.65ZM158.96 302.576C158.96 302.015 159.334 301.692 159.929 301.692C160.507 301.692 160.881 302.015 160.881 302.576C160.881 303.137 160.507 303.46 159.929 303.46C159.334 303.46 158.96 303.137 158.96 302.576ZM160.643 304.65V314H159.198V304.65H160.643ZM164.656 302.1H166.067C166.067 303.154 165.897 303.749 165.438 304.225C165.115 304.565 164.809 304.684 164.044 304.854L164.163 305.211C164.945 304.837 165.489 304.65 166.781 304.65H169.161V305.891H165.676V311.178C165.676 312.521 166.237 312.98 167.121 312.98C167.92 312.98 168.549 312.657 169.076 312.181L169.348 313.422C168.821 313.83 168.022 314.255 166.917 314.255C165.37 314.255 164.231 313.49 164.231 311.416V305.891H162.242V304.65H162.939C164.282 304.65 164.741 303.749 164.656 302.1ZM80.2595 342.1H81.7555V352.691H88.2835V354H80.2595V342.1ZM93.743 344.395C96.548 344.395 97.874 346.231 97.772 349.41H90.751C90.768 351.773 91.924 353.082 93.862 353.082C95.664 353.082 96.463 352.062 96.735 350.294L98.078 350.481C97.687 352.963 96.276 354.255 93.811 354.255C91.006 354.255 89.357 352.47 89.357 349.325C89.357 346.18 91.04 344.395 93.743 344.395ZM90.836 348.441H96.395C96.344 346.758 95.613 345.568 93.743 345.568C92.111 345.568 91.057 346.588 90.836 348.441ZM100.113 344.65H101.575C101.575 345.789 101.252 346.86 100.929 347.863L101.303 347.931C101.49 346.163 102.255 344.395 104.329 344.395C105.485 344.395 106.386 344.888 106.879 345.789C107.219 346.435 107.134 347.03 106.811 347.863L107.202 347.931C107.338 346.163 108.171 344.395 110.211 344.395C112.132 344.395 113.356 345.874 113.356 348.288V354H111.894V348.441C111.894 346.622 111.214 345.687 109.735 345.687C108.358 345.687 107.542 346.503 107.457 348.543L107.474 354H105.995V348.441C105.995 346.622 105.315 345.687 103.853 345.687C102.476 345.687 101.66 346.503 101.575 348.543V354H100.113V344.65ZM115.355 349.325C115.355 346.18 117.174 344.395 119.86 344.395C122.546 344.395 124.382 346.18 124.382 349.325C124.382 352.47 122.546 354.255 119.86 354.255C117.174 354.255 115.355 352.47 115.355 349.325ZM116.817 349.325C116.817 351.688 118.024 353.014 119.86 353.014C121.696 353.014 122.92 351.688 122.92 349.325C122.92 346.962 121.696 345.636 119.86 345.636C118.024 345.636 116.817 346.962 116.817 349.325ZM131.117 344.395C133.293 344.395 134.687 345.891 134.687 348.322L134.704 354H133.225V348.475C133.225 346.639 132.409 345.687 130.658 345.687C128.992 345.687 128.04 346.537 127.938 348.577V354H126.476V344.65H127.938C127.938 345.789 127.632 346.843 127.292 347.846L127.666 347.931C127.938 345.925 128.822 344.395 131.117 344.395ZM142.233 342.1H144.341L147.775 349.257C148.37 350.566 148.387 350.991 148.302 352.113H148.659C148.557 350.991 148.625 350.566 149.203 349.257L152.62 342.1H154.745V354H153.249V345.534C153.249 344.514 153.317 343.987 153.606 343.137L153.232 343.052C153.13 343.936 152.977 344.514 152.603 345.381L149.934 350.753C149.356 352.011 149.237 352.589 149.22 354H147.741C147.741 352.589 147.622 352.011 147.027 350.753L144.375 345.381C144.001 344.514 143.848 343.936 143.746 343.052L143.389 343.137C143.661 343.987 143.729 344.514 143.729 345.534V354H142.233V342.1ZM157.316 342.576C157.316 342.015 157.69 341.692 158.285 341.692C158.863 341.692 159.237 342.015 159.237 342.576C159.237 343.137 158.863 343.46 158.285 343.46C157.69 343.46 157.316 343.137 157.316 342.576ZM158.999 344.65V354H157.554V344.65H158.999ZM166.379 344.395C168.555 344.395 169.949 345.891 169.949 348.322L169.966 354H168.487V348.475C168.487 346.639 167.671 345.687 165.92 345.687C164.254 345.687 163.302 346.537 163.2 348.577V354H161.738V344.65H163.2C163.2 345.789 162.894 346.843 162.554 347.846L162.928 347.931C163.2 345.925 164.084 344.395 166.379 344.395Z" fill="#558E62"/>
<path d="M323.537 187.1H326.24V194.546H327.6V196.076H326.24V199H324.285V196.076H318.216V194.546C320.987 192.387 322.823 190.041 323.537 187.1ZM322.449 194.546H324.285V191.69C324.285 190.602 324.455 189.735 324.727 188.902L324.319 188.817C324.251 189.565 324.098 190.228 323.775 190.84C323.265 191.809 322.347 192.897 321.633 193.611C321.089 194.138 320.341 194.495 319.457 194.665L319.559 195.09C320.375 194.716 321.344 194.546 322.449 194.546ZM330.775 197.317L329.891 201.567H328.582L328.99 197.317H330.775ZM332.053 193.05C332.053 189.157 333.991 186.845 337.323 186.845C340.638 186.845 342.576 189.157 342.576 193.05C342.576 196.943 340.638 199.255 337.323 199.255C333.991 199.255 332.053 196.943 332.053 193.05ZM334.025 193.05C334.025 195.889 335.249 197.572 337.323 197.572C339.397 197.572 340.604 195.889 340.604 193.05C340.604 190.211 339.397 188.528 337.323 188.528C335.249 188.528 334.025 190.211 334.025 193.05ZM343.923 193.05C343.923 189.157 345.861 186.845 349.193 186.845C352.508 186.845 354.446 189.157 354.446 193.05C354.446 196.943 352.508 199.255 349.193 199.255C345.861 199.255 343.923 196.943 343.923 193.05ZM345.895 193.05C345.895 195.889 347.119 197.572 349.193 197.572C351.267 197.572 352.474 195.889 352.474 193.05C352.474 190.211 351.267 188.528 349.193 188.528C347.119 188.528 345.895 190.211 345.895 193.05ZM355.793 193.05C355.793 189.157 357.731 186.845 361.063 186.845C364.378 186.845 366.316 189.157 366.316 193.05C366.316 196.943 364.378 199.255 361.063 199.255C357.731 199.255 355.793 196.943 355.793 193.05ZM357.765 193.05C357.765 195.889 358.989 197.572 361.063 197.572C363.137 197.572 364.344 195.889 364.344 193.05C364.344 190.211 363.137 188.528 361.063 188.528C358.989 188.528 357.765 190.211 357.765 193.05ZM323.537 237.1H326.24V244.546H327.6V246.076H326.24V249H324.285V246.076H318.216V244.546C320.987 242.387 322.823 240.041 323.537 237.1ZM322.449 244.546H324.285V241.69C324.285 240.602 324.455 239.735 324.727 238.902L324.319 238.817C324.251 239.565 324.098 240.228 323.775 240.84C323.265 241.809 322.347 242.897 321.633 243.611C321.089 244.138 320.341 244.495 319.457 244.665L319.559 245.09C320.375 244.716 321.344 244.546 322.449 244.546ZM330.775 247.317L329.891 251.567H328.582L328.99 247.317H330.775ZM332.053 243.05C332.053 239.157 333.991 236.845 337.323 236.845C340.638 236.845 342.576 239.157 342.576 243.05C342.576 246.943 340.638 249.255 337.323 249.255C333.991 249.255 332.053 246.943 332.053 243.05ZM334.025 243.05C334.025 245.889 335.249 247.572 337.323 247.572C339.397 247.572 340.604 245.889 340.604 243.05C340.604 240.211 339.397 238.528 337.323 238.528C335.249 238.528 334.025 240.211 334.025 243.05ZM343.923 243.05C343.923 239.157 345.861 236.845 349.193 236.845C352.508 236.845 354.446 239.157 354.446 243.05C354.446 246.943 352.508 249.255 349.193 249.255C345.861 249.255 343.923 246.943 343.923 243.05ZM345.895 243.05C345.895 245.889 347.119 247.572 349.193 247.572C351.267 247.572 352.474 245.889 352.474 243.05C352.474 240.211 351.267 238.528 349.193 238.528C347.119 238.528 345.895 240.211 345.895 243.05ZM355.793 243.05C355.793 239.157 357.731 236.845 361.063 236.845C364.378 236.845 366.316 239.157 366.316 243.05C366.316 246.943 364.378 249.255 361.063 249.255C357.731 249.255 355.793 246.943 355.793 243.05ZM357.765 243.05C357.765 245.889 358.989 247.572 361.063 247.572C363.137 247.572 364.344 245.889 364.344 243.05C364.344 240.211 363.137 238.528 361.063 238.528C358.989 238.528 357.765 240.211 357.765 243.05ZM323.537 287.1H326.24V294.546H327.6V296.076H326.24V299H324.285V296.076H318.216V294.546C320.987 292.387 322.823 290.041 323.537 287.1ZM322.449 294.546H324.285V291.69C324.285 290.602 324.455 289.735 324.727 288.902L324.319 288.817C324.251 289.565 324.098 290.228 323.775 290.84C323.265 291.809 322.347 292.897 321.633 293.611C321.089 294.138 320.341 294.495 319.457 294.665L319.559 295.09C320.375 294.716 321.344 294.546 322.449 294.546ZM330.775 297.317L329.891 301.567H328.582L328.99 297.317H330.775ZM332.053 293.05C332.053 289.157 333.991 286.845 337.323 286.845C340.638 286.845 342.576 289.157 342.576 293.05C342.576 296.943 340.638 299.255 337.323 299.255C333.991 299.255 332.053 296.943 332.053 293.05ZM334.025 293.05C334.025 295.889 335.249 297.572 337.323 297.572C339.397 297.572 340.604 295.889 340.604 293.05C340.604 290.211 339.397 288.528 337.323 288.528C335.249 288.528 334.025 290.211 334.025 293.05ZM343.923 293.05C343.923 289.157 345.861 286.845 349.193 286.845C352.508 286.845 354.446 289.157 354.446 293.05C354.446 296.943 352.508 299.255 349.193 299.255C345.861 299.255 343.923 296.943 343.923 293.05ZM345.895 293.05C345.895 295.889 347.119 297.572 349.193 297.572C351.267 297.572 352.474 295.889 352.474 293.05C352.474 290.211 351.267 288.528 349.193 288.528C347.119 288.528 345.895 290.211 345.895 293.05ZM355.793 293.05C355.793 289.157 357.731 286.845 361.063 286.845C364.378 286.845 366.316 289.157 366.316 293.05C366.316 296.943 364.378 299.255 361.063 299.255C357.731 299.255 355.793 296.943 355.793 293.05ZM357.765 293.05C357.765 295.889 358.989 297.572 361.063 297.572C363.137 297.572 364.344 295.889 364.344 293.05C364.344 290.211 363.137 288.528 361.063 288.528C358.989 288.528 357.765 290.211 357.765 293.05ZM323.537 337.1H326.24V344.546H327.6V346.076H326.24V349H324.285V346.076H318.216V344.546C320.987 342.387 322.823 340.041 323.537 337.1ZM322.449 344.546H324.285V341.69C324.285 340.602 324.455 339.735 324.727 338.902L324.319 338.817C324.251 339.565 324.098 340.228 323.775 340.84C323.265 341.809 322.347 342.897 321.633 343.611C321.089 344.138 320.341 344.495 319.457 344.665L319.559 345.09C320.375 344.716 321.344 344.546 322.449 344.546ZM330.775 347.317L329.891 351.567H328.582L328.99 347.317H330.775ZM332.053 343.05C332.053 339.157 333.991 336.845 337.323 336.845C340.638 336.845 342.576 339.157 342.576 343.05C342.576 346.943 340.638 349.255 337.323 349.255C333.991 349.255 332.053 346.943 332.053 343.05ZM334.025 343.05C334.025 345.889 335.249 347.572 337.323 347.572C339.397 347.572 340.604 345.889 340.604 343.05C340.604 340.211 339.397 338.528 337.323 338.528C335.249 338.528 334.025 340.211 334.025 343.05ZM343.923 343.05C343.923 339.157 345.861 336.845 349.193 336.845C352.508 336.845 354.446 339.157 354.446 343.05C354.446 346.943 352.508 349.255 349.193 349.255C345.861 349.255 343.923 346.943 343.923 343.05ZM345.895 343.05C345.895 345.889 347.119 347.572 349.193 347.572C351.267 347.572 352.474 345.889 352.474 343.05C352.474 340.211 351.267 338.528 349.193 338.528C347.119 338.528 345.895 340.211 345.895 343.05ZM355.793 343.05C355.793 339.157 357.731 336.845 361.063 336.845C364.378 336.845 366.316 339.157 366.316 343.05C366.316 346.943 364.378 349.255 361.063 349.255C357.731 349.255 355.793 346.943 355.793 343.05ZM357.765 343.05C357.765 345.889 358.989 347.572 361.063 347.572C363.137 347.572 364.344 345.889 364.344 343.05C364.344 340.211 363.137 338.528 361.063 338.528C358.989 338.528 357.765 340.211 357.765 343.05Z" fill="#558E62"/>
</g>
<defs>
<clipPath id="clip0_234_594">
<rect width="440" height="370" fill="white"/>
</clipPath>
</defs>
</svg>
