<svg width="440" height="331" viewBox="0 0 440 331" fill="none" xmlns="http://www.w3.org/2000/svg">
<g clip-path="url(#clip0_234_594)">
<rect width="440" height="331" fill="white"/>
<path d="M-30 -11H470V5980H-30V-11Z" fill="#FFFDCA" fill-opacity="0.64"/>
<rect x="-29" y="-22" width="487" height="5977" fill="#F2E8DE" fill-opacity="0.61"/>
<path d="M171.479 90.569C174.948 89.279 176.682 85.9393 176.682 80.55V53.675H185.282V80.636C185.282 82.2127 184.981 83.7177 184.379 85.151C183.806 86.5557 182.974 87.817 181.885 88.935C180.824 90.0817 179.549 91.042 178.058 91.816C176.567 92.59 174.919 93.1347 173.113 93.45L171.479 90.569ZM203.367 84.506C202.335 85.4233 201.16 86.14 199.841 86.656C198.523 87.172 197.118 87.43 195.627 87.43C194.395 87.43 193.277 87.258 192.273 86.914C191.27 86.5413 190.41 86.0397 189.693 85.409C188.977 84.7497 188.418 83.9613 188.016 83.044C187.615 82.1267 187.414 81.109 187.414 79.991V63.565H195.584V78.056C195.584 79.518 195.785 80.6647 196.186 81.496C196.616 82.2987 197.333 82.7 198.336 82.7C199.598 82.7 200.644 82.0693 201.475 80.808C202.307 79.5467 202.722 77.6977 202.722 75.261V63.565H210.892V87H207.022L203.367 84.506ZM213.245 63.565H221.415V87H213.245V63.565ZM213.03 57.545C213.03 56.341 213.445 55.3233 214.277 54.492C215.108 53.6607 216.126 53.245 217.33 53.245C218.534 53.245 219.551 53.6607 220.383 54.492C221.214 55.3233 221.63 56.341 221.63 57.545C221.63 58.749 221.214 59.7667 220.383 60.598C219.551 61.4293 218.534 61.845 217.33 61.845C216.126 61.845 215.108 61.4293 214.277 60.598C213.445 59.7667 213.03 58.749 213.03 57.545ZM245.634 80.421C244.774 82.6283 243.426 84.3483 241.592 85.581C239.757 86.8137 237.578 87.43 235.056 87.43C233.307 87.43 231.687 87.129 230.197 86.527C228.706 85.925 227.416 85.0937 226.327 84.033C225.266 82.9437 224.435 81.6537 223.833 80.163C223.231 78.6437 222.93 76.981 222.93 75.175C222.93 73.369 223.231 71.735 223.833 70.273C224.435 68.7823 225.28 67.521 226.37 66.489C227.459 65.4283 228.763 64.6113 230.283 64.038C231.831 63.436 233.551 63.135 235.443 63.135C236.991 63.135 238.582 63.3357 240.216 63.737C241.878 64.1383 243.555 64.7117 245.247 65.457L243.527 74.057H243.097C242.638 73.2543 242.007 72.466 241.205 71.692C240.402 70.8893 239.542 70.1727 238.625 69.542C237.736 68.9113 236.833 68.4097 235.916 68.037C234.998 67.6357 234.196 67.435 233.508 67.435C232.59 67.435 231.888 67.7933 231.401 68.51C230.913 69.2267 230.67 70.2587 230.67 71.606C230.67 73.0107 230.928 74.401 231.444 75.777C231.96 77.153 232.633 78.3857 233.465 79.475C234.296 80.5643 235.228 81.453 236.26 82.141C237.292 82.8003 238.338 83.13 239.399 83.13C241.147 83.13 242.509 82.227 243.484 80.421H245.634ZM268.981 80.421C268.093 82.657 266.731 84.3913 264.896 85.624C263.062 86.828 260.883 87.43 258.36 87.43C256.612 87.43 254.992 87.129 253.501 86.527C252.039 85.925 250.764 85.0937 249.674 84.033C248.614 82.9723 247.782 81.711 247.18 80.249C246.578 78.7583 246.277 77.1387 246.277 75.39C246.277 71.52 247.281 68.51 249.287 66.36C251.323 64.21 254.175 63.135 257.844 63.135C261.428 63.135 264.194 64.167 266.143 66.231C268.121 68.295 269.11 71.2047 269.11 74.96L268.895 75.347L256.339 78.873C257.171 80.1343 258.145 81.1663 259.263 81.969C260.41 82.743 261.571 83.13 262.746 83.13C264.495 83.13 265.857 82.227 266.831 80.421H268.981ZM261.37 73.842C261.313 73.068 261.127 72.3083 260.811 71.563C260.496 70.789 260.095 70.101 259.607 69.499C259.149 68.8683 258.633 68.3667 258.059 67.994C257.515 67.6213 256.97 67.435 256.425 67.435C255.68 67.435 255.092 67.8077 254.662 68.553C254.232 69.2697 254.017 70.273 254.017 71.563C254.017 73.111 254.333 74.6733 254.963 76.25L261.37 73.842Z" fill="#558E62"/>
<path d="M79.6135 136.05C79.6135 132.157 81.6705 129.845 85.1725 129.845C88.6745 129.845 90.7315 132.157 90.7315 136.05C90.7315 139.943 88.6745 142.255 85.1725 142.255C81.6705 142.255 79.6135 139.943 79.6135 136.05ZM81.1095 136.05C81.1095 139.127 82.6055 140.946 85.1725 140.946C87.7395 140.946 89.2355 139.127 89.2355 136.05C89.2355 132.973 87.7395 131.137 85.1725 131.137C82.6055 131.137 81.1095 132.973 81.1095 136.05ZM92.8913 132.65H94.3533C94.3533 133.789 94.0473 134.86 93.7073 135.863L94.0813 135.931C94.2853 134.248 94.9653 132.395 96.9713 132.395C98.8073 132.395 99.8273 133.806 99.8953 136.169L98.3993 136.339C98.2633 134.35 97.6853 133.636 96.4953 133.636C95.1183 133.636 94.4213 134.877 94.3533 137.087V142H92.8913V132.65ZM105.044 132.395C107.22 132.395 108.563 133.466 108.563 135.54V138.124C108.563 140.147 108.631 141.133 108.818 142H107.441C107.407 141.728 107.373 141.32 107.356 140.878C107.356 139.977 107.509 139.399 107.747 138.719L107.356 138.651C107.254 140.878 106.438 142.255 103.939 142.255C102.035 142.255 100.828 141.201 100.828 139.756C100.828 138.141 101.865 137.223 104.415 136.815L107.186 136.39V135.71C107.186 134.299 106.506 133.585 105.027 133.585C103.497 133.585 102.817 134.401 102.613 135.404L101.253 135.2C101.678 133.381 102.987 132.395 105.044 132.395ZM104.619 137.801C102.97 138.056 102.29 138.634 102.29 139.603C102.29 140.436 102.919 141.048 104.245 141.048C106.421 141.048 106.982 139.909 107.186 138.175V137.41L104.619 137.801ZM116.043 132.395C118.219 132.395 119.613 133.891 119.613 136.322L119.63 142H118.151V136.475C118.151 134.639 117.335 133.687 115.584 133.687C113.918 133.687 112.966 134.537 112.864 136.577V142H111.402V132.65H112.864C112.864 133.789 112.558 134.843 112.218 135.846L112.592 135.931C112.864 133.925 113.748 132.395 116.043 132.395ZM125.778 132.65C128.702 132.65 129.501 132.48 130.521 132.14L130.708 133.364C130.181 133.466 129.705 133.534 129.246 133.534C128.634 133.534 128.022 133.415 127.291 133.126L127.189 133.517C128.804 133.772 129.807 134.367 129.807 135.982C129.807 137.393 128.991 138.362 127.359 139.11C126.764 139.399 125.455 139.824 124.469 139.943L124.554 140.334C125.353 140.045 126.118 139.909 127.138 139.909C129.569 139.926 130.793 140.759 130.793 142.34C130.793 144.04 129.535 145.315 126.39 145.315C123.653 145.315 121.885 144.159 121.545 142.34L122.939 142.119C123.177 143.173 124.18 144.159 126.424 144.159C128.566 144.159 129.382 143.343 129.382 142.289C129.382 141.303 128.668 140.793 126.509 140.793L122.157 140.776V139.722C123.211 139.722 123.891 139.671 125.098 139.229C125.795 138.991 126.509 138.804 127.121 138.702L127.053 138.328C126.509 138.583 125.846 138.804 124.928 138.719C122.905 138.532 121.732 137.546 121.732 135.812C121.732 133.84 123.296 132.65 125.778 132.65ZM123.194 135.897C123.194 137.223 124.146 137.971 125.778 137.971C127.342 137.971 128.379 137.223 128.379 135.897C128.379 134.554 127.342 133.806 125.778 133.806C124.214 133.806 123.194 134.554 123.194 135.897ZM136.392 132.395C139.197 132.395 140.523 134.231 140.421 137.41H133.4C133.417 139.773 134.573 141.082 136.511 141.082C138.313 141.082 139.112 140.062 139.384 138.294L140.727 138.481C140.336 140.963 138.925 142.255 136.46 142.255C133.655 142.255 132.006 140.47 132.006 137.325C132.006 134.18 133.689 132.395 136.392 132.395ZM133.485 136.441H139.044C138.993 134.758 138.262 133.568 136.392 133.568C134.76 133.568 133.706 134.588 133.485 136.441ZM79.6135 176.05C79.6135 172.157 81.6705 169.845 85.1725 169.845C88.6745 169.845 90.7315 172.157 90.7315 176.05C90.7315 179.943 88.6745 182.255 85.1725 182.255C81.6705 182.255 79.6135 179.943 79.6135 176.05ZM81.1095 176.05C81.1095 179.127 82.6055 180.946 85.1725 180.946C87.7395 180.946 89.2355 179.127 89.2355 176.05C89.2355 172.973 87.7395 171.137 85.1725 171.137C82.6055 171.137 81.1095 172.973 81.1095 176.05ZM92.8913 172.65H94.3533C94.3533 173.789 94.0473 174.86 93.7073 175.863L94.0813 175.931C94.2853 174.248 94.9653 172.395 96.9713 172.395C98.8073 172.395 99.8273 173.806 99.8953 176.169L98.3993 176.339C98.2633 174.35 97.6853 173.636 96.4953 173.636C95.1183 173.636 94.4213 174.877 94.3533 177.087V182H92.8913V172.65ZM105.044 172.395C107.22 172.395 108.563 173.466 108.563 175.54V178.124C108.563 180.147 108.631 181.133 108.818 182H107.441C107.407 181.728 107.373 181.32 107.356 180.878C107.356 179.977 107.509 179.399 107.747 178.719L107.356 178.651C107.254 180.878 106.438 182.255 103.939 182.255C102.035 182.255 100.828 181.201 100.828 179.756C100.828 178.141 101.865 177.223 104.415 176.815L107.186 176.39V175.71C107.186 174.299 106.506 173.585 105.027 173.585C103.497 173.585 102.817 174.401 102.613 175.404L101.253 175.2C101.678 173.381 102.987 172.395 105.044 172.395ZM104.619 177.801C102.97 178.056 102.29 178.634 102.29 179.603C102.29 180.436 102.919 181.048 104.245 181.048C106.421 181.048 106.982 179.909 107.186 178.175V177.41L104.619 177.801ZM116.043 172.395C118.219 172.395 119.613 173.891 119.613 176.322L119.63 182H118.151V176.475C118.151 174.639 117.335 173.687 115.584 173.687C113.918 173.687 112.966 174.537 112.864 176.577V182H111.402V172.65H112.864C112.864 173.789 112.558 174.843 112.218 175.846L112.592 175.931C112.864 173.925 113.748 172.395 116.043 172.395ZM125.778 172.65C128.702 172.65 129.501 172.48 130.521 172.14L130.708 173.364C130.181 173.466 129.705 173.534 129.246 173.534C128.634 173.534 128.022 173.415 127.291 173.126L127.189 173.517C128.804 173.772 129.807 174.367 129.807 175.982C129.807 177.393 128.991 178.362 127.359 179.11C126.764 179.399 125.455 179.824 124.469 179.943L124.554 180.334C125.353 180.045 126.118 179.909 127.138 179.909C129.569 179.926 130.793 180.759 130.793 182.34C130.793 184.04 129.535 185.315 126.39 185.315C123.653 185.315 121.885 184.159 121.545 182.34L122.939 182.119C123.177 183.173 124.18 184.159 126.424 184.159C128.566 184.159 129.382 183.343 129.382 182.289C129.382 181.303 128.668 180.793 126.509 180.793L122.157 180.776V179.722C123.211 179.722 123.891 179.671 125.098 179.229C125.795 178.991 126.509 178.804 127.121 178.702L127.053 178.328C126.509 178.583 125.846 178.804 124.928 178.719C122.905 178.532 121.732 177.546 121.732 175.812C121.732 173.84 123.296 172.65 125.778 172.65ZM123.194 175.897C123.194 177.223 124.146 177.971 125.778 177.971C127.342 177.971 128.379 177.223 128.379 175.897C128.379 174.554 127.342 173.806 125.778 173.806C124.214 173.806 123.194 174.554 123.194 175.897ZM136.392 172.395C139.197 172.395 140.523 174.231 140.421 177.41H133.4C133.417 179.773 134.573 181.082 136.511 181.082C138.313 181.082 139.112 180.062 139.384 178.294L140.727 178.481C140.336 180.963 138.925 182.255 136.46 182.255C133.655 182.255 132.006 180.47 132.006 177.325C132.006 174.18 133.689 172.395 136.392 172.395ZM133.485 176.441H139.044C138.993 174.758 138.262 173.568 136.392 173.568C134.76 173.568 133.706 174.588 133.485 176.441ZM151.147 172.395C153.323 172.395 154.666 173.466 154.666 175.54V178.124C154.666 180.147 154.734 181.133 154.921 182H153.544C153.51 181.728 153.476 181.32 153.459 180.878C153.459 179.977 153.612 179.399 153.85 178.719L153.459 178.651C153.357 180.878 152.541 182.255 150.042 182.255C148.138 182.255 146.931 181.201 146.931 179.756C146.931 178.141 147.968 177.223 150.518 176.815L153.289 176.39V175.71C153.289 174.299 152.609 173.585 151.13 173.585C149.6 173.585 148.92 174.401 148.716 175.404L147.356 175.2C147.781 173.381 149.09 172.395 151.147 172.395ZM150.722 177.801C149.073 178.056 148.393 178.634 148.393 179.603C148.393 180.436 149.022 181.048 150.348 181.048C152.524 181.048 153.085 179.909 153.289 178.175V177.41L150.722 177.801ZM162.146 172.395C164.322 172.395 165.716 173.891 165.716 176.322L165.733 182H164.254V176.475C164.254 174.639 163.438 173.687 161.687 173.687C160.021 173.687 159.069 174.537 158.967 176.577V182H157.505V172.65H158.967C158.967 173.789 158.661 174.843 158.321 175.846L158.695 175.931C158.967 173.925 159.851 172.395 162.146 172.395ZM171.745 172.395C174.108 172.395 175.094 174.282 175.298 176.356L175.672 176.271C175.298 175.115 175.043 173.959 175.043 172.65V169.25H176.505V177.971C176.505 180.011 176.59 181.116 176.794 182H175.349C175.315 181.66 175.264 181.252 175.264 180.742C175.247 179.722 175.417 179.076 175.672 178.362L175.298 178.294C175.094 180.368 174.108 182.255 171.745 182.255C169.416 182.255 167.733 180.47 167.733 177.325C167.733 174.18 169.416 172.395 171.745 172.395ZM175.06 177.325C175.06 174.962 173.887 173.636 172.119 173.636C170.351 173.636 169.195 174.962 169.195 177.325C169.195 179.688 170.351 181.014 172.119 181.014C173.887 181.014 175.06 179.688 175.06 177.325ZM183.689 176.05C183.689 172.157 185.61 169.845 188.976 169.845C191.781 169.845 193.481 171.358 193.787 173.84L192.291 174.01C191.968 172.021 190.999 171.137 188.959 171.137C186.528 171.137 185.185 172.973 185.185 176.067C185.185 179.127 186.613 180.946 189.231 180.946C191.56 180.946 192.801 179.739 192.92 177.07L194.416 177.24C194.229 180.453 192.342 182.255 189.231 182.255C185.644 182.255 183.689 179.943 183.689 176.05ZM200.072 172.395C202.248 172.395 203.591 173.466 203.591 175.54V178.124C203.591 180.147 203.659 181.133 203.846 182H202.469C202.435 181.728 202.401 181.32 202.384 180.878C202.384 179.977 202.537 179.399 202.775 178.719L202.384 178.651C202.282 180.878 201.466 182.255 198.967 182.255C197.063 182.255 195.856 181.201 195.856 179.756C195.856 178.141 196.893 177.223 199.443 176.815L202.214 176.39V175.71C202.214 174.299 201.534 173.585 200.055 173.585C198.525 173.585 197.845 174.401 197.641 175.404L196.281 175.2C196.706 173.381 198.015 172.395 200.072 172.395ZM199.647 177.801C197.998 178.056 197.318 178.634 197.318 179.603C197.318 180.436 197.947 181.048 199.273 181.048C201.449 181.048 202.01 179.909 202.214 178.175V177.41L199.647 177.801ZM206.429 172.65H207.891C207.891 173.789 207.585 174.86 207.245 175.863L207.619 175.931C207.823 174.248 208.503 172.395 210.509 172.395C212.345 172.395 213.365 173.806 213.433 176.169L211.937 176.339C211.801 174.35 211.223 173.636 210.033 173.636C208.656 173.636 207.959 174.877 207.891 177.087V182H206.429V172.65ZM215.228 172.65H216.69C216.69 173.789 216.384 174.86 216.044 175.863L216.418 175.931C216.622 174.248 217.302 172.395 219.308 172.395C221.144 172.395 222.164 173.806 222.232 176.169L220.736 176.339C220.6 174.35 220.022 173.636 218.832 173.636C217.455 173.636 216.758 174.877 216.69 177.087V182H215.228V172.65ZM223.398 177.325C223.398 174.18 225.217 172.395 227.903 172.395C230.589 172.395 232.425 174.18 232.425 177.325C232.425 180.47 230.589 182.255 227.903 182.255C225.217 182.255 223.398 180.47 223.398 177.325ZM224.86 177.325C224.86 179.688 226.067 181.014 227.903 181.014C229.739 181.014 230.963 179.688 230.963 177.325C230.963 174.962 229.739 173.636 227.903 173.636C226.067 173.636 224.86 174.962 224.86 177.325ZM235.661 170.1H237.072C237.072 171.154 236.902 171.749 236.443 172.225C236.12 172.565 235.814 172.684 235.049 172.854L235.168 173.211C235.95 172.837 236.494 172.65 237.786 172.65H240.166V173.891H236.681V179.178C236.681 180.521 237.242 180.98 238.126 180.98C238.925 180.98 239.554 180.657 240.081 180.181L240.353 181.422C239.826 181.83 239.027 182.255 237.922 182.255C236.375 182.255 235.236 181.49 235.236 179.416V173.891H233.247V172.65H233.944C235.287 172.65 235.746 171.749 235.661 170.1ZM84.8835 209.845C87.6715 209.845 89.3375 211.307 89.6435 213.806L88.1475 213.959C87.8245 211.936 86.8895 211.086 84.8835 211.086C82.4185 211.086 81.1095 212.922 81.1095 216.05C81.1095 219.178 82.5205 221.031 85.0365 221.031C87.4165 221.031 88.5045 219.688 88.6065 216.679H83.6765V215.455H90.3575V218.26C90.3575 220.164 90.4255 220.929 90.6295 222H89.0485C88.9805 221.643 88.9295 221.116 88.9125 220.521C88.8955 219.637 89.1335 218.702 89.3885 217.886L89.0145 217.818C88.9465 218.651 88.7765 219.739 88.3515 220.47C87.7225 221.592 86.5325 222.255 84.8665 222.255C81.5345 222.255 79.6135 219.943 79.6135 216.05C79.6135 212.157 81.4835 209.845 84.8835 209.845ZM92.9577 212.65H94.4197C94.4197 213.789 94.1137 214.86 93.7737 215.863L94.1477 215.931C94.3517 214.248 95.0317 212.395 97.0377 212.395C98.8737 212.395 99.8937 213.806 99.9617 216.169L98.4657 216.339C98.3297 214.35 97.7517 213.636 96.5617 213.636C95.1847 213.636 94.4877 214.877 94.4197 217.087V222H92.9577V212.65ZM105.513 212.395C108.318 212.395 109.644 214.231 109.542 217.41H102.521C102.538 219.773 103.694 221.082 105.632 221.082C107.434 221.082 108.233 220.062 108.505 218.294L109.848 218.481C109.457 220.963 108.046 222.255 105.581 222.255C102.776 222.255 101.127 220.47 101.127 217.325C101.127 214.18 102.81 212.395 105.513 212.395ZM102.606 216.441H108.165C108.114 214.758 107.383 213.568 105.513 213.568C103.881 213.568 102.827 214.588 102.606 216.441ZM115.64 212.395C118.445 212.395 119.771 214.231 119.669 217.41H112.648C112.665 219.773 113.821 221.082 115.759 221.082C117.561 221.082 118.36 220.062 118.632 218.294L119.975 218.481C119.584 220.963 118.173 222.255 115.708 222.255C112.903 222.255 111.254 220.47 111.254 217.325C111.254 214.18 112.937 212.395 115.64 212.395ZM112.733 216.441H118.292C118.241 214.758 117.51 213.568 115.64 213.568C114.008 213.568 112.954 214.588 112.733 216.441ZM126.651 212.395C128.827 212.395 130.221 213.891 130.221 216.322L130.238 222H128.759V216.475C128.759 214.639 127.943 213.687 126.192 213.687C124.526 213.687 123.574 214.537 123.472 216.577V222H122.01V212.65H123.472C123.472 213.789 123.166 214.843 122.826 215.846L123.2 215.931C123.472 213.925 124.356 212.395 126.651 212.395ZM141.218 210.1H142.867L147.457 222H145.927L144.584 218.515H139.484L138.158 222H136.628L141.218 210.1ZM139.926 217.24H144.159L142.663 213.449C142.204 212.208 142.153 211.8 142.221 210.831H141.847C141.915 211.8 141.864 212.242 141.422 213.449L139.926 217.24ZM153.897 212.395C156.226 212.395 157.926 214.18 157.926 217.325C157.926 220.47 156.226 222.255 153.897 222.255C151.534 222.255 150.548 220.368 150.344 218.294L149.97 218.362C150.344 219.535 150.599 220.691 150.599 222V225.06H149.137V212.65H150.667C150.599 213.959 150.327 215.115 149.97 216.288L150.344 216.356C150.548 214.282 151.534 212.395 153.897 212.395ZM150.582 217.325C150.582 219.688 151.755 221.014 153.523 221.014C155.291 221.014 156.464 219.688 156.464 217.325C156.464 214.962 155.291 213.636 153.523 213.636C151.755 213.636 150.582 214.962 150.582 217.325ZM164.771 212.395C167.1 212.395 168.8 214.18 168.8 217.325C168.8 220.47 167.1 222.255 164.771 222.255C162.408 222.255 161.422 220.368 161.218 218.294L160.844 218.362C161.218 219.535 161.473 220.691 161.473 222V225.06H160.011V212.65H161.541C161.473 213.959 161.201 215.115 160.844 216.288L161.218 216.356C161.422 214.282 162.408 212.395 164.771 212.395ZM161.456 217.325C161.456 219.688 162.629 221.014 164.397 221.014C166.165 221.014 167.338 219.688 167.338 217.325C167.338 214.962 166.165 213.636 164.397 213.636C162.629 213.636 161.456 214.962 161.456 217.325ZM171.004 209.25H172.449L172.347 218.192C172.33 219.552 172.364 220.657 172.585 222H171.14C170.936 220.81 170.885 219.756 170.902 218.43L171.004 209.25ZM178.975 212.395C181.78 212.395 183.106 214.231 183.004 217.41H175.983C176 219.773 177.156 221.082 179.094 221.082C180.896 221.082 181.695 220.062 181.967 218.294L183.31 218.481C182.919 220.963 181.508 222.255 179.043 222.255C176.238 222.255 174.589 220.47 174.589 217.325C174.589 214.18 176.272 212.395 178.975 212.395ZM176.068 216.441H181.627C181.576 214.758 180.845 213.568 178.975 213.568C177.343 213.568 176.289 214.588 176.068 216.441ZM84.8835 249.845C87.6715 249.845 89.3375 251.307 89.6435 253.806L88.1475 253.959C87.8245 251.936 86.8895 251.086 84.8835 251.086C82.4185 251.086 81.1095 252.922 81.1095 256.05C81.1095 259.178 82.5205 261.031 85.0365 261.031C87.4165 261.031 88.5045 259.688 88.6065 256.679H83.6765V255.455H90.3575V258.26C90.3575 260.164 90.4255 260.929 90.6295 262H89.0485C88.9805 261.643 88.9295 261.116 88.9125 260.521C88.8955 259.637 89.1335 258.702 89.3885 257.886L89.0145 257.818C88.9465 258.651 88.7765 259.739 88.3515 260.47C87.7225 261.592 86.5325 262.255 84.8665 262.255C81.5345 262.255 79.6135 259.943 79.6135 256.05C79.6135 252.157 81.4835 249.845 84.8835 249.845ZM92.9577 252.65H94.4197C94.4197 253.789 94.1137 254.86 93.7737 255.863L94.1477 255.931C94.3517 254.248 95.0317 252.395 97.0377 252.395C98.8737 252.395 99.8937 253.806 99.9617 256.169L98.4657 256.339C98.3297 254.35 97.7517 253.636 96.5617 253.636C95.1847 253.636 94.4877 254.877 94.4197 257.087V262H92.9577V252.65ZM105.111 252.395C107.287 252.395 108.63 253.466 108.63 255.54V258.124C108.63 260.147 108.698 261.133 108.885 262H107.508C107.474 261.728 107.44 261.32 107.423 260.878C107.423 259.977 107.576 259.399 107.814 258.719L107.423 258.651C107.321 260.878 106.505 262.255 104.006 262.255C102.102 262.255 100.895 261.201 100.895 259.756C100.895 258.141 101.932 257.223 104.482 256.815L107.253 256.39V255.71C107.253 254.299 106.573 253.585 105.094 253.585C103.564 253.585 102.884 254.401 102.68 255.404L101.32 255.2C101.745 253.381 103.054 252.395 105.111 252.395ZM104.686 257.801C103.037 258.056 102.357 258.634 102.357 259.603C102.357 260.436 102.986 261.048 104.312 261.048C106.488 261.048 107.049 259.909 107.253 258.175V257.41L104.686 257.801ZM116.228 252.395C118.557 252.395 120.257 254.18 120.257 257.325C120.257 260.47 118.557 262.255 116.228 262.255C113.865 262.255 112.879 260.368 112.675 258.294L112.301 258.362C112.675 259.535 112.93 260.691 112.93 262V265.06H111.468V252.65H112.998C112.93 253.959 112.658 255.115 112.301 256.288L112.675 256.356C112.879 254.282 113.865 252.395 116.228 252.395ZM112.913 257.325C112.913 259.688 114.086 261.014 115.854 261.014C117.622 261.014 118.795 259.688 118.795 257.325C118.795 254.962 117.622 253.636 115.854 253.636C114.086 253.636 112.913 254.962 112.913 257.325ZM126.099 252.395C128.904 252.395 130.23 254.231 130.128 257.41H123.107C123.124 259.773 124.28 261.082 126.218 261.082C128.02 261.082 128.819 260.062 129.091 258.294L130.434 258.481C130.043 260.963 128.632 262.255 126.167 262.255C123.362 262.255 121.713 260.47 121.713 257.325C121.713 254.18 123.396 252.395 126.099 252.395ZM123.192 256.441H128.751C128.7 254.758 127.969 253.568 126.099 253.568C124.467 253.568 123.413 254.588 123.192 256.441ZM135.004 248.995C136.024 248.995 137.061 249.25 137.792 249.607L137.605 250.882C136.874 250.525 136.007 250.287 135.021 250.287C133.933 250.287 133.423 250.661 133.423 251.358C133.423 252.14 134.137 252.65 135.922 252.65H137.605V253.891H134.63V262H133.168V253.891H131.349V252.65C132.556 252.65 133.661 252.939 134.681 253.279L134.749 252.888C133.644 252.786 132.114 252.412 132.114 251.035C132.114 249.794 133.236 248.995 135.004 248.995ZM139.392 252.65H140.854C140.854 253.789 140.548 254.86 140.208 255.863L140.582 255.931C140.786 254.248 141.466 252.395 143.472 252.395C145.308 252.395 146.328 253.806 146.396 256.169L144.9 256.339C144.764 254.35 144.186 253.636 142.996 253.636C141.619 253.636 140.922 254.877 140.854 257.087V262H139.392V252.65ZM154.821 252.65H156.283V258.124C156.283 260.147 156.351 261.133 156.538 262H155.127C155.093 261.745 155.076 261.337 155.076 260.895C155.076 260.096 155.212 259.535 155.467 258.838L155.093 258.77C154.94 260.827 153.971 262.255 151.693 262.255C149.5 262.255 148.106 260.776 148.106 258.396V252.65H149.585L149.568 258.26C149.568 260.113 150.418 261.014 152.118 261.014C153.801 261.014 154.736 260.113 154.821 258.073V252.65ZM158.96 250.576C158.96 250.015 159.334 249.692 159.929 249.692C160.507 249.692 160.881 250.015 160.881 250.576C160.881 251.137 160.507 251.46 159.929 251.46C159.334 251.46 158.96 251.137 158.96 250.576ZM160.643 252.65V262H159.198V252.65H160.643ZM164.656 250.1H166.067C166.067 251.154 165.897 251.749 165.438 252.225C165.115 252.565 164.809 252.684 164.044 252.854L164.163 253.211C164.945 252.837 165.489 252.65 166.781 252.65H169.161V253.891H165.676V259.178C165.676 260.521 166.237 260.98 167.121 260.98C167.92 260.98 168.549 260.657 169.076 260.181L169.348 261.422C168.821 261.83 168.022 262.255 166.917 262.255C165.37 262.255 164.231 261.49 164.231 259.416V253.891H162.242V252.65H162.939C164.282 252.65 164.741 251.749 164.656 250.1ZM80.2595 290.1H81.7555V300.691H88.2835V302H80.2595V290.1ZM93.743 292.395C96.548 292.395 97.874 294.231 97.772 297.41H90.751C90.768 299.773 91.924 301.082 93.862 301.082C95.664 301.082 96.463 300.062 96.735 298.294L98.078 298.481C97.687 300.963 96.276 302.255 93.811 302.255C91.006 302.255 89.357 300.47 89.357 297.325C89.357 294.18 91.04 292.395 93.743 292.395ZM90.836 296.441H96.395C96.344 294.758 95.613 293.568 93.743 293.568C92.111 293.568 91.057 294.588 90.836 296.441ZM100.113 292.65H101.575C101.575 293.789 101.252 294.86 100.929 295.863L101.303 295.931C101.49 294.163 102.255 292.395 104.329 292.395C105.485 292.395 106.386 292.888 106.879 293.789C107.219 294.435 107.134 295.03 106.811 295.863L107.202 295.931C107.338 294.163 108.171 292.395 110.211 292.395C112.132 292.395 113.356 293.874 113.356 296.288V302H111.894V296.441C111.894 294.622 111.214 293.687 109.735 293.687C108.358 293.687 107.542 294.503 107.457 296.543L107.474 302H105.995V296.441C105.995 294.622 105.315 293.687 103.853 293.687C102.476 293.687 101.66 294.503 101.575 296.543V302H100.113V292.65ZM115.355 297.325C115.355 294.18 117.174 292.395 119.86 292.395C122.546 292.395 124.382 294.18 124.382 297.325C124.382 300.47 122.546 302.255 119.86 302.255C117.174 302.255 115.355 300.47 115.355 297.325ZM116.817 297.325C116.817 299.688 118.024 301.014 119.86 301.014C121.696 301.014 122.92 299.688 122.92 297.325C122.92 294.962 121.696 293.636 119.86 293.636C118.024 293.636 116.817 294.962 116.817 297.325ZM131.117 292.395C133.293 292.395 134.687 293.891 134.687 296.322L134.704 302H133.225V296.475C133.225 294.639 132.409 293.687 130.658 293.687C128.992 293.687 128.04 294.537 127.938 296.577V302H126.476V292.65H127.938C127.938 293.789 127.632 294.843 127.292 295.846L127.666 295.931C127.938 293.925 128.822 292.395 131.117 292.395ZM142.233 290.1H144.341L147.775 297.257C148.37 298.566 148.387 298.991 148.302 300.113H148.659C148.557 298.991 148.625 298.566 149.203 297.257L152.62 290.1H154.745V302H153.249V293.534C153.249 292.514 153.317 291.987 153.606 291.137L153.232 291.052C153.13 291.936 152.977 292.514 152.603 293.381L149.934 298.753C149.356 300.011 149.237 300.589 149.22 302H147.741C147.741 300.589 147.622 300.011 147.027 298.753L144.375 293.381C144.001 292.514 143.848 291.936 143.746 291.052L143.389 291.137C143.661 291.987 143.729 292.514 143.729 293.534V302H142.233V290.1ZM157.316 290.576C157.316 290.015 157.69 289.692 158.285 289.692C158.863 289.692 159.237 290.015 159.237 290.576C159.237 291.137 158.863 291.46 158.285 291.46C157.69 291.46 157.316 291.137 157.316 290.576ZM158.999 292.65V302H157.554V292.65H158.999ZM166.379 292.395C168.555 292.395 169.949 293.891 169.949 296.322L169.966 302H168.487V296.475C168.487 294.639 167.671 293.687 165.92 293.687C164.254 293.687 163.302 294.537 163.2 296.577V302H161.738V292.65H163.2C163.2 293.789 162.894 294.843 162.554 295.846L162.928 295.931C163.2 293.925 164.084 292.395 166.379 292.395Z" fill="#558E62"/>
<path d="M323.537 135.1H326.24V142.546H327.6V144.076H326.24V147H324.285V144.076H318.216V142.546C320.987 140.387 322.823 138.041 323.537 135.1ZM322.449 142.546H324.285V139.69C324.285 138.602 324.455 137.735 324.727 136.902L324.319 136.817C324.251 137.565 324.098 138.228 323.775 138.84C323.265 139.809 322.347 140.897 321.633 141.611C321.089 142.138 320.341 142.495 319.457 142.665L319.559 143.09C320.375 142.716 321.344 142.546 322.449 142.546ZM330.775 145.317L329.891 149.567H328.582L328.99 145.317H330.775ZM332.053 141.05C332.053 137.157 333.991 134.845 337.323 134.845C340.638 134.845 342.576 137.157 342.576 141.05C342.576 144.943 340.638 147.255 337.323 147.255C333.991 147.255 332.053 144.943 332.053 141.05ZM334.025 141.05C334.025 143.889 335.249 145.572 337.323 145.572C339.397 145.572 340.604 143.889 340.604 141.05C340.604 138.211 339.397 136.528 337.323 136.528C335.249 136.528 334.025 138.211 334.025 141.05ZM343.923 141.05C343.923 137.157 345.861 134.845 349.193 134.845C352.508 134.845 354.446 137.157 354.446 141.05C354.446 144.943 352.508 147.255 349.193 147.255C345.861 147.255 343.923 144.943 343.923 141.05ZM345.895 141.05C345.895 143.889 347.119 145.572 349.193 145.572C351.267 145.572 352.474 143.889 352.474 141.05C352.474 138.211 351.267 136.528 349.193 136.528C347.119 136.528 345.895 138.211 345.895 141.05ZM355.793 141.05C355.793 137.157 357.731 134.845 361.063 134.845C364.378 134.845 366.316 137.157 366.316 141.05C366.316 144.943 364.378 147.255 361.063 147.255C357.731 147.255 355.793 144.943 355.793 141.05ZM357.765 141.05C357.765 143.889 358.989 145.572 361.063 145.572C363.137 145.572 364.344 143.889 364.344 141.05C364.344 138.211 363.137 136.528 361.063 136.528C358.989 136.528 357.765 138.211 357.765 141.05ZM323.537 185.1H326.24V192.546H327.6V194.076H326.24V197H324.285V194.076H318.216V192.546C320.987 190.387 322.823 188.041 323.537 185.1ZM322.449 192.546H324.285V189.69C324.285 188.602 324.455 187.735 324.727 186.902L324.319 186.817C324.251 187.565 324.098 188.228 323.775 188.84C323.265 189.809 322.347 190.897 321.633 191.611C321.089 192.138 320.341 192.495 319.457 192.665L319.559 193.09C320.375 192.716 321.344 192.546 322.449 192.546ZM330.775 195.317L329.891 199.567H328.582L328.99 195.317H330.775ZM332.053 191.05C332.053 187.157 333.991 184.845 337.323 184.845C340.638 184.845 342.576 187.157 342.576 191.05C342.576 194.943 340.638 197.255 337.323 197.255C333.991 197.255 332.053 194.943 332.053 191.05ZM334.025 191.05C334.025 193.889 335.249 195.572 337.323 195.572C339.397 195.572 340.604 193.889 340.604 191.05C340.604 188.211 339.397 186.528 337.323 186.528C335.249 186.528 334.025 188.211 334.025 191.05ZM343.923 191.05C343.923 187.157 345.861 184.845 349.193 184.845C352.508 184.845 354.446 187.157 354.446 191.05C354.446 194.943 352.508 197.255 349.193 197.255C345.861 197.255 343.923 194.943 343.923 191.05ZM345.895 191.05C345.895 193.889 347.119 195.572 349.193 195.572C351.267 195.572 352.474 193.889 352.474 191.05C352.474 188.211 351.267 186.528 349.193 186.528C347.119 186.528 345.895 188.211 345.895 191.05ZM355.793 191.05C355.793 187.157 357.731 184.845 361.063 184.845C364.378 184.845 366.316 187.157 366.316 191.05C366.316 194.943 364.378 197.255 361.063 197.255C357.731 197.255 355.793 194.943 355.793 191.05ZM357.765 191.05C357.765 193.889 358.989 195.572 361.063 195.572C363.137 195.572 364.344 193.889 364.344 191.05C364.344 188.211 363.137 186.528 361.063 186.528C358.989 186.528 357.765 188.211 357.765 191.05ZM323.537 235.1H326.24V242.546H327.6V244.076H326.24V247H324.285V244.076H318.216V242.546C320.987 240.387 322.823 238.041 323.537 235.1ZM322.449 242.546H324.285V239.69C324.285 238.602 324.455 237.735 324.727 236.902L324.319 236.817C324.251 237.565 324.098 238.228 323.775 238.84C323.265 239.809 322.347 240.897 321.633 241.611C321.089 242.138 320.341 242.495 319.457 242.665L319.559 243.09C320.375 242.716 321.344 242.546 322.449 242.546ZM330.775 245.317L329.891 249.567H328.582L328.99 245.317H330.775ZM332.053 241.05C332.053 237.157 333.991 234.845 337.323 234.845C340.638 234.845 342.576 237.157 342.576 241.05C342.576 244.943 340.638 247.255 337.323 247.255C333.991 247.255 332.053 244.943 332.053 241.05ZM334.025 241.05C334.025 243.889 335.249 245.572 337.323 245.572C339.397 245.572 340.604 243.889 340.604 241.05C340.604 238.211 339.397 236.528 337.323 236.528C335.249 236.528 334.025 238.211 334.025 241.05ZM343.923 241.05C343.923 237.157 345.861 234.845 349.193 234.845C352.508 234.845 354.446 237.157 354.446 241.05C354.446 244.943 352.508 247.255 349.193 247.255C345.861 247.255 343.923 244.943 343.923 241.05ZM345.895 241.05C345.895 243.889 347.119 245.572 349.193 245.572C351.267 245.572 352.474 243.889 352.474 241.05C352.474 238.211 351.267 236.528 349.193 236.528C347.119 236.528 345.895 238.211 345.895 241.05ZM355.793 241.05C355.793 237.157 357.731 234.845 361.063 234.845C364.378 234.845 366.316 237.157 366.316 241.05C366.316 244.943 364.378 247.255 361.063 247.255C357.731 247.255 355.793 244.943 355.793 241.05ZM357.765 241.05C357.765 243.889 358.989 245.572 361.063 245.572C363.137 245.572 364.344 243.889 364.344 241.05C364.344 238.211 363.137 236.528 361.063 236.528C358.989 236.528 357.765 238.211 357.765 241.05ZM323.537 285.1H326.24V292.546H327.6V294.076H326.24V297H324.285V294.076H318.216V292.546C320.987 290.387 322.823 288.041 323.537 285.1ZM322.449 292.546H324.285V289.69C324.285 288.602 324.455 287.735 324.727 286.902L324.319 286.817C324.251 287.565 324.098 288.228 323.775 288.84C323.265 289.809 322.347 290.897 321.633 291.611C321.089 292.138 320.341 292.495 319.457 292.665L319.559 293.09C320.375 292.716 321.344 292.546 322.449 292.546ZM330.775 295.317L329.891 299.567H328.582L328.99 295.317H330.775ZM332.053 291.05C332.053 287.157 333.991 284.845 337.323 284.845C340.638 284.845 342.576 287.157 342.576 291.05C342.576 294.943 340.638 297.255 337.323 297.255C333.991 297.255 332.053 294.943 332.053 291.05ZM334.025 291.05C334.025 293.889 335.249 295.572 337.323 295.572C339.397 295.572 340.604 293.889 340.604 291.05C340.604 288.211 339.397 286.528 337.323 286.528C335.249 286.528 334.025 288.211 334.025 291.05ZM343.923 291.05C343.923 287.157 345.861 284.845 349.193 284.845C352.508 284.845 354.446 287.157 354.446 291.05C354.446 294.943 352.508 297.255 349.193 297.255C345.861 297.255 343.923 294.943 343.923 291.05ZM345.895 291.05C345.895 293.889 347.119 295.572 349.193 295.572C351.267 295.572 352.474 293.889 352.474 291.05C352.474 288.211 351.267 286.528 349.193 286.528C347.119 286.528 345.895 288.211 345.895 291.05ZM355.793 291.05C355.793 287.157 357.731 284.845 361.063 284.845C364.378 284.845 366.316 287.157 366.316 291.05C366.316 294.943 364.378 297.255 361.063 297.255C357.731 297.255 355.793 294.943 355.793 291.05ZM357.765 291.05C357.765 293.889 358.989 295.572 361.063 295.572C363.137 295.572 364.344 293.889 364.344 291.05C364.344 288.211 363.137 286.528 361.063 286.528C358.989 286.528 357.765 288.211 357.765 291.05Z" fill="#558E62"/>
</g>
<defs>
<clipPath id="clip0_234_594">
<rect width="440" height="331" fill="white"/>
</clipPath>
</defs>
</svg>
