<svg width="440" height="402" viewBox="0 0 440 402" fill="none" xmlns="http://www.w3.org/2000/svg">
<g clip-path="url(#clip0_228_420)">
<rect width="440" height="402" fill="white"/>
<path d="M-30 -11H470V5980H-30V-11Z" fill="#FFFDCA" fill-opacity="0.64"/>
<rect x="-29" y="-22" width="487" height="5977" fill="#F2E8DE" fill-opacity="0.61"/>
<path d="M124.244 95.604C124.244 94.486 123.771 93.54 122.825 92.766C121.907 91.9633 120.746 91.2323 119.342 90.573C117.966 89.885 116.461 89.2113 114.827 88.552C113.193 87.864 111.673 87.0613 110.269 86.144C108.893 85.2267 107.732 84.1517 106.786 82.919C105.868 81.6577 105.41 80.124 105.41 78.318C105.41 76.9133 105.711 75.652 106.313 74.534C106.915 73.416 107.775 72.47 108.893 71.696C110.039 70.8933 111.415 70.2913 113.021 69.89C114.626 69.46 116.432 69.245 118.439 69.245C119.585 69.245 120.675 69.3167 121.707 69.46C122.739 69.6033 123.756 69.847 124.76 70.191C125.763 70.5063 126.795 70.922 127.856 71.438C128.916 71.954 130.034 72.5847 131.21 73.33L129.49 82.36H129.06C128.314 81.0987 127.483 79.952 126.566 78.92C125.677 77.888 124.745 77.0137 123.771 76.297C122.825 75.5517 121.864 74.9783 120.89 74.577C119.915 74.1757 118.969 73.975 118.052 73.975C116.991 73.975 116.117 74.233 115.429 74.749C114.769 75.2363 114.44 75.867 114.44 76.641C114.44 77.5297 114.898 78.3037 115.816 78.963C116.762 79.6223 117.923 80.2673 119.299 80.898C120.703 81.5287 122.223 82.2023 123.857 82.919C125.491 83.6357 126.996 84.51 128.372 85.542C129.776 86.574 130.937 87.8067 131.855 89.24C132.801 90.6733 133.274 92.422 133.274 94.486C133.274 100.449 128.873 103.43 120.073 103.43C118.869 103.43 117.593 103.315 116.246 103.086C114.927 102.885 113.608 102.584 112.29 102.183C110.971 101.782 109.681 101.309 108.42 100.764C107.158 100.219 105.983 99.603 104.894 98.915L106.614 89.885H107.044C108.133 91.4617 109.179 92.809 110.183 93.927C111.186 95.0163 112.189 95.9193 113.193 96.636C114.225 97.3527 115.257 97.883 116.289 98.227C117.321 98.5423 118.41 98.7 119.557 98.7C121.076 98.7 122.237 98.442 123.04 97.926C123.842 97.3813 124.244 96.6073 124.244 95.604ZM134.372 91.261C134.372 89.4263 134.673 87.7637 135.275 86.273C135.877 84.7823 136.723 83.5067 137.812 82.446C138.93 81.3853 140.263 80.5683 141.811 79.995C143.388 79.4217 145.136 79.135 147.057 79.135C148.978 79.135 150.712 79.4217 152.26 79.995C153.837 80.5683 155.17 81.3853 156.259 82.446C157.377 83.5067 158.237 84.7823 158.839 86.273C159.441 87.7637 159.742 89.4263 159.742 91.261C159.742 93.0957 159.441 94.7727 158.839 96.292C158.237 97.7827 157.377 99.0583 156.259 100.119C155.17 101.18 153.837 101.997 152.26 102.57C150.712 103.143 148.978 103.43 147.057 103.43C145.136 103.43 143.388 103.143 141.811 102.57C140.263 101.997 138.93 101.18 137.812 100.119C136.723 99.0583 135.877 97.7827 135.275 96.292C134.673 94.7727 134.372 93.0957 134.372 91.261ZM141.811 87.735C141.811 88.9963 142.04 90.272 142.499 91.562C142.958 92.852 143.56 94.013 144.305 95.045C145.05 96.077 145.882 96.9227 146.799 97.582C147.716 98.2413 148.619 98.571 149.508 98.571C150.339 98.571 151.013 98.227 151.529 97.539C152.045 96.8223 152.303 95.905 152.303 94.787C152.303 93.6403 152.045 92.4363 151.529 91.175C151.042 89.9137 150.411 88.7527 149.637 87.692C148.892 86.6313 148.06 85.757 147.143 85.069C146.254 84.3523 145.394 83.994 144.563 83.994C143.76 83.994 143.101 84.338 142.585 85.026C142.069 85.6853 141.811 86.5883 141.811 87.735ZM162.315 77.329C162.315 74.1757 163.032 71.7247 164.465 69.976C165.927 68.1987 167.963 67.31 170.571 67.31C171.661 67.31 172.721 67.4533 173.753 67.74C174.814 68.0267 175.961 68.3707 177.193 68.772L175.043 77.372H174.613C174.384 76.598 174.083 75.867 173.71 75.179C173.338 74.491 172.922 73.889 172.463 73.373C172.033 72.8283 171.56 72.3983 171.044 72.083C170.528 71.7677 170.012 71.61 169.496 71.61C168.808 71.61 168.235 71.868 167.776 72.384C167.346 72.8713 167.117 73.5163 167.088 74.319C167.088 75.093 167.346 75.953 167.862 76.899C168.378 77.8163 169.253 78.705 170.485 79.565H174.355V83.435H170.485V103H162.315V83.435H160.165V79.565C161.599 79.565 162.315 78.8197 162.315 77.329ZM176.102 79.565H176.962C179.485 79.565 181.348 77.415 182.552 73.115H186.422V79.565H190.292V83.435H186.422V93.454C186.422 94.658 186.494 95.69 186.637 96.55C186.809 97.41 187.082 98.1553 187.454 98.786C187.827 99.388 188.314 99.8897 188.916 100.291C189.518 100.692 190.264 101.022 191.152 101.28L189.991 103.43C185.978 102.971 183.011 101.997 181.09 100.506C179.198 98.9867 178.252 96.8367 178.252 94.056V83.435H176.102V79.565ZM203.627 69.675H216.742C219.093 69.675 221.257 70.0907 223.235 70.922C225.213 71.7247 226.905 72.8713 228.309 74.362C229.743 75.824 230.861 77.5727 231.663 79.608C232.466 81.6433 232.867 83.8793 232.867 86.316C232.867 88.7527 232.466 90.9887 231.663 93.024C230.861 95.0593 229.743 96.8223 228.309 98.313C226.905 99.775 225.213 100.922 223.235 101.753C221.257 102.584 219.093 103 216.742 103H203.627V69.675ZM215.065 98.27C217.846 98.27 219.996 97.2237 221.515 95.131C223.063 93.0383 223.837 90.1 223.837 86.316C223.837 82.532 223.063 79.608 221.515 77.544C219.967 75.4513 217.803 74.405 215.022 74.405H212.227V98.27H215.065ZM234.575 79.565H238.445L241.67 81.586C243.046 79.952 244.795 79.135 246.916 79.135C247.547 79.135 248.192 79.221 248.851 79.393C249.539 79.5363 250.299 79.7943 251.13 80.167L248.98 88.767H248.55C248.321 87.735 248.092 86.875 247.862 86.187C247.662 85.499 247.447 84.9543 247.217 84.553C247.017 84.1517 246.787 83.865 246.529 83.693C246.271 83.521 245.985 83.435 245.669 83.435C243.72 83.435 242.745 86.0293 242.745 91.218V103H234.575V79.565ZM252.637 79.565H260.807V103H252.637V79.565ZM252.422 73.545C252.422 72.341 252.838 71.3233 253.669 70.492C254.501 69.6607 255.518 69.245 256.722 69.245C257.926 69.245 258.944 69.6607 259.775 70.492C260.607 71.3233 261.022 72.341 261.022 73.545C261.022 74.749 260.607 75.7667 259.775 76.598C258.944 77.4293 257.926 77.845 256.722 77.845C255.518 77.845 254.501 77.4293 253.669 76.598C252.838 75.7667 252.422 74.749 252.422 73.545ZM278.48 88.509C278.48 87.047 278.265 85.9147 277.835 85.112C277.434 84.2807 276.732 83.865 275.728 83.865C274.467 83.865 273.421 84.4957 272.589 85.757C271.758 87.0183 271.342 88.8673 271.342 91.304V103H263.172V79.565H267.042L270.826 81.93C271.858 81.0413 273.019 80.3533 274.309 79.866C275.599 79.3787 276.975 79.135 278.437 79.135C279.67 79.135 280.788 79.3213 281.791 79.694C282.795 80.038 283.655 80.5397 284.371 81.199C285.088 81.8297 285.647 82.6037 286.048 83.521C286.45 84.4383 286.65 85.456 286.65 86.574V103H278.48V88.509ZM299.198 90.745C298.453 91.2037 297.851 91.691 297.392 92.207C296.962 92.6943 296.747 93.2247 296.747 93.798V103H288.577V69.675L296.317 67.74H296.747V84.08C297.435 83.392 298.195 82.7613 299.026 82.188C299.858 81.586 300.718 81.0557 301.606 80.597C302.524 80.1383 303.427 79.78 304.315 79.522C305.233 79.264 306.121 79.135 306.981 79.135C308.243 79.135 309.26 79.4217 310.034 79.995C310.837 80.5397 311.238 81.2707 311.238 82.188C311.238 82.7327 311.095 83.2487 310.808 83.736C310.522 84.1947 310.135 84.639 309.647 85.069C309.16 85.499 308.587 85.9147 307.927 86.316C307.297 86.6887 306.609 87.0613 305.863 87.434L313.001 103H303.971L299.198 90.745ZM296.747 89.326C297.435 88.982 298.123 88.6523 298.811 88.337C299.499 87.993 300.13 87.649 300.703 87.305C301.277 86.961 301.735 86.5883 302.079 86.187C302.452 85.7857 302.638 85.327 302.638 84.811C302.638 84.4097 302.524 84.08 302.294 83.822C302.065 83.564 301.764 83.435 301.391 83.435C300.961 83.435 300.474 83.6357 299.929 84.037C299.413 84.4097 298.912 84.897 298.424 85.499C297.966 86.0723 297.564 86.6887 297.22 87.348C296.905 88.0073 296.747 88.6093 296.747 89.154V89.326ZM326.509 97.754C326.509 97.2667 326.193 96.7937 325.563 96.335C324.932 95.8763 324.129 95.4033 323.155 94.916C322.209 94.4 321.177 93.841 320.059 93.239C318.969 92.637 317.937 91.9633 316.963 91.218C316.017 90.4727 315.228 89.6413 314.598 88.724C313.967 87.778 313.652 86.703 313.652 85.499C313.652 84.553 313.867 83.693 314.297 82.919C314.755 82.1163 315.386 81.4427 316.189 80.898C316.991 80.3247 317.952 79.8947 319.07 79.608C320.216 79.2927 321.478 79.135 322.854 79.135C324.66 79.135 326.494 79.3787 328.358 79.866C330.25 80.3533 331.927 81.027 333.389 81.887L331.669 89.627H331.239C331.038 88.7957 330.68 88.0073 330.164 87.262C329.648 86.5167 329.046 85.8573 328.358 85.284C327.698 84.7107 326.982 84.2663 326.208 83.951C325.462 83.607 324.76 83.435 324.101 83.435C323.527 83.435 323.069 83.564 322.725 83.822C322.409 84.0513 322.252 84.3523 322.252 84.725C322.252 85.241 322.567 85.7283 323.198 86.187C323.828 86.6457 324.617 87.133 325.563 87.649C326.537 88.1363 327.569 88.6667 328.659 89.24C329.777 89.8133 330.809 90.487 331.755 91.261C332.729 92.0063 333.532 92.8807 334.163 93.884C334.793 94.8873 335.109 96.0483 335.109 97.367C335.109 101.409 331.74 103.43 325.004 103.43C324.029 103.43 322.997 103.358 321.908 103.215C320.818 103.1 319.743 102.928 318.683 102.699C317.622 102.441 316.604 102.154 315.63 101.839C314.655 101.495 313.781 101.108 313.007 100.678L314.727 92.508H315.2C315.486 93.368 315.945 94.1993 316.576 95.002C317.235 95.776 317.98 96.4783 318.812 97.109C319.643 97.711 320.517 98.1983 321.435 98.571C322.381 98.9437 323.284 99.13 324.144 99.13C324.86 99.13 325.434 99.001 325.864 98.743C326.294 98.485 326.509 98.1553 326.509 97.754Z" fill="#558E62"/>
<path d="M66.7015 146.1L69.0645 154.736C69.3365 155.824 69.3365 156.436 69.2685 157.184H69.6425C69.5575 156.402 69.5915 155.824 69.9315 154.736L71.5975 149.874C72.0395 148.429 72.2435 147.834 72.2435 146.1H73.8755C73.8755 147.834 74.0795 148.412 74.5385 149.874L76.1875 154.736C76.5275 155.824 76.5615 156.402 76.4765 157.184H76.8675C76.7655 156.436 76.7655 155.824 77.0545 154.736L79.4175 146.1H80.9985L77.6495 158H75.8475L73.5865 151.234C73.1785 149.959 73.1785 149.262 73.2635 148.344H72.8895C72.9575 149.262 72.9235 149.993 72.5325 151.234L70.2715 158H68.4695L65.1205 146.1H66.7015ZM85.8314 148.395C88.0074 148.395 89.3504 149.466 89.3504 151.54V154.124C89.3504 156.147 89.4184 157.133 89.6054 158H88.2284C88.1944 157.728 88.1604 157.32 88.1434 156.878C88.1434 155.977 88.2964 155.399 88.5344 154.719L88.1434 154.651C88.0414 156.878 87.2254 158.255 84.7264 158.255C82.8224 158.255 81.6154 157.201 81.6154 155.756C81.6154 154.141 82.6524 153.223 85.2024 152.815L87.9734 152.39V151.71C87.9734 150.299 87.2934 149.585 85.8144 149.585C84.2844 149.585 83.6044 150.401 83.4004 151.404L82.0404 151.2C82.4654 149.381 83.7744 148.395 85.8314 148.395ZM85.4064 153.801C83.7574 154.056 83.0774 154.634 83.0774 155.603C83.0774 156.436 83.7064 157.048 85.0324 157.048C87.2084 157.048 87.7694 155.909 87.9734 154.175V153.41L85.4064 153.801ZM93.3645 146.1H94.7755C94.7755 147.154 94.6055 147.749 94.1465 148.225C93.8235 148.565 93.5175 148.684 92.7525 148.854L92.8715 149.211C93.6535 148.837 94.1975 148.65 95.4895 148.65H97.8695V149.891H94.3845V155.178C94.3845 156.521 94.9455 156.98 95.8295 156.98C96.6285 156.98 97.2575 156.657 97.7845 156.181L98.0565 157.422C97.5295 157.83 96.7305 158.255 95.6255 158.255C94.0785 158.255 92.9395 157.49 92.9395 155.416V149.891H90.9505V148.65H91.6475C92.9905 148.65 93.4495 147.749 93.3645 146.1ZM103.865 148.395C106.67 148.395 107.996 150.231 107.894 153.41H100.873C100.89 155.773 102.046 157.082 103.984 157.082C105.786 157.082 106.585 156.062 106.857 154.294L108.2 154.481C107.809 156.963 106.398 158.255 103.933 158.255C101.128 158.255 99.479 156.47 99.479 153.325C99.479 150.18 101.162 148.395 103.865 148.395ZM100.958 152.441H106.517C106.466 150.758 105.735 149.568 103.865 149.568C102.233 149.568 101.179 150.588 100.958 152.441ZM110.235 148.65H111.697C111.697 149.789 111.391 150.86 111.051 151.863L111.425 151.931C111.629 150.248 112.309 148.395 114.315 148.395C116.151 148.395 117.171 149.806 117.239 152.169L115.743 152.339C115.607 150.35 115.029 149.636 113.839 149.636C112.462 149.636 111.765 150.877 111.697 153.087V158H110.235V148.65ZM70.2885 185.845C72.8895 185.845 74.6235 187.001 74.9295 189.16L73.4505 189.381C73.2805 188.055 72.3455 187.069 70.2885 187.069C68.4185 187.069 67.4835 188.055 67.4835 189.143C67.4835 190.588 68.8435 190.809 70.7815 191.2C72.9575 191.625 75.2355 192.016 75.2355 194.702C75.2355 196.997 73.5185 198.255 70.6625 198.255C67.8235 198.255 65.9195 196.878 65.6645 194.26L67.1435 194.039C67.2795 195.807 68.3505 197.014 70.6625 197.014C72.7195 197.014 73.7565 196.028 73.7565 194.685C73.7565 192.985 72.3795 192.73 70.4415 192.339C68.2825 191.914 65.9875 191.54 65.9875 189.143C65.9875 187.154 67.7385 185.845 70.2885 185.845ZM82.2069 188.395C84.5359 188.395 86.2359 190.18 86.2359 193.325C86.2359 196.47 84.5359 198.255 82.2069 198.255C79.8439 198.255 78.8579 196.368 78.6539 194.294L78.2799 194.362C78.6539 195.535 78.9089 196.691 78.9089 198V201.06H77.4469V188.65H78.9769C78.9089 189.959 78.6369 191.115 78.2799 192.288L78.6539 192.356C78.8579 190.282 79.8439 188.395 82.2069 188.395ZM78.8919 193.325C78.8919 195.688 80.0649 197.014 81.8329 197.014C83.6009 197.014 84.7739 195.688 84.7739 193.325C84.7739 190.962 83.6009 189.636 81.8329 189.636C80.0649 189.636 78.8919 190.962 78.8919 193.325ZM88.3209 188.65H89.7829C89.7829 189.789 89.4769 190.86 89.1369 191.863L89.5109 191.931C89.7149 190.248 90.3949 188.395 92.4009 188.395C94.2369 188.395 95.2569 189.806 95.3249 192.169L93.8289 192.339C93.6929 190.35 93.1149 189.636 91.9249 189.636C90.5479 189.636 89.8509 190.877 89.7829 193.087V198H88.3209V188.65ZM96.8818 186.576C96.8818 186.015 97.2558 185.692 97.8508 185.692C98.4288 185.692 98.8028 186.015 98.8028 186.576C98.8028 187.137 98.4288 187.46 97.8508 187.46C97.2558 187.46 96.8818 187.137 96.8818 186.576ZM98.5648 188.65V198H97.1198V188.65H98.5648ZM102.578 186.1H103.989C103.989 187.154 103.819 187.749 103.36 188.225C103.037 188.565 102.731 188.684 101.966 188.854L102.085 189.211C102.867 188.837 103.411 188.65 104.703 188.65H107.083V189.891H103.598V195.178C103.598 196.521 104.159 196.98 105.043 196.98C105.842 196.98 106.471 196.657 106.998 196.181L107.27 197.422C106.743 197.83 105.944 198.255 104.839 198.255C103.292 198.255 102.153 197.49 102.153 195.416V189.891H100.164V188.65H100.861C102.204 188.65 102.663 187.749 102.578 186.1ZM113.079 188.395C115.884 188.395 117.21 190.231 117.108 193.41H110.087C110.104 195.773 111.26 197.082 113.198 197.082C115 197.082 115.799 196.062 116.071 194.294L117.414 194.481C117.023 196.963 115.612 198.255 113.147 198.255C110.342 198.255 108.693 196.47 108.693 193.325C108.693 190.18 110.376 188.395 113.079 188.395ZM110.172 192.441H115.731C115.68 190.758 114.949 189.568 113.079 189.568C111.447 189.568 110.393 190.588 110.172 192.441ZM66.2595 238V226.1H71.0875C73.9265 226.1 75.3205 227.511 75.3205 229.891C75.3205 232.254 73.9265 233.665 71.0875 233.665H67.7555V238H66.2595ZM67.7555 232.373H71.0365C72.9745 232.373 73.8245 231.557 73.8245 229.891C73.8245 228.208 72.9745 227.392 71.0365 227.392H67.7555V232.373ZM81.1043 228.395C83.9093 228.395 85.2353 230.231 85.1333 233.41H78.1123C78.1293 235.773 79.2853 237.082 81.2233 237.082C83.0253 237.082 83.8243 236.062 84.0963 234.294L85.4393 234.481C85.0483 236.963 83.6373 238.255 81.1723 238.255C78.3673 238.255 76.7183 236.47 76.7183 233.325C76.7183 230.18 78.4013 228.395 81.1043 228.395ZM78.1973 232.441H83.7563C83.7053 230.758 82.9743 229.568 81.1043 229.568C79.4723 229.568 78.4183 230.588 78.1973 232.441ZM92.2343 228.395C94.5633 228.395 96.2633 230.18 96.2633 233.325C96.2633 236.47 94.5633 238.255 92.2343 238.255C89.8713 238.255 88.8853 236.368 88.6813 234.294L88.3073 234.362C88.6813 235.535 88.9363 236.691 88.9363 238V241.06H87.4743V228.65H89.0043C88.9363 229.959 88.6643 231.115 88.3073 232.288L88.6813 232.356C88.8853 230.282 89.8713 228.395 92.2343 228.395ZM88.9193 233.325C88.9193 235.688 90.0923 237.014 91.8603 237.014C93.6283 237.014 94.8013 235.688 94.8013 233.325C94.8013 230.962 93.6283 229.636 91.8603 229.636C90.0923 229.636 88.9193 230.962 88.9193 233.325ZM101.289 228.395C103.703 228.395 104.638 229.602 105.029 231.064L103.652 231.234C103.414 230.35 102.904 229.568 101.289 229.568C99.7423 229.568 99.2663 230.418 99.2663 231.013C99.2663 231.982 100.082 232.254 101.714 232.56C103.975 232.985 105.42 233.325 105.42 235.382C105.42 237.048 104.128 238.255 101.765 238.255C99.4363 238.255 97.7873 237.167 97.5833 235.059L98.9603 234.889C99.1983 236.283 99.9293 237.082 101.765 237.082C103.261 237.082 103.992 236.334 103.992 235.365C103.992 234.175 103.176 233.92 101.544 233.614C99.7253 233.291 97.8383 233.019 97.8383 231.013C97.8383 229.517 99.1133 228.395 101.289 228.395ZM107.142 226.576C107.142 226.015 107.516 225.692 108.111 225.692C108.689 225.692 109.063 226.015 109.063 226.576C109.063 227.137 108.689 227.46 108.111 227.46C107.516 227.46 107.142 227.137 107.142 226.576ZM108.825 228.65V238H107.38V228.65H108.825ZM66.2595 278V266.1H71.0875C73.9265 266.1 75.3205 267.511 75.3205 269.891C75.3205 272.254 73.9265 273.665 71.0875 273.665H67.7555V278H66.2595ZM67.7555 272.373H71.0365C72.9745 272.373 73.8245 271.557 73.8245 269.891C73.8245 268.208 72.9745 267.392 71.0365 267.392H67.7555V272.373ZM81.1043 268.395C83.9093 268.395 85.2353 270.231 85.1333 273.41H78.1123C78.1293 275.773 79.2853 277.082 81.2233 277.082C83.0253 277.082 83.8243 276.062 84.0963 274.294L85.4393 274.481C85.0483 276.963 83.6373 278.255 81.1723 278.255C78.3673 278.255 76.7183 276.47 76.7183 273.325C76.7183 270.18 78.4013 268.395 81.1043 268.395ZM78.1973 272.441H83.7563C83.7053 270.758 82.9743 269.568 81.1043 269.568C79.4723 269.568 78.4183 270.588 78.1973 272.441ZM92.2343 268.395C94.5633 268.395 96.2633 270.18 96.2633 273.325C96.2633 276.47 94.5633 278.255 92.2343 278.255C89.8713 278.255 88.8853 276.368 88.6813 274.294L88.3073 274.362C88.6813 275.535 88.9363 276.691 88.9363 278V281.06H87.4743V268.65H89.0043C88.9363 269.959 88.6643 271.115 88.3073 272.288L88.6813 272.356C88.8853 270.282 89.8713 268.395 92.2343 268.395ZM88.9193 273.325C88.9193 275.688 90.0923 277.014 91.8603 277.014C93.6283 277.014 94.8013 275.688 94.8013 273.325C94.8013 270.962 93.6283 269.636 91.8603 269.636C90.0923 269.636 88.9193 270.962 88.9193 273.325ZM101.289 268.395C103.703 268.395 104.638 269.602 105.029 271.064L103.652 271.234C103.414 270.35 102.904 269.568 101.289 269.568C99.7423 269.568 99.2663 270.418 99.2663 271.013C99.2663 271.982 100.082 272.254 101.714 272.56C103.975 272.985 105.42 273.325 105.42 275.382C105.42 277.048 104.128 278.255 101.765 278.255C99.4363 278.255 97.7873 277.167 97.5833 275.059L98.9603 274.889C99.1983 276.283 99.9293 277.082 101.765 277.082C103.261 277.082 103.992 276.334 103.992 275.365C103.992 274.175 103.176 273.92 101.544 273.614C99.7253 273.291 97.8383 273.019 97.8383 271.013C97.8383 269.517 99.1133 268.395 101.289 268.395ZM107.142 266.576C107.142 266.015 107.516 265.692 108.111 265.692C108.689 265.692 109.063 266.015 109.063 266.576C109.063 267.137 108.689 267.46 108.111 267.46C107.516 267.46 107.142 267.137 107.142 266.576ZM108.825 268.65V278H107.38V268.65H108.825ZM116.463 278V266.1H120.594C124.64 266.1 126.476 268.31 126.476 272.05C126.476 275.79 124.64 278 120.594 278H116.463ZM117.959 276.691H120.458C123.722 276.691 124.98 274.974 124.98 272.05C124.98 269.126 123.722 267.392 120.458 267.392H117.959V276.691ZM128.392 266.576C128.392 266.015 128.766 265.692 129.361 265.692C129.939 265.692 130.313 266.015 130.313 266.576C130.313 267.137 129.939 267.46 129.361 267.46C128.766 267.46 128.392 267.137 128.392 266.576ZM130.075 268.65V278H128.63V268.65H130.075ZM136.57 268.395C139.375 268.395 140.701 270.231 140.599 273.41H133.578C133.595 275.773 134.751 277.082 136.689 277.082C138.491 277.082 139.29 276.062 139.562 274.294L140.905 274.481C140.514 276.963 139.103 278.255 136.638 278.255C133.833 278.255 132.184 276.47 132.184 273.325C132.184 270.18 133.867 268.395 136.57 268.395ZM133.663 272.441H139.222C139.171 270.758 138.44 269.568 136.57 269.568C134.938 269.568 133.884 270.588 133.663 272.441ZM144.165 266.1H145.576C145.576 267.154 145.406 267.749 144.947 268.225C144.624 268.565 144.318 268.684 143.553 268.854L143.672 269.211C144.454 268.837 144.998 268.65 146.29 268.65H148.67V269.891H145.185V275.178C145.185 276.521 145.746 276.98 146.63 276.98C147.429 276.98 148.058 276.657 148.585 276.181L148.857 277.422C148.33 277.83 147.531 278.255 146.426 278.255C144.879 278.255 143.74 277.49 143.74 275.416V269.891H141.751V268.65H142.448C143.791 268.65 144.25 267.749 144.165 266.1ZM66.2595 306.1H67.7555V316.691H74.2835V318H66.2595V306.1ZM79.743 308.395C82.548 308.395 83.874 310.231 83.772 313.41H76.751C76.768 315.773 77.924 317.082 79.862 317.082C81.664 317.082 82.463 316.062 82.735 314.294L84.078 314.481C83.687 316.963 82.276 318.255 79.811 318.255C77.006 318.255 75.357 316.47 75.357 313.325C75.357 310.18 77.04 308.395 79.743 308.395ZM76.836 312.441H82.395C82.344 310.758 81.613 309.568 79.743 309.568C78.111 309.568 77.057 310.588 76.836 312.441ZM86.1129 308.65H87.5749C87.5749 309.789 87.2519 310.86 86.9289 311.863L87.3029 311.931C87.4899 310.163 88.2549 308.395 90.3289 308.395C91.4849 308.395 92.3859 308.888 92.8789 309.789C93.2189 310.435 93.1339 311.03 92.8109 311.863L93.2019 311.931C93.3379 310.163 94.1709 308.395 96.2109 308.395C98.1319 308.395 99.3559 309.874 99.3559 312.288V318H97.8939V312.441C97.8939 310.622 97.2139 309.687 95.7349 309.687C94.3579 309.687 93.5419 310.503 93.4569 312.543L93.4739 318H91.9949V312.441C91.9949 310.622 91.3149 309.687 89.8529 309.687C88.4759 309.687 87.6599 310.503 87.5749 312.543V318H86.1129V308.65ZM101.355 313.325C101.355 310.18 103.174 308.395 105.86 308.395C108.546 308.395 110.382 310.18 110.382 313.325C110.382 316.47 108.546 318.255 105.86 318.255C103.174 318.255 101.355 316.47 101.355 313.325ZM102.817 313.325C102.817 315.688 104.024 317.014 105.86 317.014C107.696 317.014 108.92 315.688 108.92 313.325C108.92 310.962 107.696 309.636 105.86 309.636C104.024 309.636 102.817 310.962 102.817 313.325ZM117.117 308.395C119.293 308.395 120.687 309.891 120.687 312.322L120.704 318H119.225V312.475C119.225 310.639 118.409 309.687 116.658 309.687C114.992 309.687 114.04 310.537 113.938 312.577V318H112.476V308.65H113.938C113.938 309.789 113.632 310.843 113.292 311.846L113.666 311.931C113.938 309.925 114.822 308.395 117.117 308.395ZM132.262 305.845C134.863 305.845 136.597 307.001 136.903 309.16L135.424 309.381C135.254 308.055 134.319 307.069 132.262 307.069C130.392 307.069 129.457 308.055 129.457 309.143C129.457 310.588 130.817 310.809 132.755 311.2C134.931 311.625 137.209 312.016 137.209 314.702C137.209 316.997 135.492 318.255 132.636 318.255C129.797 318.255 127.893 316.878 127.638 314.26L129.117 314.039C129.253 315.807 130.324 317.014 132.636 317.014C134.693 317.014 135.73 316.028 135.73 314.685C135.73 312.985 134.353 312.73 132.415 312.339C130.256 311.914 127.961 311.54 127.961 309.143C127.961 307.154 129.712 305.845 132.262 305.845ZM138.792 313.325C138.792 310.18 140.611 308.395 143.297 308.395C145.983 308.395 147.819 310.18 147.819 313.325C147.819 316.47 145.983 318.255 143.297 318.255C140.611 318.255 138.792 316.47 138.792 313.325ZM140.254 313.325C140.254 315.688 141.461 317.014 143.297 317.014C145.133 317.014 146.357 315.688 146.357 313.325C146.357 310.962 145.133 309.636 143.297 309.636C141.461 309.636 140.254 310.962 140.254 313.325ZM153.296 308.395C155.659 308.395 156.645 310.282 156.849 312.356L157.223 312.271C156.849 311.115 156.594 309.959 156.594 308.65V305.25H158.056V313.971C158.056 316.011 158.141 317.116 158.345 318H156.9C156.866 317.66 156.815 317.252 156.815 316.742C156.798 315.722 156.968 315.076 157.223 314.362L156.849 314.294C156.645 316.368 155.659 318.255 153.296 318.255C150.967 318.255 149.284 316.47 149.284 313.325C149.284 310.18 150.967 308.395 153.296 308.395ZM156.611 313.325C156.611 310.962 155.438 309.636 153.67 309.636C151.902 309.636 150.746 310.962 150.746 313.325C150.746 315.688 151.902 317.014 153.67 317.014C155.438 317.014 156.611 315.688 156.611 313.325ZM164.556 308.395C166.732 308.395 168.075 309.466 168.075 311.54V314.124C168.075 316.147 168.143 317.133 168.33 318H166.953C166.919 317.728 166.885 317.32 166.868 316.878C166.868 315.977 167.021 315.399 167.259 314.719L166.868 314.651C166.766 316.878 165.95 318.255 163.451 318.255C161.547 318.255 160.34 317.201 160.34 315.756C160.34 314.141 161.377 313.223 163.927 312.815L166.698 312.39V311.71C166.698 310.299 166.018 309.585 164.539 309.585C163.009 309.585 162.329 310.401 162.125 311.404L160.765 311.2C161.19 309.381 162.499 308.395 164.556 308.395ZM164.131 313.801C162.482 314.056 161.802 314.634 161.802 315.603C161.802 316.436 162.431 317.048 163.757 317.048C165.933 317.048 166.494 315.909 166.698 314.175V313.41L164.131 313.801ZM70.2885 345.845C72.8895 345.845 74.6235 347.001 74.9295 349.16L73.4505 349.381C73.2805 348.055 72.3455 347.069 70.2885 347.069C68.4185 347.069 67.4835 348.055 67.4835 349.143C67.4835 350.588 68.8435 350.809 70.7815 351.2C72.9575 351.625 75.2355 352.016 75.2355 354.702C75.2355 356.997 73.5185 358.255 70.6625 358.255C67.8235 358.255 65.9195 356.878 65.6645 354.26L67.1435 354.039C67.2795 355.807 68.3505 357.014 70.6625 357.014C72.7195 357.014 73.7565 356.028 73.7565 354.685C73.7565 352.985 72.3795 352.73 70.4415 352.339C68.2825 351.914 65.9875 351.54 65.9875 349.143C65.9875 347.154 67.7385 345.845 70.2885 345.845ZM82.2069 348.395C84.5359 348.395 86.2359 350.18 86.2359 353.325C86.2359 356.47 84.5359 358.255 82.2069 358.255C79.8439 358.255 78.8579 356.368 78.6539 354.294L78.2799 354.362C78.6539 355.535 78.9089 356.691 78.9089 358V361.06H77.4469V348.65H78.9769C78.9089 349.959 78.6369 351.115 78.2799 352.288L78.6539 352.356C78.8579 350.282 79.8439 348.395 82.2069 348.395ZM78.8919 353.325C78.8919 355.688 80.0649 357.014 81.8329 357.014C83.6009 357.014 84.7739 355.688 84.7739 353.325C84.7739 350.962 83.6009 349.636 81.8329 349.636C80.0649 349.636 78.8919 350.962 78.8919 353.325ZM91.8909 348.395C94.0669 348.395 95.4099 349.466 95.4099 351.54V354.124C95.4099 356.147 95.4779 357.133 95.6649 358H94.2879C94.2539 357.728 94.2199 357.32 94.2029 356.878C94.2029 355.977 94.3559 355.399 94.5939 354.719L94.2029 354.651C94.1009 356.878 93.2849 358.255 90.7859 358.255C88.8819 358.255 87.6749 357.201 87.6749 355.756C87.6749 354.141 88.7119 353.223 91.2619 352.815L94.0329 352.39V351.71C94.0329 350.299 93.3529 349.585 91.8739 349.585C90.3439 349.585 89.6639 350.401 89.4599 351.404L88.0999 351.2C88.5249 349.381 89.8339 348.395 91.8909 348.395ZM91.4659 353.801C89.8169 354.056 89.1369 354.634 89.1369 355.603C89.1369 356.436 89.7659 357.048 91.0919 357.048C93.2679 357.048 93.8289 355.909 94.0329 354.175V353.41L91.4659 353.801ZM98.2487 348.65H99.7107C99.7107 349.789 99.4047 350.86 99.0647 351.863L99.4387 351.931C99.6427 350.248 100.323 348.395 102.329 348.395C104.165 348.395 105.185 349.806 105.253 352.169L103.757 352.339C103.621 350.35 103.043 349.636 101.853 349.636C100.476 349.636 99.7787 350.877 99.7107 353.087V358H98.2487V348.65ZM113.304 348.65H114.919L112.726 351.812C111.859 353.07 111.128 353.07 109.921 353.036V353.41C110.261 353.376 110.584 353.342 110.873 353.342C111.332 353.342 111.723 353.41 112.046 353.665C112.403 353.903 112.658 354.192 112.947 354.651C113.729 355.96 114.103 356.827 115.123 358H113.44C112.709 357.133 112.352 356.249 111.74 355.11C111.196 354.141 110.839 353.954 109.496 353.954H108.493V358H107.048V345.25H108.493V352.696H109.292C110.38 352.696 110.72 352.441 111.264 351.659L113.304 348.65ZM116.829 345.25H118.274L118.172 354.192C118.155 355.552 118.189 356.657 118.41 358H116.965C116.761 356.81 116.71 355.756 116.727 354.43L116.829 345.25ZM120.805 346.576C120.805 346.015 121.179 345.692 121.774 345.692C122.352 345.692 122.726 346.015 122.726 346.576C122.726 347.137 122.352 347.46 121.774 347.46C121.179 347.46 120.805 347.137 120.805 346.576ZM122.488 348.65V358H121.043V348.65H122.488ZM129.867 348.395C132.043 348.395 133.437 349.891 133.437 352.322L133.454 358H131.975V352.475C131.975 350.639 131.159 349.687 129.408 349.687C127.742 349.687 126.79 350.537 126.688 352.577V358H125.226V348.65H126.688C126.688 349.789 126.382 350.843 126.042 351.846L126.416 351.931C126.688 349.925 127.572 348.395 129.867 348.395ZM139.603 348.65C142.527 348.65 143.326 348.48 144.346 348.14L144.533 349.364C144.006 349.466 143.53 349.534 143.071 349.534C142.459 349.534 141.847 349.415 141.116 349.126L141.014 349.517C142.629 349.772 143.632 350.367 143.632 351.982C143.632 353.393 142.816 354.362 141.184 355.11C140.589 355.399 139.28 355.824 138.294 355.943L138.379 356.334C139.178 356.045 139.943 355.909 140.963 355.909C143.394 355.926 144.618 356.759 144.618 358.34C144.618 360.04 143.36 361.315 140.215 361.315C137.478 361.315 135.71 360.159 135.37 358.34L136.764 358.119C137.002 359.173 138.005 360.159 140.249 360.159C142.391 360.159 143.207 359.343 143.207 358.289C143.207 357.303 142.493 356.793 140.334 356.793L135.982 356.776V355.722C137.036 355.722 137.716 355.671 138.923 355.229C139.62 354.991 140.334 354.804 140.946 354.702L140.878 354.328C140.334 354.583 139.671 354.804 138.753 354.719C136.73 354.532 135.557 353.546 135.557 351.812C135.557 349.84 137.121 348.65 139.603 348.65ZM137.019 351.897C137.019 353.223 137.971 353.971 139.603 353.971C141.167 353.971 142.204 353.223 142.204 351.897C142.204 350.554 141.167 349.806 139.603 349.806C138.039 349.806 137.019 350.554 137.019 351.897ZM151.884 346.1L154.247 354.736C154.519 355.824 154.519 356.436 154.451 357.184H154.825C154.74 356.402 154.774 355.824 155.114 354.736L156.78 349.874C157.222 348.429 157.426 347.834 157.426 346.1H159.058C159.058 347.834 159.262 348.412 159.721 349.874L161.37 354.736C161.71 355.824 161.744 356.402 161.659 357.184H162.05C161.948 356.436 161.948 355.824 162.237 354.736L164.6 346.1H166.181L162.832 358H161.03L158.769 351.234C158.361 349.959 158.361 349.262 158.446 348.344H158.072C158.14 349.262 158.106 349.993 157.715 351.234L155.454 358H153.652L150.303 346.1H151.884ZM171.014 348.395C173.19 348.395 174.533 349.466 174.533 351.54V354.124C174.533 356.147 174.601 357.133 174.788 358H173.411C173.377 357.728 173.343 357.32 173.326 356.878C173.326 355.977 173.479 355.399 173.717 354.719L173.326 354.651C173.224 356.878 172.408 358.255 169.909 358.255C168.005 358.255 166.798 357.201 166.798 355.756C166.798 354.141 167.835 353.223 170.385 352.815L173.156 352.39V351.71C173.156 350.299 172.476 349.585 170.997 349.585C169.467 349.585 168.787 350.401 168.583 351.404L167.223 351.2C167.648 349.381 168.957 348.395 171.014 348.395ZM170.589 353.801C168.94 354.056 168.26 354.634 168.26 355.603C168.26 356.436 168.889 357.048 170.215 357.048C172.391 357.048 172.952 355.909 173.156 354.175V353.41L170.589 353.801ZM178.547 346.1H179.958C179.958 347.154 179.788 347.749 179.329 348.225C179.006 348.565 178.7 348.684 177.935 348.854L178.054 349.211C178.836 348.837 179.38 348.65 180.672 348.65H183.052V349.891H179.567V355.178C179.567 356.521 180.128 356.98 181.012 356.98C181.811 356.98 182.44 356.657 182.967 356.181L183.239 357.422C182.712 357.83 181.913 358.255 180.808 358.255C179.261 358.255 178.122 357.49 178.122 355.416V349.891H176.133V348.65H176.83C178.173 348.65 178.632 347.749 178.547 346.1ZM189.048 348.395C191.853 348.395 193.179 350.231 193.077 353.41H186.056C186.073 355.773 187.229 357.082 189.167 357.082C190.969 357.082 191.768 356.062 192.04 354.294L193.383 354.481C192.992 356.963 191.581 358.255 189.116 358.255C186.311 358.255 184.662 356.47 184.662 353.325C184.662 350.18 186.345 348.395 189.048 348.395ZM186.141 352.441H191.7C191.649 350.758 190.918 349.568 189.048 349.568C187.416 349.568 186.362 350.588 186.141 352.441ZM195.418 348.65H196.88C196.88 349.789 196.574 350.86 196.234 351.863L196.608 351.931C196.812 350.248 197.492 348.395 199.498 348.395C201.334 348.395 202.354 349.806 202.422 352.169L200.926 352.339C200.79 350.35 200.212 349.636 199.022 349.636C197.645 349.636 196.948 350.877 196.88 353.087V358H195.418V348.65Z" fill="#558E62"/>
<path d="M343.879 153.237C344.27 151.469 345.137 150.789 346.922 150.789C349.166 150.789 350.611 152.438 350.611 154.954C350.611 157.742 348.979 159.289 346.225 159.289C343.471 159.289 341.788 157.793 341.448 155.413L343.403 155.175C343.692 156.892 344.559 157.691 346.242 157.691C347.806 157.691 348.673 156.688 348.673 154.954C348.673 153.305 347.806 152.217 346.259 152.217C344.95 152.217 344.287 152.88 343.998 153.917H342.094L342.434 147.1H350.101V148.766H344.253L344.151 150.789C344.117 151.605 343.896 152.302 343.488 153.118L343.879 153.237ZM351.923 153.05C351.923 149.157 353.861 146.845 357.193 146.845C360.508 146.845 362.446 149.157 362.446 153.05C362.446 156.943 360.508 159.255 357.193 159.255C353.861 159.255 351.923 156.943 351.923 153.05ZM353.895 153.05C353.895 155.889 355.119 157.572 357.193 157.572C359.267 157.572 360.474 155.889 360.474 153.05C360.474 150.211 359.267 148.528 357.193 148.528C355.119 148.528 353.895 150.211 353.895 153.05ZM363.793 153.05C363.793 149.157 365.731 146.845 369.063 146.845C372.378 146.845 374.316 149.157 374.316 153.05C374.316 156.943 372.378 159.255 369.063 159.255C365.731 159.255 363.793 156.943 363.793 153.05ZM365.765 153.05C365.765 155.889 366.989 157.572 369.063 157.572C371.137 157.572 372.344 155.889 372.344 153.05C372.344 150.211 371.137 148.528 369.063 148.528C366.989 148.528 365.765 150.211 365.765 153.05ZM348.861 188.749H344.509V187.1H352.873V188.885C349.898 191.979 348.623 194.461 348.504 199H346.379C346.447 195.413 347.535 192.676 349.592 190.058C350.204 189.259 350.833 188.851 351.717 188.613L351.632 188.205C350.833 188.579 349.949 188.749 348.861 188.749ZM355.749 193.237C356.14 191.469 357.007 190.789 358.792 190.789C361.036 190.789 362.481 192.438 362.481 194.954C362.481 197.742 360.849 199.289 358.095 199.289C355.341 199.289 353.658 197.793 353.318 195.413L355.273 195.175C355.562 196.892 356.429 197.691 358.112 197.691C359.676 197.691 360.543 196.688 360.543 194.954C360.543 193.305 359.676 192.217 358.129 192.217C356.82 192.217 356.157 192.88 355.868 193.917H353.964L354.304 187.1H361.971V188.766H356.123L356.021 190.789C355.987 191.605 355.766 192.302 355.358 193.118L355.749 193.237ZM363.793 193.05C363.793 189.157 365.731 186.845 369.063 186.845C372.378 186.845 374.316 189.157 374.316 193.05C374.316 196.943 372.378 199.255 369.063 199.255C365.731 199.255 363.793 196.943 363.793 193.05ZM365.765 193.05C365.765 195.889 366.989 197.572 369.063 197.572C371.137 197.572 372.344 195.889 372.344 193.05C372.344 190.211 371.137 188.528 369.063 188.528C366.989 188.528 365.765 190.211 365.765 193.05ZM348.861 228.749H344.509V227.1H352.873V228.885C349.898 231.979 348.623 234.461 348.504 239H346.379C346.447 235.413 347.535 232.676 349.592 230.058C350.204 229.259 350.833 228.851 351.717 228.613L351.632 228.205C350.833 228.579 349.949 228.749 348.861 228.749ZM355.749 233.237C356.14 231.469 357.007 230.789 358.792 230.789C361.036 230.789 362.481 232.438 362.481 234.954C362.481 237.742 360.849 239.289 358.095 239.289C355.341 239.289 353.658 237.793 353.318 235.413L355.273 235.175C355.562 236.892 356.429 237.691 358.112 237.691C359.676 237.691 360.543 236.688 360.543 234.954C360.543 233.305 359.676 232.217 358.129 232.217C356.82 232.217 356.157 232.88 355.868 233.917H353.964L354.304 227.1H361.971V228.766H356.123L356.021 230.789C355.987 231.605 355.766 232.302 355.358 233.118L355.749 233.237ZM363.793 233.05C363.793 229.157 365.731 226.845 369.063 226.845C372.378 226.845 374.316 229.157 374.316 233.05C374.316 236.943 372.378 239.255 369.063 239.255C365.731 239.255 363.793 236.943 363.793 233.05ZM365.765 233.05C365.765 235.889 366.989 237.572 369.063 237.572C371.137 237.572 372.344 235.889 372.344 233.05C372.344 230.211 371.137 228.528 369.063 228.528C366.989 228.528 365.765 230.211 365.765 233.05ZM348.861 268.749H344.509V267.1H352.873V268.885C349.898 271.979 348.623 274.461 348.504 279H346.379C346.447 275.413 347.535 272.676 349.592 270.058C350.204 269.259 350.833 268.851 351.717 268.613L351.632 268.205C350.833 268.579 349.949 268.749 348.861 268.749ZM355.749 273.237C356.14 271.469 357.007 270.789 358.792 270.789C361.036 270.789 362.481 272.438 362.481 274.954C362.481 277.742 360.849 279.289 358.095 279.289C355.341 279.289 353.658 277.793 353.318 275.413L355.273 275.175C355.562 276.892 356.429 277.691 358.112 277.691C359.676 277.691 360.543 276.688 360.543 274.954C360.543 273.305 359.676 272.217 358.129 272.217C356.82 272.217 356.157 272.88 355.868 273.917H353.964L354.304 267.1H361.971V268.766H356.123L356.021 270.789C355.987 271.605 355.766 272.302 355.358 273.118L355.749 273.237ZM363.793 273.05C363.793 269.157 365.731 266.845 369.063 266.845C372.378 266.845 374.316 269.157 374.316 273.05C374.316 276.943 372.378 279.255 369.063 279.255C365.731 279.255 363.793 276.943 363.793 273.05ZM365.765 273.05C365.765 275.889 366.989 277.572 369.063 277.572C371.137 277.572 372.344 275.889 372.344 273.05C372.344 270.211 371.137 268.528 369.063 268.528C366.989 268.528 365.765 270.211 365.765 273.05ZM333.254 309.123C332.897 310.007 332.489 310.721 331.35 311.01L329.786 311.435V309.599L331.435 309.208C332.625 308.919 332.829 308.443 332.829 307.1H334.784V319H332.829V312.319C332.829 310.653 333.118 310.058 333.645 309.276L333.254 309.123ZM338.775 317.317L337.891 321.567H336.582L336.99 317.317H338.775ZM340.053 313.05C340.053 309.157 341.991 306.845 345.323 306.845C348.638 306.845 350.576 309.157 350.576 313.05C350.576 316.943 348.638 319.255 345.323 319.255C341.991 319.255 340.053 316.943 340.053 313.05ZM342.025 313.05C342.025 315.889 343.249 317.572 345.323 317.572C347.397 317.572 348.604 315.889 348.604 313.05C348.604 310.211 347.397 308.528 345.323 308.528C343.249 308.528 342.025 310.211 342.025 313.05ZM351.923 313.05C351.923 309.157 353.861 306.845 357.193 306.845C360.508 306.845 362.446 309.157 362.446 313.05C362.446 316.943 360.508 319.255 357.193 319.255C353.861 319.255 351.923 316.943 351.923 313.05ZM353.895 313.05C353.895 315.889 355.119 317.572 357.193 317.572C359.267 317.572 360.474 315.889 360.474 313.05C360.474 310.211 359.267 308.528 357.193 308.528C355.119 308.528 353.895 310.211 353.895 313.05ZM363.793 313.05C363.793 309.157 365.731 306.845 369.063 306.845C372.378 306.845 374.316 309.157 374.316 313.05C374.316 316.943 372.378 319.255 369.063 319.255C365.731 319.255 363.793 316.943 363.793 313.05ZM365.765 313.05C365.765 315.889 366.989 317.572 369.063 317.572C371.137 317.572 372.344 315.889 372.344 313.05C372.344 310.211 371.137 308.528 369.063 308.528C366.989 308.528 365.765 310.211 365.765 313.05ZM333.254 349.123C332.897 350.007 332.489 350.721 331.35 351.01L329.786 351.435V349.599L331.435 349.208C332.625 348.919 332.829 348.443 332.829 347.1H334.784V359H332.829V352.319C332.829 350.653 333.118 350.058 333.645 349.276L333.254 349.123ZM338.775 357.317L337.891 361.567H336.582L336.99 357.317H338.775ZM340.053 353.05C340.053 349.157 341.991 346.845 345.323 346.845C348.638 346.845 350.576 349.157 350.576 353.05C350.576 356.943 348.638 359.255 345.323 359.255C341.991 359.255 340.053 356.943 340.053 353.05ZM342.025 353.05C342.025 355.889 343.249 357.572 345.323 357.572C347.397 357.572 348.604 355.889 348.604 353.05C348.604 350.211 347.397 348.528 345.323 348.528C343.249 348.528 342.025 350.211 342.025 353.05ZM351.923 353.05C351.923 349.157 353.861 346.845 357.193 346.845C360.508 346.845 362.446 349.157 362.446 353.05C362.446 356.943 360.508 359.255 357.193 359.255C353.861 359.255 351.923 356.943 351.923 353.05ZM353.895 353.05C353.895 355.889 355.119 357.572 357.193 357.572C359.267 357.572 360.474 355.889 360.474 353.05C360.474 350.211 359.267 348.528 357.193 348.528C355.119 348.528 353.895 350.211 353.895 353.05ZM363.793 353.05C363.793 349.157 365.731 346.845 369.063 346.845C372.378 346.845 374.316 349.157 374.316 353.05C374.316 356.943 372.378 359.255 369.063 359.255C365.731 359.255 363.793 356.943 363.793 353.05ZM365.765 353.05C365.765 355.889 366.989 357.572 369.063 357.572C371.137 357.572 372.344 355.889 372.344 353.05C372.344 350.211 371.137 348.528 369.063 348.528C366.989 348.528 365.765 350.211 365.765 353.05Z" fill="#558E62"/>
</g>
<defs>
<clipPath id="clip0_228_420">
<rect width="440" height="402" fill="white"/>
</clipPath>
</defs>
</svg>
